<svg version="1.1" xmlns="http://www.w3.org/2000/svg" xmlns:xlink="http://www.w3.org/1999/xlink" x="0px" y="0px" width="95.167px" height="96.167px" viewBox="0 0 95.167 96.167" enable-background="new 0 0 95.167 96.167" xml:space="preserve">
            <linearGradient id="SVGID_1_" gradientUnits="userSpaceOnUse" x1="2.7915" y1="48.479" x2="92.7915" y2="48.479">
              <stop  offset="0" style="stop-color:#41B782"/>
                <stop  offset="0.1711" style="stop-color:#4FBC7D"/>
                <stop  offset="0.7167" style="stop-color:#77CB6F"/>
                <stop  offset="1" style="stop-color:#86D169"/>
            </linearGradient>
    <circle fill="url(#SVGID_1_)" cx="47.792" cy="48.479" r="45"/>
    <g>
              <path fill="#232323" d="M36.294,35.336c0.384,0.017,0.714-0.418,0.714-0.418s0.086-0.941,0.209-2.126 c0.122-1.185,1.048-3.311,1.779-4.426c0.732-1.114,3.03-3.188,5.435-3.989c2.404-0.801,4.635-0.714,7.127,0 c2.489,0.714,4.286,2.806,5.227,3.92c0.941,1.115,1.724,3.938,1.724,4.008h-1.515c-1.152-3.711-4.69-6.413-8.879-6.413 c-5.122,0-9.277,4.04-9.277,9.026c0,4.984,4.155,9.026,9.277,9.026c3.418,0,6.404-1.801,8.013-4.482 c1.605-0.4,3.083-0.749,3.445-0.764c0.871-0.034,1.273-1.202,1.273-1.202s0.103-3.433,0-4.182c-0.107-0.75-0.804-0.837-0.804-0.837 s-0.227-1.116-0.487-1.916c-0.26-0.802-0.663-1.586-1.395-2.894c-0.731-1.306-3.502-3.833-6.199-4.721 c-2.702-0.889-5.336-0.662-7.219-0.297c-1.882,0.367-4.457,2.144-5.905,3.572c-1.445,1.429-2.526,4.06-2.893,5.263 c-0.365,1.202-0.332,3.345-0.332,3.345S35.911,35.318,36.294,35.336z M55.301,37.923l-2.639,0.883 c0.01-0.107,0.016-0.216,0.013-0.326c-0.03-1.679-1.425-3.016-3.114-2.986c-1.697,0.029-3.04,1.415-3.01,3.094 c0.028,1.68,1.423,3.017,3.111,2.987c0.891-0.016,1.683-0.407,2.232-1.017c0.455-0.121,1.16-0.307,1.964-0.516 c-1.424,1.478-3.459,2.403-5.715,2.403c-4.312,0-7.808-3.368-7.808-7.524s3.495-7.524,7.808-7.524c4.308,0,7.803,3.368,7.803,7.524 C55.947,35.989,55.715,37.003,55.301,37.923z M51.201,38.506c0.015,0.899-0.688,1.641-1.571,1.657 c-0.883,0.013-1.609-0.702-1.627-1.601c-0.013-0.899,0.689-1.641,1.571-1.656C50.456,36.891,51.182,37.607,51.201,38.506z M59.468,34.394c0.017,0.558,0,2.563,0,2.563s-0.069,0.33-0.365,0.312c-0.298-0.017-1.638,0-1.638,0V33.82h1.76 C59.225,33.82,59.45,33.837,59.468,34.394z"/>
        <path fill="#232323" d="M65.219,53.435c0,0-0.756-1.684-1.871-3.02c-1.115-1.335-2.777-2.788-4.704-3.638 c0,0-1.733-0.661-2.511-0.824c-0.775-0.162-1.566-0.14-1.566-0.14s-1.532-0.545-3.254-0.672c-1.718-0.127-3.169-0.081-3.169-0.081 s-3.508,0.231-4.486,0.359c-0.974,0.127-2.274,0.337-3.018,0.418c-0.745,0.081-3.626,0.612-5.81,2.323c0,0-3.01,2.383-4.052,4.984 c0,0-0.966,2.16-1.071,4.251s0,7.968,0,7.968l-0.047,9.375c0,0,0,1.034,1.255,1.044c1.253,0.013,10.919,0,10.919,0l23.614,0.007 c0,0,0.688-0.04,0.724-0.994v-10.65v-6.577C66.172,57.569,65.904,54.933,65.219,53.435z M49.724,46.522 c0,0,2.134,0.104,2.728,0.222c0.593,0.115,0.986,0.277,0.986,0.277l-3.377,8.19l-0.337-4.938c0,0,0.219-0.64,0.521-1.266 c0.298-0.628,0.372-1.173,0.421-1.429C50.71,47.323,49.724,46.522,49.724,46.522z M47.808,46.777c0,0,1.29,1.139,1.29,1.186 c0,0.046-0.585,1.486-0.653,1.533c-0.069,0.046-1.255,0.07-1.349,0c-0.091-0.069-0.545-1.568-0.545-1.568L47.808,46.777z M48.795,58.301l-0.973,2.451l-0.992-2.473l0.477-7.296h1.02L48.795,58.301z M43.67,46.836c0.592-0.07,2.056-0.174,2.056-0.174 s-0.71,0.766-0.811,1.009c-0.108,0.244,0.986,2.638,0.986,2.638l-0.337,4.657l-3.15-7.886 C42.415,47.081,43.079,46.905,43.67,46.836z M64.661,62.064v12.234h-19.26H31.182v-6.658V57.348 c0.034-0.824,0.013-1.079,0.896-3.509c0.882-2.426,3.494-4.354,3.494-4.354c2.161-1.847,5.346-2.22,5.346-2.22l2.602,6.682 l3.519,8.954c0,0,0.256,0.721,0.72,0.709c0.468-0.011,0.815-0.731,0.815-0.731l1.752-4.403l4.555-11.21c0,0,2.136,0.384,3.53,1.024 c1.393,0.639,2.929,2.078,3.95,3.23c1.023,1.149,2.009,3.913,2.009,3.913C64.94,57.116,64.661,62.064,64.661,62.064z"/>
        <path fill="#232323" d="M47.786,66.385c0.402,0,0.728-0.312,0.728-0.697c0-0.385-0.325-0.697-0.728-0.697 c-0.398,0-0.725,0.312-0.725,0.697C47.061,66.073,47.387,66.385,47.786,66.385z"/>
        <ellipse fill="#232323" cx="47.823" cy="68.656" rx="0.727" ry="0.697"/>
            </g>
</svg>