<svg version="1.1" xmlns="http://www.w3.org/2000/svg" xmlns:xlink="http://www.w3.org/1999/xlink" x="0px" y="0px" width="95.333" height="97" viewBox="0 0 95.2 96.2" style="enable-background:new 0 0 95.2 96.2;" xml:space="preserve">
            <linearGradient id="SVGID_1_" gradientUnits="userSpaceOnUse" x1="2.7915" y1="48.479" x2="92.7915" y2="48.479">
              <stop  offset="0" style="stop-color:#41B782"/>
                <stop  offset="0.1711" style="stop-color:#4FBC7D"/>
                <stop  offset="0.7167" style="stop-color:#77CB6F"/>
                <stop  offset="1" style="stop-color:#86D169"/>
            </linearGradient>
    <circle style="fill:url(#SVGID_1_);" cx="47.8" cy="48.5" r="45"/>
    <g>
              <path style="fill:none;stroke:#232323;stroke-width:1.3933;stroke-miterlimit:10;" d="M58.9,47.2c0,6.4-5.3,11.5-11.7,11.5 s-11.7-5.2-11.7-11.5c0-2.4,0.7-4.5,1.9-6.4c2.1-3.1,5.7-5.2,9.8-5.2C53.7,35.6,58.9,40.8,58.9,47.2z"/>
        <path style="fill:none;stroke:#232323;stroke-width:1.3933;stroke-miterlimit:10;" d="M57.2,41.1l-0.1-0.5L57,40 c0,0-1.4-13.3-1.5-15.1s-2.6-1.7-2.6-1.7s-9.1-0.1-11.6,0c-2.5,0-2.6,3-2.6,3l-1.4,14.3L37.2,41"/>
        <path style="fill:none;stroke:#232323;stroke-width:1.3933;stroke-miterlimit:10;" d="M57.3,53.1l-0.1,0.7c0,0-1.3,13.4-1.6,15.4 c-0.3,2.1-2.6,2-2.6,2s-9.7,0-11.9,0s-2.3-2.8-2.3-2.8l-1.6-14.8l-0.3-1.1"/>
        <line style="fill:none;stroke:#232323;stroke-width:1.2266;stroke-miterlimit:10;" x1="42.3" y1="38.3" x2="43.4" y2="40.4"/>
        <line style="fill:none;stroke:#232323;stroke-width:1.2266;stroke-miterlimit:10;" x1="47.4" y1="37" x2="47.4" y2="39.2"/>
        <line style="fill:none;stroke:#232323;stroke-width:1.2266;stroke-miterlimit:10;" x1="52.4" y1="38.4" x2="51.4" y2="40.2"/>
        <line style="fill:none;stroke:#232323;stroke-width:1.2266;stroke-miterlimit:10;" x1="56.2" y1="42.1" x2="54.3" y2="43.2"/>
        <line style="fill:none;stroke:#232323;stroke-width:1.2266;stroke-miterlimit:10;" x1="57.5" y1="47.1" x2="55.2" y2="47.2"/>
        <line style="fill:none;stroke:#232323;stroke-width:1.2266;stroke-miterlimit:10;" x1="56" y1="52.2" x2="54.3" y2="51"/>
        <line style="fill:none;stroke:#232323;stroke-width:1.2266;stroke-miterlimit:10;" x1="52.5" y1="56" x2="51.4" y2="54.2"/>
        <line style="fill:none;stroke:#232323;stroke-width:1.2266;stroke-miterlimit:10;" x1="47.5" y1="57.2" x2="47.5" y2="55.2"/>
        <line style="fill:none;stroke:#232323;stroke-width:1.2266;stroke-miterlimit:10;" x1="42.2" y1="56" x2="43.4" y2="54.1"/>
        <line style="fill:none;stroke:#232323;stroke-width:1.2266;stroke-miterlimit:10;" x1="38.5" y1="52.3" x2="40.5" y2="51.2"/>
        <line style="fill:none;stroke:#232323;stroke-width:1.2266;stroke-miterlimit:10;" x1="37.1" y1="47.2" x2="39.3" y2="47.2"/>
        <line style="fill:none;stroke:#232323;stroke-width:1.2266;stroke-miterlimit:10;" x1="38.6" y1="42" x2="40.4" y2="43"/>
        <path style="fill:#232323;" d="M47.4,47.6L47.4,47.6c-0.2,0-0.3-0.1-0.3-0.3v-7c0-0.2,0.1-0.3,0.3-0.3h0c0.2,0,0.3,0.1,0.3,0.3v7 C47.7,47.5,47.6,47.6,47.4,47.6z"/>
        <path style="fill:#232323;" d="M52.6,47h-5.2c-0.2,0-0.3,0.1-0.3,0.3l0,0c0,0.2,0.1,0.3,0.3,0.3h5.2c0.2,0,0.3-0.1,0.3-0.3l0,0 C52.9,47.1,52.8,47,52.6,47z"/>
        <path style="fill:#232323;" d="M59.7,49.2L59.7,49.2c-0.5,0-0.9-0.4-0.9-0.9v-2.1c0-0.5,0.4-0.9,0.9-0.9h0c0.5,0,0.9,0.4,0.9,0.9 v2.1C60.6,48.8,60.2,49.2,59.7,49.2z"/>
            </g>
</svg>