<svg version="1.1" xmlns="http://www.w3.org/2000/svg" xmlns:xlink="http://www.w3.org/1999/xlink" x="0px" y="0px" width="95.167px" height="96.167px" viewBox="0 0 95.167 96.167" enable-background="new 0 0 95.167 96.167" xml:space="preserve">
            <linearGradient id="SVGID_1_" gradientUnits="userSpaceOnUse" x1="2.7915" y1="48.479" x2="92.7915" y2="48.479">
              <stop  offset="0" style="stop-color:#41B782"/>
                <stop  offset="0.1711" style="stop-color:#4FBC7D"/>
                <stop  offset="0.7167" style="stop-color:#77CB6F"/>
                <stop  offset="1" style="stop-color:#86D169"/>
            </linearGradient>
    <circle fill="url(#SVGID_1_)" cx="47.792" cy="48.479" r="45"/>
    <g>
              <path fill="#232323" d="M67.253,65.949c-0.921,0-3.113,0.043-3.113,0.043V65.77V33.525c0,0,0.395-4.524-4.476-4.524 c-4.866,0-31.006,0-31.006,0s-3.772,0.533-3.772,4.391c0,2.707,0,3.273,0,3.371c0,0,0.132,0.577,0.746,0.621 s6.053,0.178,6.053,0.178v30.915c0,0,0.044,4.168,4.21,4.168s28.252,0,28.252,0s3.896-0.665,3.896-3.991c0-1.552,0-2.123,0-2.297 C68.021,66.199,67.889,65.949,67.253,65.949z M31.773,35.853h-5.329v-2.917c0,0,0.559-2.295,2.796-2.293 c2.236,0.002,2.533,2.438,2.533,2.438V35.853z M38.46,66.458l-0.066,2.373c0,0-0.395,2.173-2.651,2.173 c-2.26,0-2.436-2.219-2.436-2.219s0.022-34.085,0-35.438c-0.021-1.353-0.877-2.706-0.877-2.706s25.394,0,27.696,0 s2.325,2.129,2.325,2.129l0.021,33.11c0,0-22.347-0.044-23.223-0.044C38.374,65.837,38.46,66.458,38.46,66.458z M66.245,69.242 c-0.176,0.499-1.185,1.83-2.104,1.852c-0.921,0.022-25.087,0-25.087,0s0.724-0.865,0.877-2.041 c0.152-1.175,0.131-1.663,0.131-1.663h26.381C66.442,67.39,66.42,68.742,66.245,69.242z"/>
        <path fill="#232323" d="M68.042,66.356c0,0.056,0,0.124,0,0.124S68.053,66.427,68.042,66.356z"/>
        <path fill="#232323" d="M43.022,35.742h8.465c0.423,0,0.768-0.347,0.768-0.776c0-0.429-0.345-0.777-0.768-0.777h-8.465 c-0.424,0-0.768,0.348-0.768,0.777C42.254,35.395,42.598,35.742,43.022,35.742z"/>
        <path fill="#232323" d="M37.825,40.976h20.526c0.362,0,0.657-0.298,0.657-0.666s-0.295-0.665-0.657-0.665H37.825 c-0.364,0-0.656,0.298-0.656,0.665S37.46,40.976,37.825,40.976z"/>
        <path fill="#232323" d="M37.43,51.976h20.526c0.363,0,0.657-0.297,0.657-0.665c0-0.367-0.294-0.666-0.657-0.666H37.43 c-0.365,0-0.658,0.298-0.658,0.666C36.772,51.678,37.065,51.976,37.43,51.976z"/>
        <path fill="#232323" d="M37.43,57.165h20.526c0.363,0,0.657-0.297,0.657-0.666c0-0.367-0.294-0.665-0.657-0.665H37.43 c-0.365,0-0.658,0.298-0.658,0.665C36.772,56.868,37.065,57.165,37.43,57.165z"/>
        <path fill="#232323" d="M58.614,61.601c0-0.368-0.294-0.666-0.657-0.666H37.43c-0.365,0-0.658,0.297-0.658,0.666 c0,0.368,0.293,0.665,0.658,0.665h20.526C58.32,62.266,58.614,61.969,58.614,61.601z"/>
        <path fill="#232323" d="M37.584,46.831c0.447,0,0.81-0.367,0.81-0.82v-0.045c0-0.453-0.362-0.82-0.81-0.82 c-0.449,0-0.812,0.368-0.812,0.82v0.045C36.772,46.463,37.135,46.831,37.584,46.831z"/>
        <path fill="#232323" d="M58.175,45.145H41.157c-0.459,0-0.832,0.329-0.832,0.732s0.373,0.731,0.832,0.731h17.019 c0.461,0,0.833-0.328,0.833-0.731S58.636,45.145,58.175,45.145z"/>
            </g>
</svg>