<svg class="features-lom__icon" version="1.1" xmlns="http://www.w3.org/2000/svg" xmlns:xlink="http://www.w3.org/1999/xlink" x="0px" y="0px" width="80px" height="80px" viewBox="0 0 22.3 21.2" style="enable-background:new 0 0 22.3 21.2;" xml:space="preserve">
              <path style="fill:none;stroke:#7A7A7A;stroke-width:0.5862;stroke-miterlimit:10;" d="M11.6,17H2.8c-1.2,0-2.2-1-2.2-2.2V8 c0-1.2,1-2.2,2.2-2.2h8.8c1.2,0,2.2,1,2.2,2.2v6.8C13.8,16,12.8,17,11.6,17z"/>
    <ellipse style="fill:#FFFFFF;stroke:#7A7A7A;stroke-width:0.3901;stroke-miterlimit:10;" cx="12.5" cy="15.5" rx="3" ry="2.9"/>
    <path style="fill:#7A7A7A;" d="M13.7,8.9H0.5v-1c0-1.2,0.9-2.1,2.1-2.1h9.3c1,0,1.9,0.8,1.9,1.9V8.9z"/>
    <path style="fill:#7A7A7A;stroke:#FFFFFF;stroke-width:0.4877;stroke-miterlimit:10;" d="M3.1,7.1L3.1,7.1c-0.3,0-0.6-0.3-0.6-0.6 V4.3c0-0.3,0.3-0.6,0.6-0.6h0c0.3,0,0.6,0.3,0.6,0.6v2.1C3.8,6.8,3.5,7.1,3.1,7.1z"/>
    <path style="fill:#7A7A7A;stroke:#FFFFFF;stroke-width:0.4877;stroke-miterlimit:10;" d="M11.3,7L11.3,7c-0.3,0-0.6-0.3-0.6-0.6V4.3 c0-0.3,0.3-0.6,0.6-0.6h0c0.3,0,0.6,0.3,0.6,0.6v2.1C11.9,6.7,11.6,7,11.3,7z"/>
    <rect x="2.2" y="9.8" style="fill:#FFFFFF;stroke:#7A7A7A;stroke-width:0.3901;stroke-miterlimit:10;" width="2.1" height="2.1"/>
    <rect x="2.2" y="12.9" style="fill:#FFFFFF;stroke:#7A7A7A;stroke-width:0.3901;stroke-miterlimit:10;" width="2.1" height="2.1"/>
    <rect x="5.5" y="9.8" style="fill:#FFFFFF;stroke:#7A7A7A;stroke-width:0.3901;stroke-miterlimit:10;" width="2.1" height="2.1"/>
    <rect x="8.9" y="9.8" style="fill:#FFFFFF;stroke:#7A7A7A;stroke-width:0.3901;stroke-miterlimit:10;" width="2.1" height="2.1"/>
    <rect x="5.5" y="12.9" style="fill:#FFFFFF;stroke:#7A7A7A;stroke-width:0.3901;stroke-miterlimit:10;" width="2.1" height="2.1"/>
    <path style="fill:#7A7A7A;" d="M12,16.3h-0.2c-0.1,0-0.2-0.1-0.2-0.2v-1.8c0-0.1,0.1-0.2,0.2-0.2H12c0.1,0,0.2,0.1,0.2,0.2V16 C12.2,16.2,12.1,16.3,12,16.3z"/>
    <path style="fill:#7A7A7A;" d="M11.7,16.1v-0.2c0-0.1,0.1-0.2,0.2-0.2h1.8c0.1,0,0.2,0.1,0.2,0.2v0.2c0,0.1-0.1,0.2-0.2,0.2h-1.8 C11.8,16.3,11.7,16.2,11.7,16.1z"/>
</svg>