<svg class="features-lom__icon" version="1.1" xmlns="http://www.w3.org/2000/svg" xmlns:xlink="http://www.w3.org/1999/xlink" x="0px" y="0px" width="80px" height="80px" viewBox="0 0 22.3 21.2" style="enable-background:new 0 0 22.3 21.2;" xml:space="preserve">
              <path style="fill:none;stroke:#7A7A7A;stroke-width:0.5;stroke-miterlimit:10;" d="M7.6,5.7L1.7,9.5c0,0-1.3,0.7-0.5,1.4 s4.3,2.8,4.3,2.8s0.9,0.4,1.7-0.1c0.3-0.2,1.6-1,3.2-2c2.7-1.7,6-3.8,6-3.8s0.9-0.6,0.2-1.2s-4.7-3-4.7-3s-0.7-0.2-1.5,0.2 S7.6,5.7,7.6,5.7z"/>
    <path style="fill:none;stroke:#7A7A7A;stroke-width:0.5;stroke-miterlimit:10;" d="M0.5,11.9l4.8,3.4c0,0,1.2,0.6,2.1-0.1 c0.9-0.7,9.9-6.5,9.9-6.5"/>
    <path style="fill:none;stroke:#7A7A7A;stroke-width:0.5;stroke-miterlimit:10;" d="M0.4,13.9l4.8,3.4c0,0,1.2,0.6,2.1-0.1 c0.9-0.7,9.9-6.5,9.9-6.5"/>
    <path style="fill:none;stroke:#7A7A7A;stroke-width:0.5;stroke-miterlimit:10;" d="M0.4,15.7l4.8,3.4c0,0,1.2,0.6,2.1-0.1 s9.9-6.5,9.9-6.5"/>
    <path style="fill:none;stroke:#7A7A7A;stroke-width:0.4;stroke-miterlimit:10;" d="M9.1,6.3L4,9.6c0,0-0.6,0.6-0.2,1.1 c0.4,0.5,1.6,1.2,1.6,1.2s1.1,0.6,2.1-0.1S13.4,8,13.4,8s1.1-0.9,0.6-1.4c-0.6-0.5-2.1-1.4-2.1-1.4s-0.7-0.3-1.4,0.1 C9.7,5.7,9.1,6.3,9.1,6.3z"/>
    <ellipse style="fill:#7A7A7A;" cx="6.3" cy="10.3" rx="0.5" ry="0.3"/>
    <ellipse style="fill:#7A7A7A;" cx="11.4" cy="7" rx="0.5" ry="0.3"/>
    <path style="fill:none;stroke:#232323;stroke-width:0.6989;stroke-miterlimit:10;" d="M5.3,7.5"/>
    <polygon style="fill:#FFFFFF;stroke:#7A7A7A;stroke-width:0.5;stroke-miterlimit:10;" points="5.3,7.5 10.3,11.2 10.3,16.9 13.4,14.9 13.3,9.6 7.6,5.7 5.1,7.3 "/>
</svg>