<?xml version="1.0" encoding="utf-8"?>
<!-- Generator: Adobe Illustrator 21.1.0, SVG Export Plug-In . SVG Version: 6.00 Build 0)  -->
<svg version="1.1" id="_x3C_Layer_x3E_" xmlns="http://www.w3.org/2000/svg" xmlns:xlink="http://www.w3.org/1999/xlink" x="0px"
	 y="0px" viewBox="0 0 1231 847" style="enable-background:new 0 0 1231 847;" xml:space="preserve">
<g>
	<g>
		<g>
			<path style="fill:#EBA971;" d="M1062.5,377.8c-14.4,5-57.4,34.5-79.3,51.1c-9.1,3.7-17.4,7.3-24.4,10.4l-90.7,31.2
				c-2.7,0.1-10.1,0.4-18.3,0.8c24-15.4,73.5-41,73.5-41c25.9-22.9,77.6-81,110.3-76.2c1.3,0.2,25.4,0.5,29.2,23.7
				C1062.6,377.7,1062.6,377.7,1062.5,377.8z"/>
			<path style="fill:#C27E44;" d="M959.3,439c30.5-21.7,88.4-60.8,101.7-65.5c0.2-0.1,0.4-0.1,0.6-0.2c0.4,1.4,0.8,2.8,1,4.4
				c-14.6,5.1-57.6,34.6-79.5,51.1C974.3,432.4,966.2,435.9,959.3,439z"/>
			<path style="fill:#EBA971;" d="M1036.3,410.7c-18.4,5-37,11.7-53.1,18.2c21.9-16.6,64.9-46.1,79.3-51.1c12.5-4.4,53-14.3,71,7.5
				c4,4.9,3.4,12.1-1.4,16.4c-8.1,7.2-17.1,16.6-23.7,24C1087.6,400.4,1043.2,408.8,1036.3,410.7z"/>
		</g>
		<g>
			<rect x="902.3" y="252.2" width="194.3" height="96"/>
			<rect x="288.6" y="252.2" width="194.3" height="96"/>
			<path style="fill:#F13E23;" d="M213.3,316.5c4.7,0,8.5-3.8,8.5-8.5v-5.8c0-4.7-3.8-8.5-8.5-8.5h-28.3c0-6.1,0.4-11.7,0.4-16.1
				c0-17.4,5.8-22.3,14.1-32.2c8.3-9.9,8.7-89.7,12.8-100.4c4.1-10.7,62.4-10.3,84.3-11.6c50.2-18.7,79.1-27.8,141.1-45.9
				c59.5-17.5,135-24.8,174.4-23.1c44.4,1.9,122.4,8.8,179.7,36.4c57.3,27.6,85.6,59.1,139.3,62.5c26,1.7,92.6,10.3,140.1,27.3
				c47.5,16.9,78.5,38,85.2,82.7c0.7,4.5,1.2,8.7,1.5,12.8h-16.4c-6.2,0-11.2,4.6-11.2,10.3v19.4c0,5.7,5,10.3,11.2,10.3h15.1
				c-2.1,11.9-5.3,18.8-6.9,20.7c-3.3,3.7-5.1,12.8-47.5,14.5c-3.1,0.1-7.9,0.2-14.1,0.3v-16.4c0-48.7-39.5-88.2-88.2-88.2
				c-48.7,0-88.2,39.5-88.2,88.2V362c-114.7-0.1-243-0.8-272.4-1.4c-24.9-0.5-96.9-0.2-168-0.2v-9.8c0-48.7-39.5-88.2-88.2-88.2
				c-48.7,0-88.2,39.5-88.2,88.2v6.8c-27.1-3.8-79.3-10.7-86.3-13.6c-12.2-5.1-18.1-14.8-21-25.6
				C188.9,317.4,213.3,316.5,213.3,316.5z"/>
			<path style="fill:#D43017;" d="M911.7,348.9v13c-114.7-0.1-243-0.8-272.4-1.4c-24.9-0.5-96.9-0.2-168-0.1v-9.8
				c0-0.6-0.1-1.1-0.1-1.7H911.7z"/>
			<path style="fill:#F16F5C;" d="M327.5,182.7c95.2,0.4,341.2,19.2,430.3,31.9c89.1,12.6,163.5,20.9,200.7,31.6
				c-45.1-20.7-144.3-40.3-219.1-50.4c-72.6-9.8-384.7-30.1-431.4-31C323,171,327.6,175.2,327.5,182.7z"/>
			<path style="fill:#212121;" d="M892.8,193.7c-23.2-32.2-54.8-55.3-79.4-69.1c-27.6-15.4-69.3-33.7-128.4-40.5
				c-55.7-6.4-89.7-8.9-133.6-4.5c-43.9,4.5-90.7,19.8-122.4,34c-19.6,8.8-48.2,22.5-41.3,51.1C443.7,167,853.8,190.4,892.8,193.7z"
				/>
			<path style="fill:#8F1C0A;" d="M875.2,342.3c11.5,0,21.5-8.1,23.8-19.3c10.4-50.5,7.4-92.4-6.2-129.3l-3.8-0.3
				c13.3,36.3,17,79,6.7,128.9c-2,9.7-10.6,16.7-20.5,16.7c-70.8-0.4-353-2.4-370.8-2.8l-0.3,1.6l0-1.7c-9.1-0.2-16.8-6.5-18.8-15.1
				c-7.3-31.6-27.6-58.2-55.6-72.9c-7.4-3.9-13-9.6-16.4-16.5L413,231c-5.5-11.4-16.5-37.6-22-66.1l-3.3-0.1
				c5.6,29,16.9,56.2,22.4,67.7l0.3,0.6c3.7,7.6,9.9,13.8,17.9,18c27.1,14.2,46.8,40,53.9,70.7c2.4,10.2,11.4,17.4,21.9,17.7l0.3,0
				c17.9,0.4,300.1,2.4,370.8,2.8C875.1,342.3,875.1,342.3,875.2,342.3z"/>
			<path style="fill:#8F1C0A;" d="M644.2,339.3c7.7-42.6,8-120.1-3.4-160.9l-3.3-0.2c11.1,39.6,11,119,3.5,160.5L644.2,339.3z"/>
			<path d="M640.8,178.5c-1.1-0.1-2.2-0.1-3.3-0.2c-2-18.5-10.6-75.5-15.5-100c1.1,0.1,2.3,0.1,3.4,0.2
				C630.4,103.8,639,160.6,640.8,178.5z"/>
			<path style="fill:#8F1C0A;" d="M310.8,226.4v-23.5c0-5.9,4.8-10.8,10.8-10.8h29.1c5.9,0,10.8,4.8,10.8,10.8v23.5
				c0,5.9-4.8,10.8-10.8,10.8h-29.1C315.7,237.1,310.8,232.3,310.8,226.4z M321.6,195.4c-4.1,0-7.5,3.3-7.5,7.5v23.5
				c0,4.1,3.3,7.5,7.5,7.5h29.1c4.1,0,7.5-3.3,7.5-7.5v-23.5c0-4.1-3.3-7.5-7.5-7.5H321.6z"/>
			<path style="fill:#212121;" d="M1130.4,315.7v-19.4c0-5.7,5-10.3,11.2-10.3h13.4c1.2,16.5,0.4,29.9-1.1,40.1h-12.3
				C1135.4,326,1130.4,321.4,1130.4,315.7z"/>
			<ellipse style="fill:#D6D6D6;" cx="1142.6" cy="306.2" rx="6.4" ry="14.2"/>
			<path style="fill:#CFCFCF;" d="M1135.8,239.5c5.8,10.6,6.1,24-8.8,23.7c-14.9-0.3-28.9,1.1-53.5-21.5
				c-24.5-22.6-32.8-24.8-30.3-35.8c2.5-11,19.8-4.1,32-1.4C1087.3,207.3,1124.2,218.3,1135.8,239.5z"/>
			<path style="fill:#F2F2F2;" d="M1127.4,258.6c3.3,0,5.5-0.9,6.5-2.5c1.7-2.9,0.8-8.6-2.3-14.2c-9.6-17.7-40.7-28.8-57.6-32.7
				c-2.1-0.5-4.2-1-6.5-1.6c-5.4-1.4-11-2.9-15.2-2.9c-4.1,0-4.4,1.3-4.7,2.4c-1.1,5,0.3,6.6,12.4,16.9c4.4,3.7,9.8,8.3,16.5,14.5
				c21.6,19.9,34.2,20.1,47.5,20.2C1125.1,258.5,1127.4,258.6,1127.4,258.6z"/>
			<path style="fill:#CFCFCF;" d="M208,188c2.9-2,6.8-3.5,12.2-3.8c11.3-0.6,18.7-1,27.6-1.1c11.6-0.1,48.2-0.8,51.8,0
				c3.6,0.8,14.3,2.7,4.1,10.6c-10.2,7.9-65,28.8-76.6,32.7c-10,3.3-18.1,6.7-23.7,7.3C205.5,222.2,206.8,204.6,208,188z"/>
			<path style="fill:#F2F2F2;" d="M210.2,218.6c-0.5,4.2,3.6,7.4,7.6,6c2.5-0.9,5.1-1.8,7.8-2.7c14-4.7,66.2-25,75.2-31.9
				c0.7-0.5,1.2-1,1.5-1.3c-1.2-0.4-2.6-0.7-3.3-0.9l-0.6-0.1c-0.3-0.1-2.4-0.3-12.5-0.3c-8.5,0-19.3,0.1-28,0.3
				c-4.2,0.1-7.8,0.1-10.2,0.1c-6.9,0.1-13,0.4-20.7,0.8l-6.6,0.3c-4.5,0.2-8,3.9-8.4,8.3C211.5,204.5,210.9,211.8,210.2,218.6z"/>
			<path style="fill:#DC0225;" d="M213.3,293.8c4.7,0,8.5,3.8,8.5,8.5v5.8c0,4.7-3.8,8.5-8.5,8.5h-22.7c-1.3-7.6-1.7-15.4-1.7-22.7
				H213.3z"/>
			<path style="fill:#8F1C0A;" d="M187.6,318.2h25.8c5.6,0,10.1-4.5,10.1-10.1v-5.8c0-5.6-4.5-10.1-10.1-10.1h-28.3v3.3h28.3
				c3.8,0,6.8,3.1,6.8,6.8v5.8c0,3.8-3.1,6.8-6.8,6.8h-26.2L187.6,318.2z"/>
			<path style="fill:#D43017;" d="M900.6,361.9v-23.4c0-55.7,45.2-100.9,100.9-100.9c55.7,0,100.9,45.2,100.9,100.9v22.6
				c-3.1,0.1-7.9,0.2-14.1,0.3v-16.4c0-48.7-39.5-88.2-88.2-88.2c-48.7,0-88.2,39.5-88.2,88.2V362C908,362,904.3,362,900.6,361.9z"
				/>
			<path style="fill:#D43017;" d="M285.2,356.1v-9c0-55.7,43.3-100.9,96.7-100.9s96.7,45.2,96.7,100.9v13.3c-2.4,0-4.9,0-7.3,0v-9.8
				c0-48.7-39.5-88.2-88.2-88.2c-48.7,0-88.2,39.5-88.2,88.2v6.8C291.9,357,288.6,356.5,285.2,356.1z"/>
			<path style="fill:#EC944C;" d="M1047.8,207c0.2-1.1,0.5-2.4,4.7-2.4c4.2,0,9.8,1.5,15.2,2.9c0.3,0.1,0.7,0.2,1,0.3
				c-0.2,1.9-0.4,3.9-0.4,5.9c0,8,2,15.5,5.6,22c-5.4-4.9-9.9-8.7-13.6-11.9C1048.1,213.6,1046.6,212,1047.8,207z"/>
			<path style="fill:#B3B3B3;" d="M1091.6,247.7c-2.4-2.4-4.1-6.8-4.4-12.2c-0.4-5.6,0.8-10.7,3.1-14c2.2-3.1,4.8-3.8,7.3-2.4
				c2.1,1.1,3.7,3.5,4.8,6.6c0.9,2.5,1.4,5.5,1.4,8.4c0.1,6.2-1.9,12.2-5.3,14.5c-0.2,0.1-0.4,0.2-0.5,0.3
				C1095.8,250,1093.6,249.7,1091.6,247.7z M1097.6,222.4c-1.4-0.6-2.9,0.1-4.2,2.2c-1.5,2.5-2.3,6.4-2.1,10.5
				c0.2,4.1,1.3,7.5,2.9,9.4c1.3,1.6,2.7,2,4,1.2c2.4-1.3,4-6.5,3.9-11.6c0-2.7-0.5-5.3-1.3-7.6c-0.8-2-1.8-3.5-3-4.1
				C1097.8,222.5,1097.7,222.4,1097.6,222.4z"/>
			<path style="fill:#DC0225;" d="M229.4,198c0-5.4,4.3-9.8,9.7-10c2.9-0.1,5.7-0.2,8.7-0.2c2.5,0,6.1-0.1,10.2-0.1
				c8.7-0.1,19.4-0.3,28-0.3c10.1,0,12.2,0.2,12.5,0.3l0.6,0.1c0.6,0.1,2.1,0.5,3.3,0.9c-0.4,0.4-0.9,0.8-1.5,1.3
				c-6.9,5.3-39.2,18.5-60.2,26.5c-5.4,2-11.2-1.9-11.2-7.7V198z"/>
			<g>
				<path style="fill:#333333;" d="M930.1,388.8c22.4,38.5,71.8,51.5,110.3,29c38.5-22.4,51.5-71.8,29-110.3
					c-22.4-38.5-71.8-51.5-110.3-29S907.7,350.3,930.1,388.8z M938.6,383.9c-19.7-33.8-8.3-77.3,25.5-97c33.8-19.7,77.3-8.3,97,25.5
					c19.7,33.8,8.3,77.3-25.5,97C1001.7,429.1,958.3,417.7,938.6,383.9z"/>
				<g>
					<path style="fill:#6B6B6B;" d="M1043.5,367.6c2-4.6,3.3-9.5,3.8-14.5l0.2-1.8l-1.8,0.1c-6.7,0.4-13.9,0.2-21-0.8l-1.1-0.2
						c-1.5-0.2-3-0.9-4.1-1.9c-2.5-2.3-3.3-5.9-2-9c0.3-0.7,0.8-1.4,1.3-2.1c0.4-0.5,0.9-0.9,1.4-1.2c6.5-4.2,13.5-7.8,20-10.2
						l1.7-0.6l-0.9-1.5c-5.1-8.7-12.7-15.4-21.9-19.5l-1.6-0.7l-0.4,1.7c-1.3,5.1-3.2,10.7-5.6,16.1c-0.5,1.2-1.1,2.4-1.7,3.6
						l-0.5,1c-0.7,1.4-1.7,2.6-3.1,3.3c-1.8,1.1-3.9,1.3-5.9,0.8c-2-0.5-3.7-1.8-4.8-3.6c-0.3-0.5-0.6-1.1-0.7-1.7
						c-2-7.5-3.2-15.3-3.6-22.1l-0.1-1.8l-1.8,0.4c-4.9,1.1-9.6,2.9-13.9,5.4c-4.3,2.5-8.2,5.7-11.5,9.4l-1.2,1.3l1.5,1
						c5.5,3.5,11.4,8.1,16.6,13.1l0.8,0.7c1.1,1.1,1.9,2.5,2.2,4c0.4,1.6,0.2,3.3-0.5,4.8c-1,2.3-3.1,4-5.5,4.5
						c-0.6,0.1-1.2,0.2-1.9,0.2c-7.7-0.4-15.5-1.6-22.1-3.4l-1.7-0.5l-0.2,1.8c-1,10.1,1.2,20,6.2,28.7l0.9,1.6l1.4-1.2
						c5-4.2,11.2-8.3,17.6-11.7l0.9-0.5c1.4-0.7,2.9-1,4.5-0.9c2.1,0.2,4,1.2,5.3,2.8c1.3,1.6,1.9,3.7,1.7,5.7
						c-0.1,0.6-0.2,1.2-0.4,1.8l-0.1,0.2c-0.6,1.6-1.2,3.1-1.9,4.6c-2.4,5.4-5.2,10.6-8.2,15.1l-1,1.5l1.6,0.7
						c9.3,4.1,19.5,5.1,29.3,3l1.8-0.4l-0.7-1.7c-2.5-6.2-4.5-13.2-5.7-20.3l-0.2-1.1c-0.3-1.5-0.1-3.1,0.5-4.5
						c1.7-4,6.4-5.8,10.3-4c0.6,0.3,1.1,0.6,1.6,0.9c6,4.9,11.5,10.3,15.9,15.8l1.1,1.4l1.2-1.3
						C1038.8,376.4,1041.5,372.2,1043.5,367.6z"/>
					<path style="fill:#6B6B6B;" d="M961.4,370.5c12.4,21.2,39.6,28.4,60.8,16c21.2-12.4,28.4-39.6,16-60.8
						c-12.4-21.2-39.6-28.4-60.8-16C956.2,322.1,949.1,349.3,961.4,370.5z M964.2,368.9c-11.5-19.7-4.8-44.9,14.9-56.4
						c19.7-11.5,44.9-4.8,56.4,14.9c11.5,19.7,4.8,44.9-14.9,56.4C1000.9,395.2,975.7,388.6,964.2,368.9z"/>
					<path style="fill:#C2C2C2;" d="M959.8,371.5c12.9,22.1,41.2,29.6,63.3,16.7c22.1-12.9,29.6-41.2,16.7-63.3
						c-12.9-22.1-41.2-29.6-63.3-16.7C954.4,321,946.9,349.4,959.8,371.5z M962.7,369.8c-12-20.5-5-46.8,15.5-58.8
						c20.5-12,46.8-5,58.8,15.5c12,20.5,5,46.8-15.5,58.8C1001,397.2,974.6,390.3,962.7,369.8z"/>
					<path style="fill:#C2C2C2;" d="M983.4,358.1c-1.9-0.2-3.8,0.2-5.3,1.1c-7,3.7-13.5,8-18.7,12.4c-5.1-8.8-6.9-18.5-6-27.8
						c6.5,1.8,14.3,3.1,22.2,3.5c0.8,0,1.7,0,2.5-0.2c5-1.1,8.2-6.1,7.1-11.1c-0.4-1.9-1.4-3.5-2.6-4.7c-5.6-5.5-11.8-10.4-17.6-14
						c3.2-3.5,6.9-6.6,11.2-9.1c4.3-2.5,8.8-4.2,13.4-5.2c0.3,6.8,1.5,14.6,3.6,22.2c0.2,0.8,0.5,1.6,1,2.3c2.6,4.5,8.3,6,12.8,3.4
						c1.7-1,2.9-2.4,3.7-4c3.5-7.1,6.2-14.4,7.9-21c8.6,3.8,16.1,10.2,21.3,18.9c-6.4,2.4-13.4,6-20,10.3c-0.7,0.4-1.3,1-1.9,1.6
						c-3.4,3.8-3.1,9.8,0.7,13.2c1.4,1.3,3.2,2,4.9,2.3c7.8,1.1,15.6,1.4,22.4,1c-1,9.6-4.9,18.8-11.5,26.1
						c-4.3-5.3-9.8-10.9-15.9-15.9c-0.6-0.5-1.3-1-2.1-1.3c-4.7-2.1-10.2,0.1-12.3,4.8c-0.8,1.8-1,3.6-0.6,5.4
						c1.3,7.8,3.5,15.3,6,21.6c-9.6,2.1-19.5,1-28.4-2.9c3.7-5.7,7.4-12.6,10.2-20c0.3-0.8,0.5-1.6,0.6-2.4
						C992.3,363.2,988.6,358.6,983.4,358.1z"/>
					<path style="fill:#F2F2F2;" d="M968.1,314.1c2.4-2.3,5.1-4.3,8.1-6c3-1.7,6.1-3.1,9.3-4.1c2,11.3,6.8,26.3,13,38.4l-3.4,2
						C987.6,332.9,976.9,321.3,968.1,314.1z"/>
					<path style="fill:#F2F2F2;" d="M1022.3,307.6c2.9,1.6,5.7,3.6,8.3,5.9c2.6,2.3,4.8,4.8,6.8,7.5c-10.1,5.4-23,14.6-32.5,24.3
						l-3-2.7C1010.4,332.1,1018.1,318.3,1022.3,307.6z"/>
					<path style="fill:#F2F2F2;" d="M1045.2,357.3c-0.6,3.3-1.6,6.5-3,9.7c-1.4,3.2-3.1,6.1-5.1,8.8c-8.2-7.9-21-17.3-33.1-23.4
						l1.6-3.6C1018.3,353.5,1033.8,356.6,1045.2,357.3z"/>
					<path style="fill:#F2F2F2;" d="M1005.1,394.4c-3.3,0.4-6.7,0.5-10.1,0.1c-3.4-0.3-6.7-1.1-9.9-2.1c5-10.3,10-25.3,12-38.7
						l4,0.4C1000.3,367.6,1002.2,383.3,1005.1,394.4z"/>
					<path style="fill:#F2F2F2;" d="M957.4,367.7c-1.4-3-2.5-6.2-3.2-9.6c-0.7-3.4-1-6.8-1-10.1c11.3,1.6,27.1,1.7,40.5-0.5l0.8,3.9
						C981.4,354.9,967,361.5,957.4,367.7z"/>
					
						<ellipse transform="matrix(0.8638 -0.5038 0.5038 0.8638 -39.3049 550.989)" style="fill:#636363;" cx="999.6" cy="348.2" rx="9.3" ry="9.3"/>
					<path style="fill:#F2F2F2;" d="M999.6,340.7c3.3,0,6.1,2.2,7.1,5.2c-1.4,1.9-3.6,3.1-6,3.1c-3.3,0-6.1-2.2-7.1-5.2
						C994.9,341.9,997.1,340.7,999.6,340.7z"/>
					<g>
						
							<ellipse transform="matrix(0.4028 -0.9153 0.9153 0.4028 276.0373 1109.194)" style="fill:#636363;" cx="988" cy="343.1" rx="2.3" ry="2.3"/>
						<path style="fill:#F2F2F2;" d="M989,342c0.1,0.1,0.1,0.2,0.2,0.3c-0.1,0.1-0.1,0.2-0.2,0.3c-0.6,0.6-1.6,0.6-2.1,0
							c-0.1-0.1-0.1-0.2-0.2-0.3c0.1-0.1,0.1-0.2,0.2-0.3C987.5,341.4,988.4,341.4,989,342z"/>
					</g>
					<g>
						
							<ellipse transform="matrix(0.1002 -0.995 0.995 0.1002 566.7598 1297.7743)" style="fill:#636363;" cx="1000.9" cy="335.5" rx="2.3" ry="2.3"/>
						<path style="fill:#F2F2F2;" d="M1002.3,334.9c0,0.1,0.1,0.2,0.1,0.3c-0.1,0.1-0.2,0.1-0.3,0.2c-0.8,0.3-1.7,0-2-0.8
							c0-0.1-0.1-0.2-0.1-0.3c0.1-0.1,0.2-0.1,0.3-0.2C1001.1,333.8,1002,334.2,1002.3,334.9z"/>
					</g>
					<g>
						
							<ellipse transform="matrix(0.9772 -0.2122 0.2122 0.9772 -50.2659 222.6142)" style="fill:#636363;" cx="1012.1" cy="345.5" rx="2.3" ry="2.3"/>
						<path style="fill:#F2F2F2;" d="M1013.4,345c0,0.1,0.1,0.2,0.1,0.3c-0.1,0.1-0.2,0.1-0.3,0.2c-0.8,0.3-1.7,0-2-0.8
							c0-0.1-0.1-0.2-0.1-0.3c0.1-0.1,0.2-0.1,0.3-0.2C1012.2,343.9,1013.1,344.2,1013.4,345z"/>
					</g>
					<g>
						
							<ellipse transform="matrix(0.8638 -0.5038 0.5038 0.8638 -43.963 555.7634)" style="fill:#636363;" cx="1006" cy="359.2" rx="2.3" ry="2.3"/>
						<path style="fill:#F2F2F2;" d="M1007.3,358.4c0.1,0.1,0.1,0.2,0.1,0.3c-0.1,0.1-0.2,0.2-0.3,0.2c-0.7,0.4-1.7,0.2-2.1-0.6
							c-0.1-0.1-0.1-0.2-0.1-0.3c0.1-0.1,0.2-0.2,0.3-0.2C1006,357.5,1006.9,357.7,1007.3,358.4z"/>
					</g>
					<g>
						
							<ellipse transform="matrix(0.6659 -0.7461 0.7461 0.6659 64.2919 858.9622)" style="fill:#636363;" cx="991.1" cy="357.7" rx="2.3" ry="2.3"/>
						<path style="fill:#F2F2F2;" d="M992.5,357.1c0,0.1,0.1,0.2,0.1,0.3c-0.1,0.1-0.2,0.1-0.3,0.2c-0.8,0.3-1.7,0-2-0.8
							c0-0.1-0.1-0.2-0.1-0.3c0.1-0.1,0.2-0.1,0.3-0.2C991.3,356,992.2,356.3,992.5,357.1z"/>
					</g>
				</g>
				<path style="fill:#404040;" d="M938.6,383.9c19.7,33.8,63.2,45.3,97,25.5c33.8-19.7,45.3-63.2,25.5-97
					c-19.7-33.8-63.2-45.3-97-25.5C930.3,306.6,918.8,350,938.6,383.9z M959.8,371.5c-12.9-22.1-5.4-50.5,16.7-63.3
					c22.1-12.9,50.5-5.4,63.3,16.7c12.9,22.1,5.4,50.5-16.7,63.3C1001.1,401,972.7,393.6,959.8,371.5z"/>
				<g>
					<path style="fill:#1A1A1A;" d="M955.9,280.5l4.9,8.4c1.1-0.7,2.2-1.4,3.3-2c1.1-0.6,2.2-1.3,3.4-1.8l-4.9-8.4
						c-1.1,0.6-2.3,1.2-3.4,1.8C958.1,279.1,957,279.8,955.9,280.5z"/>
					<path style="fill:#1A1A1A;" d="M971,272.8l3,9.2c1.2-0.5,2.4-0.9,3.6-1.3c1.2-0.4,2.4-0.8,3.7-1.1l-3-9.2
						c-1.2,0.3-2.5,0.7-3.7,1.1C973.4,271.9,972.1,272.4,971,272.8z"/>
					<path style="fill:#1A1A1A;" d="M987.2,268.5l1.1,9.7c1.3-0.2,2.5-0.4,3.8-0.5c1.3-0.1,2.5-0.3,3.8-0.3l-1.1-9.7
						c-1.3,0.1-2.5,0.2-3.8,0.3C989.8,268.1,988.5,268.3,987.2,268.5z"/>
					<path style="fill:#1A1A1A;" d="M1004.1,267.6l-1,9.7c1.3,0,2.6,0.1,3.8,0.3c1.3,0.1,2.5,0.3,3.8,0.5l1-9.7
						c-1.3-0.2-2.5-0.4-3.8-0.5C1006.6,267.8,1005.4,267.7,1004.1,267.6z"/>
					<path style="fill:#1A1A1A;" d="M1020.7,270.2l-3,9.3c1.2,0.3,2.5,0.7,3.7,1.1c1.2,0.4,2.4,0.8,3.6,1.3l3-9.3
						c-1.2-0.5-2.4-0.9-3.6-1.3C1023.2,270.9,1022,270.6,1020.7,270.2z"/>
					<path style="fill:#1A1A1A;" d="M1036.5,276.3l-4.8,8.5c1.1,0.6,2.3,1.2,3.4,1.8c1.1,0.6,2.2,1.3,3.3,2l4.8-8.5
						c-1.1-0.7-2.2-1.4-3.3-2C1038.7,277.5,1037.6,276.9,1036.5,276.3z"/>
					<path style="fill:#1A1A1A;" d="M1050.6,285.5l-6.5,7.3c1,0.8,2,1.6,2.9,2.5c1,0.9,1.9,1.7,2.8,2.6l6.5-7.3
						c-0.9-0.9-1.8-1.8-2.8-2.6C1052.6,287.1,1051.6,286.3,1050.6,285.5z"/>
					<path style="fill:#1A1A1A;" d="M1062.5,297.4l-7.8,5.8c0.8,1,1.6,2,2.4,3c0.8,1,1.5,2.1,2.2,3.2l7.8-5.8
						c-0.7-1.1-1.4-2.1-2.2-3.2C1064.1,299.4,1063.3,298.4,1062.5,297.4z"/>
					<path style="fill:#1A1A1A;" d="M1071.7,311.6l-8.9,4c0.6,1.1,1.1,2.3,1.7,3.4c0.5,1.2,1,2.3,1.5,3.5l8.9-4
						c-0.5-1.2-1-2.4-1.5-3.5C1072.8,313.8,1072.3,312.7,1071.7,311.6z"/>
					<path style="fill:#1A1A1A;" d="M1077.7,327.3l-9.5,2.1c0.3,1.2,0.6,2.5,0.9,3.7c0.3,1.2,0.5,2.5,0.7,3.8l9.5-2.1
						c-0.2-1.3-0.4-2.5-0.7-3.8C1078.4,329.8,1078.1,328.5,1077.7,327.3z"/>
					<path style="fill:#1A1A1A;" d="M1080.4,344l-9.7,0c0.1,1.3,0.1,2.6,0.1,3.8c0,1.3,0,2.6-0.1,3.8l9.7,0c0.1-1.3,0.1-2.6,0.1-3.8
						C1080.5,346.5,1080.4,345.2,1080.4,344z"/>
					<path style="fill:#1A1A1A;" d="M1079.5,360.8l-9.5-2c-0.2,1.3-0.4,2.5-0.7,3.8c-0.3,1.2-0.5,2.5-0.9,3.7l9.5,2
						c0.3-1.2,0.6-2.5,0.9-3.7C1079.1,363.3,1079.3,362.1,1079.5,360.8z"/>
					<path style="fill:#1A1A1A;" d="M1075.1,377.1l-8.9-3.9c-0.4,1.2-0.9,2.4-1.4,3.5c-0.5,1.2-1.1,2.3-1.6,3.5l8.9,3.9
						c0.6-1.1,1.1-2.3,1.6-3.5C1074.2,379.5,1074.7,378.3,1075.1,377.1z"/>
					<path style="fill:#1A1A1A;" d="M1067.4,392.1l-7.9-5.7c-0.7,1.1-1.4,2.1-2.2,3.2c-0.7,1-1.5,2.1-2.3,3l7.9,5.7
						c0.8-1,1.6-2,2.3-3C1066,394.2,1066.8,393.2,1067.4,392.1z"/>
					<path style="fill:#1A1A1A;" d="M1056.8,405.2l-6.5-7.2c-0.9,0.9-1.8,1.8-2.8,2.7c-0.9,0.9-1.9,1.7-2.9,2.5l6.5,7.2
						c1-0.8,2-1.6,2.9-2.5C1055,407,1055.9,406.1,1056.8,405.2z"/>
					<path style="fill:#1A1A1A;" d="M1043.7,415.8l-4.9-8.4c-1.1,0.7-2.2,1.4-3.3,2c-1.1,0.6-2.2,1.3-3.4,1.8l4.9,8.4
						c1.1-0.6,2.3-1.2,3.4-1.8C1041.6,417.2,1042.6,416.5,1043.7,415.8z"/>
					<path style="fill:#1A1A1A;" d="M1028.7,423.4l-3-9.2c-1.2,0.5-2.4,0.9-3.6,1.3c-1.2,0.4-2.4,0.8-3.7,1.1l3,9.2
						c1.2-0.3,2.5-0.7,3.7-1.1C1026.3,424.3,1027.5,423.9,1028.7,423.4z"/>
					<path style="fill:#1A1A1A;" d="M1012.4,427.8l-1.1-9.7c-1.3,0.2-2.5,0.4-3.8,0.5c-1.3,0.1-2.5,0.3-3.8,0.3l1.1,9.7
						c1.3-0.1,2.5-0.2,3.8-0.3C1009.9,428.2,1011.1,428,1012.4,427.8z"/>
					<path style="fill:#1A1A1A;" d="M995.6,428.7l1-9.7c-1.3,0-2.6-0.1-3.8-0.3c-1.3-0.1-2.5-0.3-3.8-0.5l-1,9.7
						c1.3,0.2,2.5,0.4,3.8,0.5C993,428.5,994.3,428.6,995.6,428.7z"/>
					<path style="fill:#1A1A1A;" d="M978.9,426l3-9.3c-1.2-0.3-2.5-0.7-3.7-1.1c-1.2-0.4-2.4-0.8-3.6-1.3l-3,9.3
						c1.2,0.5,2.4,0.9,3.6,1.3C976.4,425.3,977.7,425.7,978.9,426z"/>
					<path style="fill:#1A1A1A;" d="M963.2,420l4.8-8.5c-1.1-0.6-2.3-1.2-3.4-1.8c-1.1-0.6-2.2-1.3-3.3-2l-4.8,8.5
						c1.1,0.7,2.2,1.4,3.3,2C960.9,418.8,962,419.4,963.2,420z"/>
					<path style="fill:#1A1A1A;" d="M949,410.8l6.5-7.3c-1-0.8-2-1.6-2.9-2.5c-1-0.9-1.9-1.7-2.8-2.6l-6.5,7.3
						c0.9,0.9,1.8,1.8,2.8,2.6C947.1,409.2,948,410,949,410.8z"/>
					<path style="fill:#1A1A1A;" d="M937.1,398.9l7.8-5.8c-0.8-1-1.6-2-2.4-3c-0.8-1-1.5-2.1-2.2-3.2l-7.8,5.8
						c0.7,1.1,1.4,2.1,2.2,3.2C935.5,396.9,936.3,397.9,937.1,398.9z"/>
					<path style="fill:#1A1A1A;" d="M927.9,384.7l8.9-4c-0.6-1.1-1.1-2.3-1.7-3.4c-0.5-1.2-1-2.3-1.5-3.5l-8.9,4
						c0.5,1.2,1,2.4,1.5,3.5C926.8,382.4,927.4,383.6,927.9,384.7z"/>
					<path style="fill:#1A1A1A;" d="M921.9,369l9.5-2.1c-0.3-1.2-0.6-2.5-0.9-3.7c-0.3-1.2-0.5-2.5-0.7-3.8l-9.5,2.1
						c0.2,1.3,0.4,2.5,0.7,3.8C921.3,366.5,921.6,367.7,921.9,369z"/>
					<path style="fill:#1A1A1A;" d="M919.3,352.3l9.7,0c-0.1-1.3-0.1-2.6-0.1-3.8c0-1.3,0-2.6,0.1-3.8l-9.7,0
						c-0.1,1.3-0.1,2.6-0.1,3.8C919.2,349.8,919.2,351,919.3,352.3z"/>
					<path style="fill:#1A1A1A;" d="M920.2,335.5l9.5,2c0.2-1.3,0.4-2.5,0.7-3.8c0.3-1.2,0.5-2.5,0.9-3.7l-9.5-2
						c-0.3,1.2-0.6,2.5-0.9,3.7C920.6,333,920.4,334.2,920.2,335.5z"/>
					<path style="fill:#1A1A1A;" d="M924.5,319.2l8.9,3.9c0.4-1.2,0.9-2.4,1.4-3.5c0.5-1.2,1.1-2.3,1.6-3.5l-8.9-3.9
						c-0.6,1.1-1.1,2.3-1.6,3.5C925.5,316.8,925,318,924.5,319.2z"/>
					<path style="fill:#1A1A1A;" d="M932.2,304.2l7.9,5.7c0.7-1.1,1.4-2.1,2.2-3.2c0.7-1,1.5-2.1,2.3-3l-7.9-5.7c-0.8,1-1.6,2-2.3,3
						C933.6,302,932.9,303.1,932.2,304.2z"/>
					<path style="fill:#1A1A1A;" d="M942.8,291.1l6.5,7.2c0.9-0.9,1.8-1.8,2.8-2.7c0.9-0.9,1.9-1.7,2.9-2.5l-6.5-7.2
						c-1,0.8-2,1.6-2.9,2.5C944.6,289.3,943.7,290.2,942.8,291.1z"/>
				</g>
				<path style="fill:#1A1A1A;" d="M975,297.7c-1.2,0.6-2.4,1.2-3.6,1.8c-19.7,11.5-29.8,33.2-27.6,54.5l-6.9,1.2
					c-2.7-24.1,8.6-48.7,31-61.8c3.2-1.9,6.4-3.4,9.8-4.6L975,297.7z"/>
				<path style="fill:#1A1A1A;" d="M1045.8,380.5c10.6-15.1,13.3-34.9,6.4-52.7l9.1,5.5c4.1,16.8,1,34.5-8.1,48.9L1045.8,380.5z"/>
				
					<ellipse transform="matrix(0.7405 -0.6721 0.6721 0.7405 -11.5827 740.8232)" style="fill:#1A1A1A;" cx="953.4" cy="385.4" rx="3.8" ry="3.8"/>
				<path style="fill:#1A1A1A;" d="M985.8,409.8c-5.7-1.3-11.2-3.3-16.3-6.2l3.7-6c4.4,2.4,9.1,4.1,13.9,5.2L985.8,409.8z"/>
				<path style="fill:#1A1A1A;" d="M993.2,403.9c4.7,0.6,9.5,0.5,14.2-0.1l1.4,7c-5.6,0.8-11.2,0.8-16.8,0.1L993.2,403.9z"/>
				<g>
					
						<ellipse transform="matrix(0.9482 -0.3177 0.3177 0.9482 -39.4753 335.8142)" style="fill:#1A1A1A;" cx="1009.9" cy="288.9" rx="3.8" ry="3.8"/>
					<g>
						<path style="fill:#1A1A1A;" d="M1038.8,307.7l4.6-5.3c2,1.9,3.9,3.9,5.6,6l-5.7,4.2C1041.9,310.9,1040.4,309.2,1038.8,307.7z"
							/>
						<path style="fill:#1A1A1A;" d="M1025,290.1c4.9,2.1,9.5,4.9,13.7,8.1l-4.6,5.3c-3.6-2.7-7.4-5.1-11.6-6.9L1025,290.1z"/>
					</g>
				</g>
				<path style="fill:#333333;" d="M957.4,372.9c13.7,23.4,43.8,31.4,67.2,17.7c23.4-13.7,31.4-43.8,17.7-67.2
					c-13.7-23.4-43.8-31.4-67.2-17.7C951.6,319.4,943.7,349.4,957.4,372.9z M959.8,371.5c-12.9-22.1-5.4-50.5,16.7-63.3
					c22.1-12.9,50.5-5.4,63.3,16.7c12.9,22.1,5.4,50.5-16.7,63.3C1001.1,401,972.7,393.6,959.8,371.5z"/>
			</g>
			<g>
				<path style="fill:#333333;" d="M306.8,318.9c-16.2,41.5,4.4,88.3,45.9,104.4c41.5,16.2,88.3-4.4,104.4-45.9
					c16.2-41.5-4.4-88.3-45.9-104.4C369.7,256.8,322.9,277.3,306.8,318.9z M315.8,322.4c14.2-36.5,55.3-54.6,91.8-40.3
					c36.5,14.2,54.6,55.3,40.3,91.8c-14.2,36.5-55.3,54.6-91.8,40.3C319.7,400,301.6,358.9,315.8,322.4z"/>
				<g>
					<path style="fill:#6B6B6B;" d="M393.9,394.5c4.9-1.3,9.5-3.3,13.7-6l1.5-1l-1.2-1.3c-4.5-5-8.8-10.8-12.4-16.9l-0.5-1
						c-0.8-1.3-1.2-2.9-1.1-4.4c0.2-3.4,2.5-6.3,5.8-7.1c0.8-0.2,1.6-0.3,2.4-0.2c0.6,0,1.2,0.1,1.8,0.3c7.3,2.5,14.5,5.7,20.4,9.3
						l1.5,0.9l0.6-1.7c3.6-9.4,4.2-19.5,1.6-29.3l-0.5-1.7l-1.6,0.7c-4.8,2.2-10.4,4.1-16.1,5.6c-1.3,0.3-2.6,0.7-3.9,0.9l-1.1,0.2
						c-1.5,0.3-3.1,0.2-4.5-0.3c-1.9-0.8-3.5-2.2-4.3-4.1c-0.8-1.9-0.9-4-0.1-6c0.2-0.6,0.5-1.1,0.9-1.7c4.6-6.2,10-12,15.1-16.6
						l1.4-1.2l-1.4-1.1c-3.9-3.2-8.2-5.7-12.9-7.5c-4.6-1.8-9.5-2.9-14.5-3.2l-1.8-0.1l0.2,1.8c0.7,6.5,0.7,13.9,0.1,21.1l-0.1,1.1
						c-0.1,1.5-0.7,3-1.7,4.2c-1.1,1.3-2.5,2.2-4.1,2.6c-2.4,0.6-5,0.1-7-1.5c-0.5-0.4-0.9-0.8-1.3-1.3c-4.5-6.3-8.4-13.2-11.1-19.5
						l-0.7-1.6l-1.5,1c-8.5,5.5-14.9,13.3-18.6,22.7l-0.7,1.7l1.8,0.4c6.4,1.3,13.5,3.6,20.1,6.5l0.9,0.4c1.4,0.6,2.6,1.6,3.5,2.9
						c1.1,1.8,1.5,3.9,1.1,5.9c-0.4,2-1.7,3.8-3.4,4.9c-0.5,0.3-1.1,0.6-1.7,0.8l-0.3,0.1c-1.6,0.5-3.2,1-4.8,1.4
						c-5.7,1.5-11.5,2.5-16.9,3l-1.8,0.2l0.5,1.7c2.6,9.8,8.1,18.4,15.9,24.8l1.4,1.1l0.9-1.6c3.3-5.8,7.6-11.7,12.3-17.1l0.7-0.8
						c1-1.2,2.4-2,3.9-2.4c4.2-1.1,8.5,1.4,9.6,5.6c0.2,0.6,0.2,1.2,0.3,1.8c-0.1,7.8-1,15.4-2.5,22.3l-0.4,1.8l1.8,0.1
						C384.1,396.2,389,395.7,393.9,394.5z"/>
					<path style="fill:#6B6B6B;" d="M340.5,332c-8.9,22.9,2.4,48.6,25.3,57.5c22.9,8.9,48.6-2.4,57.5-25.3s-2.4-48.6-25.3-57.5
						C375.2,297.8,349.4,309.1,340.5,332z M343.5,333.2c8.3-21.2,32.2-31.7,53.4-23.5c21.2,8.3,31.7,32.2,23.5,53.4
						c-8.3,21.2-32.2,31.7-53.4,23.5C345.7,378.3,335.2,354.4,343.5,333.2z"/>
					<path style="fill:#C2C2C2;" d="M338.8,331.3c-9.3,23.8,2.5,50.7,26.4,60c23.8,9.3,50.7-2.5,60-26.4c9.3-23.8-2.5-50.7-26.4-60
						C374.9,295.7,348.1,307.5,338.8,331.3z M341.9,332.5c8.6-22.1,33.5-33.1,55.7-24.5c22.1,8.6,33.1,33.5,24.5,55.7
						c-8.6,22.1-33.5,33.1-55.7,24.5C344.2,379.6,333.3,354.7,341.9,332.5z"/>
					<path style="fill:#C2C2C2;" d="M363.9,341.5c-1-1.6-2.5-2.8-4.1-3.5c-7.2-3.2-14.7-5.6-21.3-7c3.7-9.4,10.1-16.9,18-22
						c2.7,6.2,6.5,13.1,11.1,19.6c0.5,0.7,1,1.3,1.7,1.8c4,3.3,9.9,2.7,13.1-1.3c1.2-1.5,1.9-3.2,2.1-5c0.8-7.8,0.8-15.7,0-22.5
						c4.7,0.3,9.4,1.3,14.1,3.1c4.6,1.8,8.8,4.3,12.5,7.3c-5.1,4.5-10.5,10.3-15.2,16.6c-0.5,0.7-0.9,1.4-1.2,2.2
						c-1.9,4.8,0.5,10.2,5.3,12.1c1.8,0.7,3.7,0.8,5.4,0.4c7.7-1.7,15.2-4.1,21.3-6.9c2.4,9.1,2,19-1.6,28.4
						c-5.8-3.5-13-6.8-20.5-9.3c-0.8-0.3-1.6-0.4-2.5-0.5c-5.2-0.3-9.6,3.6-9.9,8.8c-0.1,1.9,0.4,3.7,1.3,5.3
						c4,6.8,8.6,13.1,13.2,18.1c-8.1,5.2-17.8,7.8-27.6,7.3c1.5-6.6,2.5-14.4,2.6-22.4c0-0.8-0.1-1.7-0.3-2.5c-1.3-5-6.4-8-11.4-6.7
						c-1.9,0.5-3.4,1.5-4.6,2.8c-5.3,5.9-9.8,12.3-13.2,18.2c-7.6-6.2-12.9-14.7-15.4-24c6.8-0.6,14.5-2.1,22-4.5
						c0.8-0.2,1.5-0.6,2.3-1.1C365.5,351.6,366.7,345.8,363.9,341.5z"/>
					<path style="fill:#F2F2F2;" d="M388.8,302.1c3.3,0.5,6.6,1.3,9.8,2.6c3.2,1.3,6.2,2.9,9,4.7c-7.6,8.6-16.4,21.7-21.9,34.1
						L382,342C386.3,329.1,388.6,313.5,388.8,302.1z"/>
					<path style="fill:#F2F2F2;" d="M427.7,340.6c0.5,3.3,0.8,6.7,0.6,10.1c-0.2,3.5-0.8,6.8-1.7,10c-10.5-4.6-25.7-8.9-39.2-10.3
						l0.2-4C401.1,346.5,416.7,343.9,427.7,340.6z"/>
					<path style="fill:#F2F2F2;" d="M403,389.4c-3,1.5-6.1,2.8-9.4,3.7c-3.3,0.9-6.7,1.3-10,1.5c1.1-11.4,0.5-27.2-2.3-40.5l3.9-1
						C389.2,365.9,396.5,380,403,389.4z"/>
					<path style="fill:#F2F2F2;" d="M349,381c-2.4-2.3-4.5-4.9-6.4-7.9c-1.9-2.9-3.3-6-4.5-9.1c11.2-2.5,26-7.9,37.8-14.7l2.2,3.4
						C367,360.6,355.9,371.9,349,381z"/>
					<path style="fill:#F2F2F2;" d="M340.2,327.1c1.5-3,3.3-5.8,5.5-8.5c2.2-2.7,4.6-5,7.2-7.1c5.8,9.9,15.6,22.3,25.6,31.4
						l-2.5,3.1C365.2,337.9,351,330.8,340.2,327.1z"/>
					
						<ellipse transform="matrix(0.3629 -0.9318 0.9318 0.3629 -81.0813 577.4429)" style="fill:#636363;" cx="381.8" cy="348" rx="9.3" ry="9.3"/>
					<path style="fill:#F2F2F2;" d="M387.6,343.4c2.1,2.6,2.1,6.2,0.3,8.8c-2.3,0.1-4.6-0.9-6.2-2.8c-2.1-2.6-2.1-6.2-0.3-8.8
						C383.7,340.5,386.1,341.4,387.6,343.4z"/>
					<g>
						
							<ellipse transform="matrix(0.9672 -0.2541 0.2541 0.9672 -72.8846 107.2108)" style="fill:#636363;" cx="378.5" cy="335.7" rx="2.3" ry="2.3"/>
						<path style="fill:#F2F2F2;" d="M380,335.9c0,0.1-0.1,0.2-0.1,0.3c-0.1,0-0.2,0-0.3,0c-0.8-0.1-1.4-0.9-1.3-1.7
							c0-0.1,0.1-0.2,0.1-0.3c0.1,0,0.2,0,0.3,0C379.5,334.3,380.1,335.1,380,335.9z"/>
					</g>
					<g>
						
							<ellipse transform="matrix(0.8413 -0.5405 0.5405 0.8413 -122.118 266.2522)" style="fill:#636363;" cx="392.5" cy="341.1" rx="2.3" ry="2.3"/>
						<path style="fill:#F2F2F2;" d="M393.8,341.8c-0.1,0.1-0.1,0.2-0.2,0.3c-0.1,0-0.2,0-0.3-0.1c-0.7-0.4-1-1.3-0.6-2.1
							c0.1-0.1,0.1-0.2,0.2-0.3c0.1,0,0.2,0,0.3,0.1C393.9,340.2,394.2,341.1,393.8,341.8z"/>
					</g>
					<g>
						
							<ellipse transform="matrix(0.6331 -0.7741 0.7741 0.6331 -131.9464 433.7891)" style="fill:#636363;" cx="391.6" cy="356.1" rx="2.3" ry="2.3"/>
						<path style="fill:#F2F2F2;" d="M392.9,356.8c-0.1,0.1-0.1,0.2-0.2,0.3c-0.1,0-0.2,0-0.3-0.1c-0.7-0.4-1-1.3-0.6-2.1
							c0.1-0.1,0.1-0.2,0.2-0.3c0.1,0,0.2,0,0.3,0.1C393,355.2,393.3,356.1,392.9,356.8z"/>
					</g>
					<g>
						
							<ellipse transform="matrix(0.3629 -0.9318 0.9318 0.3629 -95.0693 580.7155)" style="fill:#636363;" cx="377.1" cy="359.9" rx="2.3" ry="2.3"/>
						<path style="fill:#F2F2F2;" d="M378.5,360.4c0,0.1-0.1,0.2-0.2,0.3c-0.1,0-0.2,0-0.3-0.1c-0.8-0.3-1.2-1.2-0.9-2
							c0-0.1,0.1-0.2,0.2-0.3c0.1,0,0.2,0,0.3,0.1C378.5,358.8,378.9,359.7,378.5,360.4z"/>
					</g>
					<g>
						
							<ellipse transform="matrix(5.719231e-02 -0.9984 0.9984 5.719231e-02 1.214 695.8635)" style="fill:#636363;" cx="369" cy="347.3" rx="2.3" ry="2.3"/>
						<path style="fill:#F2F2F2;" d="M370.4,348c-0.1,0.1-0.1,0.2-0.2,0.3c-0.1,0-0.2,0-0.3-0.1c-0.7-0.4-1-1.3-0.6-2.1
							c0.1-0.1,0.1-0.2,0.2-0.3c0.1,0,0.2,0,0.3,0.1C370.5,346.3,370.8,347.3,370.4,348z"/>
					</g>
				</g>
				<path style="fill:#404040;" d="M315.8,322.4c-14.2,36.5,3.8,77.6,40.3,91.8c36.5,14.2,77.6-3.8,91.8-40.3
					c14.2-36.5-3.8-77.6-40.3-91.8C371.2,267.8,330.1,285.9,315.8,322.4z M338.8,331.3c9.3-23.8,36.1-35.6,60-26.4
					c23.8,9.3,35.6,36.1,26.4,60c-9.3,23.8-36.1,35.6-60,26.4C341.3,382,329.5,355.2,338.8,331.3z"/>
				<g>
					<path style="fill:#1A1A1A;" d="M407.6,271.7l-3.5,9.1c1.2,0.4,2.4,0.8,3.6,1.3c1.2,0.5,2.4,1,3.5,1.5l3.5-9.1
						c-1.2-0.5-2.3-1-3.5-1.5C410,272.5,408.8,272.1,407.6,271.7z"/>
					<path style="fill:#1A1A1A;" d="M422.9,278.7l-5.3,8.1c1.1,0.6,2.2,1.3,3.3,2c1.1,0.7,2.1,1.4,3.1,2.2l5.3-8.1
						c-1-0.8-2.1-1.5-3.1-2.2C425.1,280,424,279.3,422.9,278.7z"/>
					<path style="fill:#1A1A1A;" d="M436.5,288.7l-6.9,6.8c1,0.9,1.9,1.7,2.8,2.6c0.9,0.9,1.8,1.8,2.6,2.8l6.9-6.8
						c-0.8-1-1.7-1.9-2.6-2.8C438.3,290.5,437.4,289.6,436.5,288.7z"/>
					<path style="fill:#1A1A1A;" d="M447.6,301.4l-8.2,5.3c0.8,1,1.5,2.1,2.2,3.2c0.7,1.1,1.4,2.2,2,3.3l8.2-5.3
						c-0.6-1.1-1.3-2.2-2-3.3C449.1,303.5,448.4,302.4,447.6,301.4z"/>
					<path style="fill:#1A1A1A;" d="M455.9,316.1l-9.1,3.4c0.5,1.2,1,2.4,1.5,3.5c0.5,1.2,0.9,2.4,1.3,3.6l9.1-3.4
						c-0.4-1.2-0.8-2.4-1.3-3.6C456.9,318.4,456.4,317.2,455.9,316.1z"/>
					<path style="fill:#1A1A1A;" d="M461,332.1l-9.6,1.5c0.3,1.2,0.5,2.5,0.7,3.8c0.2,1.3,0.4,2.5,0.5,3.8l9.6-1.5
						c-0.1-1.3-0.3-2.5-0.5-3.8C461.5,334.6,461.2,333.4,461,332.1z"/>
					<path style="fill:#1A1A1A;" d="M462.6,348.9l-9.7-0.6c0,1.3,0,2.6-0.1,3.8c-0.1,1.3-0.2,2.5-0.3,3.8l9.7,0.6
						c0.2-1.3,0.3-2.5,0.3-3.8C462.5,351.5,462.6,350.2,462.6,348.9z"/>
					<path style="fill:#1A1A1A;" d="M460.6,365.7l-9.4-2.6c-0.3,1.3-0.6,2.5-0.9,3.7c-0.3,1.2-0.7,2.5-1.1,3.7l9.4,2.6
						c0.4-1.2,0.8-2.4,1.1-3.7C460.1,368.2,460.4,366.9,460.6,365.7z"/>
					<path style="fill:#1A1A1A;" d="M455.3,381.7l-8.7-4.5c-0.5,1.2-1.1,2.3-1.7,3.5c-0.6,1.1-1.2,2.3-1.8,3.4l8.7,4.5
						c0.7-1.1,1.3-2.2,1.8-3.4C454.2,384,454.8,382.8,455.3,381.7z"/>
					<path style="fill:#1A1A1A;" d="M446.7,396.2l-7.5-6.2c-0.7,1-1.5,2-2.3,3c-0.8,1-1.6,2-2.5,2.9l7.5,6.2
						c0.9-0.9,1.7-1.9,2.5-2.9C445.2,398.2,446,397.2,446.7,396.2z"/>
					<path style="fill:#1A1A1A;" d="M435.3,408.6l-6.1-7.6c-0.9,0.9-1.9,1.7-2.9,2.5c-1,0.8-2,1.6-3.1,2.3l6.1,7.6
						c1-0.7,2.1-1.5,3.1-2.3C433.4,410.3,434.4,409.4,435.3,408.6z"/>
					<path style="fill:#1A1A1A;" d="M421.6,418.4l-4.4-8.7c-1.1,0.6-2.2,1.2-3.4,1.8c-1.1,0.6-2.3,1.1-3.5,1.6l4.4,8.7
						c1.2-0.5,2.3-1.1,3.5-1.6C419.3,419.6,420.5,419,421.6,418.4z"/>
					<path style="fill:#1A1A1A;" d="M406.1,425.1l-2.5-9.4c-1.2,0.4-2.4,0.8-3.7,1.1c-1.2,0.3-2.5,0.6-3.7,0.9l2.5,9.4
						c1.3-0.2,2.5-0.5,3.7-0.9C403.7,425.8,404.9,425.5,406.1,425.1z"/>
					<path style="fill:#1A1A1A;" d="M389.6,428.4l-0.5-9.7c-1.3,0.1-2.5,0.2-3.8,0.3c-1.3,0.1-2.6,0.1-3.8,0.1l0.5,9.7
						c1.3,0,2.6,0,3.8-0.1C387,428.6,388.3,428.6,389.6,428.4z"/>
					<path style="fill:#1A1A1A;" d="M372.7,428.3l1.6-9.6c-1.3-0.1-2.5-0.3-3.8-0.5c-1.3-0.2-2.5-0.4-3.8-0.7l-1.6,9.6
						c1.2,0.3,2.5,0.5,3.8,0.7C370.2,427.9,371.4,428.1,372.7,428.3z"/>
					<path style="fill:#1A1A1A;" d="M356.3,424.6l3.5-9.1c-1.2-0.4-2.4-0.8-3.6-1.3c-1.2-0.5-2.4-1-3.5-1.5l-3.5,9.1
						c1.2,0.5,2.3,1,3.5,1.5C353.8,423.8,355,424.2,356.3,424.6z"/>
					<path style="fill:#1A1A1A;" d="M340.9,417.6l5.3-8.1c-1.1-0.6-2.2-1.3-3.3-2c-1.1-0.7-2.1-1.4-3.1-2.2l-5.3,8.1
						c1,0.8,2.1,1.5,3.1,2.2C338.7,416.3,339.8,416.9,340.9,417.6z"/>
					<path style="fill:#1A1A1A;" d="M327.4,407.5l6.9-6.8c-1-0.9-1.9-1.7-2.8-2.6c-0.9-0.9-1.8-1.8-2.6-2.8l-6.9,6.8
						c0.8,1,1.7,1.9,2.6,2.8C325.5,405.8,326.4,406.7,327.4,407.5z"/>
					<path style="fill:#1A1A1A;" d="M316.2,394.9l8.2-5.3c-0.8-1-1.5-2.1-2.2-3.2c-0.7-1.1-1.4-2.2-2-3.3l-8.2,5.3
						c0.6,1.1,1.3,2.2,2,3.3C314.8,392.8,315.5,393.9,316.2,394.9z"/>
					<path style="fill:#1A1A1A;" d="M307.9,380.2l9.1-3.4c-0.5-1.2-1-2.4-1.5-3.5c-0.5-1.2-0.9-2.4-1.3-3.6l-9.1,3.4
						c0.4,1.2,0.8,2.4,1.3,3.6C306.9,377.9,307.4,379.1,307.9,380.2z"/>
					<path style="fill:#1A1A1A;" d="M302.9,364.1l9.6-1.5c-0.3-1.2-0.5-2.5-0.7-3.8c-0.2-1.3-0.4-2.5-0.5-3.8l-9.6,1.5
						c0.1,1.3,0.3,2.5,0.5,3.8C302.4,361.6,302.6,362.9,302.9,364.1z"/>
					<path style="fill:#1A1A1A;" d="M301.3,347.4l9.7,0.6c0-1.3,0-2.6,0.1-3.8c0.1-1.3,0.2-2.5,0.3-3.8l-9.7-0.6
						c-0.2,1.3-0.3,2.5-0.3,3.8C301.3,344.8,301.3,346.1,301.3,347.4z"/>
					<path style="fill:#1A1A1A;" d="M303.2,330.6l9.4,2.6c0.3-1.3,0.6-2.5,0.9-3.7c0.3-1.2,0.7-2.5,1.1-3.7l-9.4-2.6
						c-0.4,1.2-0.8,2.4-1.1,3.7C303.8,328.1,303.5,329.3,303.2,330.6z"/>
					<path style="fill:#1A1A1A;" d="M308.6,314.6l8.7,4.5c0.5-1.2,1.1-2.3,1.7-3.5c0.6-1.1,1.2-2.3,1.8-3.4l-8.7-4.5
						c-0.7,1.1-1.3,2.2-1.8,3.4C309.7,312.3,309.1,313.4,308.6,314.6z"/>
					<path style="fill:#1A1A1A;" d="M317.2,300.1l7.5,6.2c0.7-1,1.5-2,2.3-3c0.8-1,1.6-2,2.5-2.9l-7.5-6.2c-0.9,0.9-1.7,1.9-2.5,2.9
						C318.7,298.1,317.9,299.1,317.2,300.1z"/>
					<path style="fill:#1A1A1A;" d="M328.6,287.7l6.1,7.6c0.9-0.9,1.9-1.7,2.9-2.5c1-0.8,2-1.6,3.1-2.3l-6.1-7.6
						c-1,0.7-2.1,1.5-3.1,2.3C330.5,286,329.5,286.8,328.6,287.7z"/>
					<path style="fill:#1A1A1A;" d="M342.3,277.9l4.4,8.7c1.1-0.6,2.2-1.2,3.4-1.8c1.1-0.6,2.3-1.1,3.5-1.6l-4.4-8.7
						c-1.2,0.5-2.3,1.1-3.5,1.6C344.5,276.7,343.4,277.3,342.3,277.9z"/>
					<path style="fill:#1A1A1A;" d="M357.8,271.2l2.5,9.4c1.2-0.4,2.4-0.8,3.7-1.1c1.2-0.3,2.5-0.6,3.7-0.9l-2.5-9.4
						c-1.3,0.2-2.5,0.5-3.7,0.9C360.2,270.4,359,270.8,357.8,271.2z"/>
					<path style="fill:#1A1A1A;" d="M374.3,267.9l0.5,9.7c1.3-0.1,2.5-0.2,3.8-0.3c1.3-0.1,2.6-0.1,3.8-0.1l-0.5-9.7
						c-1.3,0-2.6,0-3.8,0.1C376.8,267.6,375.6,267.7,374.3,267.9z"/>
					<path style="fill:#1A1A1A;" d="M391.1,268l-1.6,9.6c1.3,0.1,2.5,0.3,3.8,0.5c1.3,0.2,2.5,0.4,3.8,0.7l1.6-9.6
						c-1.2-0.3-2.5-0.5-3.8-0.7C393.7,268.3,392.4,268.1,391.1,268z"/>
				</g>
				<path style="fill:#1A1A1A;" d="M406,297.4c-1.2-0.6-2.4-1.1-3.6-1.6c-21.3-8.3-44.5-2.7-59.9,12.4l-5.2-4.7
					c17.2-17.2,43.5-23.6,67.6-14.2c3.4,1.3,6.7,2.9,9.7,4.8L406,297.4z"/>
				<path style="fill:#1A1A1A;" d="M385.2,404.2c18.5-1.1,35.6-11.3,45.2-27.8l1.4,10.5c-10.6,13.7-26.4,22.3-43.4,24.1L385.2,404.2
					z"/>
				
					<ellipse transform="matrix(0.1616 -0.9869 0.9869 0.1616 -59.0512 600.4659)" style="fill:#1A1A1A;" cx="323.9" cy="335" rx="3.8" ry="3.8"/>
				<path style="fill:#1A1A1A;" d="M324.9,375.5c-2.5-5.2-4.3-10.8-5.3-16.6l7-0.9c0.9,4.9,2.4,9.7,4.5,14.1L324.9,375.5z"/>
				<path style="fill:#1A1A1A;" d="M334.2,377.7c2.5,4,5.5,7.8,9,11.1l-4.6,5.4c-4.1-3.9-7.6-8.3-10.6-13.1L334.2,377.7z"/>
				<g>
					
						<ellipse transform="matrix(0.5447 -0.8386 0.8386 0.5447 -69.8447 509.744)" style="fill:#1A1A1A;" cx="434.5" cy="319.2" rx="3.8" ry="3.8"/>
					<g>
						<path style="fill:#1A1A1A;" d="M437.8,353.5l7,0.3c-0.2,2.7-0.6,5.4-1.2,8.1l-6.8-1.9C437.3,357.9,437.6,355.7,437.8,353.5z"
							/>
						<path style="fill:#1A1A1A;" d="M443,331.7c1.4,5.1,2.1,10.4,2.1,15.8l-7.1-0.3c-0.1-4.5-0.7-9-1.8-13.3L443,331.7z"/>
					</g>
				</g>
				<path style="fill:#333333;" d="M336.1,330.3c-9.9,25.3,2.7,53.8,28,63.6c25.3,9.9,53.8-2.7,63.6-28c9.9-25.3-2.7-53.8-28-63.6
					C374.5,292.5,346,305,336.1,330.3z M338.8,331.3c9.3-23.8,36.1-35.6,60-26.4c23.8,9.3,35.6,36.1,26.4,60
					c-9.3,23.8-36.1,35.6-60,26.4C341.3,382,329.5,355.2,338.8,331.3z"/>
			</g>
			<path style="fill:#F16F5C;" d="M892.8,193.7c40.9,0.7,100.7-0.5,155.3,5.7c-31.4-10.1-102.2-16.5-124.8-18.3
				c4.7,3.2,7.5,6.1,9.7,8.8C920.9,190.4,908.1,190.1,892.8,193.7z"/>
			<g>
				<path style="fill:#A6CDE0;" d="M606.4,167.5c-79.4-4.5-158.7-9.1-198-11.1c-7.5-0.4-11.3-9.3-6.3-14.9
					c6.2-7.1,16.9-13,30.7-19.2c14.3-6.4,65.1-27.7,119.5-33.2c14.6-1.5,28.4-2.2,42.4-2.2c2.4,0,4.8,0,7.2,0.1
					c4.6,0.1,8.4,3.6,8.8,8.2l5.3,62.6C616.3,163.2,611.8,167.8,606.4,167.5z"/>
				<path style="fill:#A6CDE0;" d="M645.4,97.6c-1.2-4,2.1-8,6.2-7.6c9.9,1,20.5,2.1,32.2,3.4c46.3,5.3,87.1,18.2,124.9,39.3
					c12.5,7,32.9,19.9,52.5,38.9c3.9,3.8,1,10.5-4.5,10.2c-41.8-2.6-111.8-6.8-185.4-11c-2.5-0.1-4.6-1.8-5.3-4.2L645.4,97.6z"/>
			</g>
			<path style="fill:#89A9BA;" d="M664.9,163l1.1,3.7c0.7,2.4,2.8,4.1,5.3,4.2c4.5,0.3,9.1,0.5,13.6,0.8c1.1-1.5,2-3.3,2.2-5.3
				l3.8-29.6c0.8-6.2-3.6-11.8-9.7-12.6c-6.2-0.8-11.8,3.6-12.6,9.7L664.9,163z M819,156.6l-10.8,22.3c2.4,0.1,4.8,0.3,7.2,0.4
				l9.6-19.8c0.8-1.7,0.1-3.7-1.5-4.5C821.8,154.2,819.8,154.9,819,156.6z"/>
			<path style="opacity:0.4;fill:#D6F1FF;" d="M449.1,115.4l32.9,45c6,0.3,12.3,0.7,18.6,1.1l-37.6-51.3
				C457.9,112,453.3,113.8,449.1,115.4z M476.7,105.6l41.7,56.9c20.8,1.2,42.9,2.4,65.2,3.7l-54.1-73.9
				C510.3,95.7,492.2,100.6,476.7,105.6z M684.2,93.5l59.8,81.6c23.5,1.4,45.7,2.7,65.4,3.9l-50.2-68.4
				C735.7,102.3,710.9,96.6,684.2,93.5z M651.7,90c-1.5-0.1-2.9,0.3-4.1,1.1l59.9,81.8c6.3,0.4,12.5,0.7,18.7,1.1l-60.5-82.6
				C660.9,91,656.2,90.5,651.7,90z"/>
			<polygon style="fill:#F16F5C;" points="1153.8,326.2 1148.6,330.5 1106.9,330.5 1110.1,326.2 			"/>
		</g>
		<g>
			<path style="fill:#CF8B50;" d="M1038.7,405.5c-6.7,1.8-24.9,7.5-43.2,14.3c-20.9,7.7-42.3,16.6-50.6,19.9l-74.4,25.6
				c-2,0.1-45.5,3.3-50.9,3.5c-3.2,1.9-6.2,3.8-8.9,5.5c8.2-0.4,54.7-3.8,57.4-3.8l79.4-27.3c2.8,0.6,70.4-27.4,88.8-32.5
				c6.9-1.9,51.3-10.2,72.2,15c1.1-1.2,2.3-2.5,3.5-3.9C1091.6,394.9,1045.7,403.6,1038.7,405.5z"/>
			<path style="fill:#FABB85;" d="M107,421.2c59.2,1.5,118-11.2,138.9-22.1c40.3-21.1,84.3-32.8,137.1-31.4
				c21.8,0.5,395.6-0.2,439.7,0.9c28.9,0.7,51.7,24.7,51,53.6c-0.7,28.9-24.8,48.5-53.6,51c8.7-0.7,41.6-2.3,48.1-2.5l90.7-31.2
				c19.2-8.7,48.5-20.7,77.5-28.6c7.4-2,58.5-11.6,76.6,21.5c1.8,3.3-0.4,7.1-2.7,9.9c-2.8,3.3-17.5,11.6-26.8,17.3
				c-7.7,4.8-136.6,80.6-154.5,90.8c-21,12-36,18.3-51.3,23.8c0,0-140.7,46.8-160.5,53.1c-20.4,6.6-50.5,12.6-64.4,12.2
				c-9.5-0.2-271.5-7.1-275.9-7.2l-270.5-6.8L107,421.2z"/>
			<path style="fill:#F2B075;" d="M1082,453c-7.7,4.8-140.2,72.8-158.2,83c-21,12-36,18.3-51.3,23.8c0,0-140.7,46.8-160.5,53.1
				c-20.4,6.6-50.5,12.6-64.4,12.2c-9.5-0.2-271.5-7.1-275.9-7.2l-265.5-6.7l-0.1,14l270.5,6.8c4.4,0.1,266.4,6.9,275.9,7.2
				c14,0.4,44-5.7,64.4-12.2c19.8-6.4,160.5-53.1,160.5-53.1c15.3-5.5,30.3-11.8,51.3-23.8c17.9-10.2,146.8-86,154.5-90.8
				c9.3-5.7,24-14,26.8-17.3C1112.5,439.2,1091.3,447.3,1082,453z"/>
			<g>
				<path style="fill:#FACBA3;" d="M822.6,368.4c-44.1-1.1-417.8-0.3-439.7-0.9c-52.7-1.3-96.8,10.4-137.1,31.4
					c-20.9,10.9-79.6,23.6-138.9,22.1l-1,204.1l2.2,0.1l0.9-191.5c59.2,1.5,118-11.2,138.9-22.1c40.3-21.1,84.3-32.8,137.1-31.4
					c21.8,0.5,395.6-0.2,439.7,0.9c23.2,0.6,42.4,16.2,48.7,37.2C872.3,391.2,850.3,369.1,822.6,368.4z"/>
				<path style="fill:#FACBA3;" d="M1112.9,432.2c-18.1-33.1-69.2-23.5-76.6-21.5c-29,7.9-58.3,19.9-77.5,28.6l-89,30.6
					c21.8-3.2,142-38.9,168.6-46.5c7.1-2,51.8-9.7,71.4,19c0.1-0.1,0.2-0.2,0.3-0.3C1112.5,439.2,1114.7,435.5,1112.9,432.2z"/>
			</g>
			<polygon style="fill:#CF8B50;" points="820,473 549.4,487.3 474.1,495.4 549.2,500.3 			"/>
			<path style="fill:#FADABE;" d="M791.3,388l-1.6,63.9c-0.1,5.4,4.2,10,9.6,10.1l19.8,0.5c22.5,0.6,42.3-16.2,43.9-38.7
				c1.7-24-16.9-44.3-40.7-44.9l-21-0.5C795.9,378.2,791.4,382.5,791.3,388z"/>
			<path style="fill:#FADABE;" d="M1048,478.5c6.2-13.4,21.5-29.8,37.6-42.3c2.6-2,5.9-2.6,9.1-1.9c11.1,2.4,17.3-1.6,20.7,2.3
				c3.4,3.9-33,30.4-65.8,43.5C1048.6,480.4,1047.6,479.4,1048,478.5z"/>
		</g>
		<g>
			<path style="fill:#CF8B50;" d="M107,421.2c32.8,0.8,65.4-2.7,91.5-7.9c5.9,69.6,3.5,143.8-8.5,214.1l-83.9-2.1L107,421.2z"/>
			<g>
				<path style="fill:#F2F2F2;" d="M71.2,654.9l10.5-284.4l101.9,3.8c11.9,90.3,9.6,192.2-10.5,284.4L71.2,654.9z"/>
				<path style="fill:#E6E6E6;" d="M131,480.7c12.9-2,34.5-3.3,54.1-2.5c-0.3-33.3-2.4-66.3-6.5-98.5l-91.4-3.4l-4,108.1
					C100.4,482.9,112.6,483.6,131,480.7z"/>
				<g>
					<path style="fill:#E6E6E6;" d="M130.1,634.7c-8.6-8.5-8.7-22.2-0.2-30.8c8.5-8.6,22.3-8.7,30.8-0.2c8.6,8.5,8.7,22.3,0.2,30.8
						C152.4,643.1,138.6,643.2,130.1,634.7z M156.4,617c-1.4-1.4-3.6-1.4-5,0c-1.4,1.4-1.4,3.6,0,5c1.4,1.4,3.6,1.4,5,0
						C157.8,620.6,157.8,618.4,156.4,617z M142.5,613.1c1.4,1.4,3.6,1.4,5,0c1.4-1.4,1.4-3.6,0-5c-1.4-1.4-3.6-1.4-5,0
						C141.1,609.5,141.1,611.8,142.5,613.1z M148.2,625.3c-1.4-1.4-3.6-1.4-5,0c-1.4,1.4-1.4,3.6,0,5c1.4,1.4,3.6,1.4,5,0
						C149.7,628.9,149.6,626.6,148.2,625.3z M134.3,621.4c1.4,1.4,3.6,1.4,5,0c1.4-1.4,1.4-3.6,0-5c-1.4-1.4-3.6-1.4-5,0
						C132.9,617.8,132.9,620,134.3,621.4z"/>
					<path style="fill:#FFFFFF;" d="M131.1,634.8c-8.6-8.5-8.7-22.3-0.2-30.8c8.5-8.6,22.3-8.7,30.8-0.2c8.6,8.5,8.7,22.3,0.2,30.8
						C153.4,643.1,139.6,643.2,131.1,634.8z M157.4,617c-1.4-1.4-3.6-1.4-5,0c-1.4,1.4-1.4,3.6,0,5c1.4,1.4,3.6,1.4,5,0
						C158.8,620.6,158.8,618.4,157.4,617z M143.5,613.2c1.4,1.4,3.6,1.4,5,0c1.4-1.4,1.4-3.6,0-5c-1.4-1.4-3.6-1.4-5,0
						C142.1,609.6,142.1,611.8,143.5,613.2z M149.3,625.3c-1.4-1.4-3.6-1.4-5,0c-1.4,1.4-1.4,3.6,0,5c1.4,1.4,3.6,1.4,5,0
						C150.7,628.9,150.7,626.7,149.3,625.3z M135.3,621.5c1.4,1.4,3.6,1.4,5,0c1.4-1.4,1.4-3.6,0-5c-1.4-1.4-3.6-1.4-5,0
						C133.9,617.9,133.9,620.1,135.3,621.5z"/>
					<path style="fill:#E6E6E6;" d="M156.9,607.5c6.4,6.3,6.5,16.7,0.2,23.1c-3.7,3.8-8.8,5.3-13.7,4.7c5.2,1,10.7-0.6,14.6-4.6
						c6.3-6.4,6.3-16.8-0.2-23.1c-2.6-2.6-5.9-4.1-9.3-4.5C151.6,603.7,154.5,605.2,156.9,607.5z"/>
				</g>
				<path style="fill:#262626;" d="M62.6,358.7l75.6,1.2c4.4,120.7,1.5,194.7-11.4,308.1H62.2C47.7,668,36,656.3,36,641.8V384.9
					C36,370.3,48,358.5,62.6,358.7z"/>
				<path style="fill:#424242;" d="M46.3,364.1l86.4,1.3c1.9,54.2,2.1,95.9,0.9,136.9H36V384.9C36,376.4,40.1,368.9,46.3,364.1z"/>
			</g>
		</g>
	</g>
	<g>
		<defs>
			<path id="SVGID_1_" d="M1180,378.5V835H745.3V378.5H1180z M1115.4,436.6c-0.5-0.6-1.2-1-1.9-1.3c0.1-1.1-0.1-2.1-0.6-3.2
				c-1.3-2.4-2.8-4.5-4.4-6.5c1.1-1.2,2.3-2.5,3.5-3.9c-20.4-26.9-66.2-18.3-73.2-16.4c-6.7,1.8-24.9,7.5-43.2,14.3
				c-3.8,1.4-7.6,2.9-11.4,4.3V503h25.2c13.8-8.1,27.4-16.1,39.2-23.1c0.3,0.2,0.6,0.3,1,0.1C1082.3,467,1118.8,440.5,1115.4,436.6z
				"/>
		</defs>
		<clipPath id="SVGID_2_">
			<use xlink:href="#SVGID_1_"  style="overflow:visible;"/>
		</clipPath>
		<g style="clip-path:url(#SVGID_2_);">
			<g>
				<path style="fill:#303030;" d="M1013.3,589.8l4.2,12.8c6.9,21,29.6,32.5,50.6,25.6l39.2-12.9c21-6.9,32.5-29.6,25.6-50.6
					l-4.2-12.8c-5.7-17.3-13.1-34.1-21.9-50.1l-5.8-10.5c-4.9-8.7-15.2-12.7-24.7-9.6l-62.5,20.6c-9.5,3.1-15.4,12.5-14.1,22.4
					l1.5,11.9C1003.5,554.6,1007.6,572.5,1013.3,589.8z M1025,528.1c-1.6-5,1.1-10.4,6.1-12l39.5-13c5-1.6,10.4,1.1,12,6.1l3.3,10.1
					c1.6,5-1.1,10.4-6.1,12l-39.5,13c-5,1.6-10.4-1.1-12-6.1L1025,528.1z"/>
				<path style="fill:#C9C7C2;" d="M1144.6,807.9l7.9-2.6c2-0.6,3.3-2.5,3.3-4.5l0.3-38.8c0-3.5-0.5-7-1.6-10.3l-45.1-137
					l-43.5,14.3l45.1,137c1.1,3.3,2.7,6.5,4.8,9.3l23.3,31C1140.5,807.9,1142.7,808.6,1144.6,807.9z"/>
				<path style="fill:#91908D;" d="M1139.3,806.2l-13.1-17.4l4.9-13.5l-6.8-20.7l6.6-5.6l-5.2-15.9l-8.7-0.6l-4.8-14.5l-7.8-0.5
					l-11.7-35.5l5.9-5l-11.1-33.8l13.1-4.3l11.8,36l9,0.6l5,15.3l-6.9,5.8l4.2,12.7l9,0.6l11.7,35.5l-6.9,5.8l6.5,19.8l11.9,8
					l-0.2,21.8c0,2.1-1.4,3.9-3.3,4.5l-7.9,2.6C1142.7,808.6,1140.5,807.9,1139.3,806.2z"/>
				
					<ellipse transform="matrix(0.9499 -0.3125 0.3125 0.9499 -127.8702 364.9106)" style="fill:#1A1A1A;" cx="1074.5" cy="581.4" rx="25.3" ry="25.3"/>
				
					<ellipse transform="matrix(0.9499 -0.3125 0.3125 0.9499 -127.87 364.9093)" style="fill:#303030;" cx="1074.5" cy="581.4" rx="18.7" ry="18.7"/>
			</g>
			<g>
				<path style="fill:#303030;" d="M799.5,550.4l-23.9,73.9c-8.7,26.8-12.7,54.8-11.9,83c0.4,14.2,9.7,26.6,23.2,31l79.1,25.6
					c13.5,4.4,28.3-0.2,36.9-11.5c17.1-22.3,30.3-47.4,39-74.2l23.9-73.9c8.7-26.8,12.7-54.8,11.9-83c-0.4-14.2-9.7-26.6-23.2-31
					l-79.1-25.6c-13.5-4.4-28.3,0.2-36.9,11.5C821.4,498.5,808.2,523.6,799.5,550.4z M867.2,488.1c1.3-4,5.7-6.3,9.7-5l65.7,21.3
					c4,1.3,6.3,5.7,5,9.7l-3.5,10.9c-1.3,4-5.7,6.3-9.7,5l-65.7-21.3c-4-1.3-6.3-5.7-5-9.7L867.2,488.1z"/>
				<path style="fill:#1A1A1A;" d="M871.5,746.8c6.3,2,13.2-0.1,17.2-5.4c15.9-20.8,28.1-43.9,36.2-68.8l8.5-26.3
					c8.1-24.9,11.8-50.8,11.1-76.9c-0.2-6.6-4.5-12.4-10.8-14.4l-79.1-25.6c-6.3-2-13.2,0.1-17.2,5.4
					c-15.9,20.8-28.1,43.9-36.2,68.8l-8.5,26.3c-8.1,24.9-11.8,50.8-11.1,76.9c0.2,6.6,4.5,12.4,10.8,14.4L871.5,746.8z"/>
				<g>
					<path style="fill:#303030;" d="M924.8,643.6l-8.5,26.3c-0.4,1.3-0.9,2.6-1.3,3.9c-1.6,4.7-6.7,7.3-11.4,5.7l-97.7-31.7
						c-4.7-1.5-7.3-6.6-5.9-11.4c0.4-1.3,0.8-2.6,1.2-3.9l8.5-26.3c0.5-1.4,0.9-2.8,1.4-4.2c1.6-4.6,6.7-7.1,11.4-5.6l97.7,31.7
						c4.7,1.5,7.3,6.5,6,11.2C925.7,640.8,925.3,642.2,924.8,643.6z"/>
					<path style="fill:#303030;" d="M823.1,574c6.1-11.9,13.2-23.3,21.4-33.9c1.7-2.2,4.6-3.1,7.3-2.2l79.1,25.6
						c2.7,0.9,4.5,3.3,4.6,6.1c0.4,13.5-0.5,26.8-2.6,40c-0.9,5.5-6.5,9-11.8,7.2l-92.7-30C823.1,585.1,820.5,579,823.1,574z"/>
					<path style="fill:#303030;" d="M903,702c-6.1,12-13.2,23.4-21.5,34.1c-1.7,2.2-4.6,3.1-7.3,2.2l-79.1-25.6
						c-2.6-0.9-4.5-3.3-4.6-6.1c-0.4-13.5,0.5-26.9,2.6-40.2c0.9-5.5,6.5-9,11.8-7.2l92.7,30C903,690.9,905.5,697,903,702z"/>
				</g>
				<path style="fill:#B0B0B0;" d="M861.1,580.7l2.6-7.9c0.9-2.7,3.8-4.2,6.5-3.3l23.5,7.6c2.7,0.9,4.2,3.8,3.3,6.5l-2.6,7.9
					c-1.9,5.9-8.3,9.2-14.3,7.3l-11.8-3.8C862.4,593,859.2,586.7,861.1,580.7z M869.2,572.5c-1-0.3-2.2,0.2-2.5,1.3l-2.6,7.9
					c-1.4,4.3,1,8.9,5.2,10.3l11.8,3.8c4.3,1.4,8.9-1,10.3-5.2l2.6-7.9c0.3-1-0.2-2.2-1.3-2.5L869.2,572.5z"/>
				<path style="fill:#B0B0B0;" d="M867.5,570.3l3,1c2.9-9,10.2-14.7,16.2-12.7c6,1.9,8.5,10.8,5.6,19.8l3,1
					c3.4-10.6,0-21.3-7.7-23.8C880,553.1,871,559.7,867.5,570.3z"/>
				<path style="fill:#B0B0B0;" d="M841.6,640.8l2.6-7.9c0.9-2.7,3.8-4.2,6.5-3.3l23.5,7.6c2.7,0.9,4.2,3.8,3.3,6.5l-2.6,7.9
					c-1.9,5.9-8.3,9.2-14.3,7.3l-11.8-3.8C843,653.2,839.7,646.8,841.6,640.8z M849.7,632.6c-1-0.3-2.2,0.2-2.5,1.3l-2.6,7.9
					c-1.4,4.3,1,8.9,5.2,10.3l11.8,3.8c4.3,1.4,8.9-1,10.3-5.2l2.6-7.9c0.3-1-0.2-2.2-1.3-2.5L849.7,632.6z"/>
				<path style="fill:#B0B0B0;" d="M854.4,642c0.9-2.6,3.7-4.1,6.3-3.2c2.6,0.9,4.1,3.7,3.2,6.3c-0.6,1.7-2,2.9-3.7,3.3l-0.9,2.7
					c-0.3,0.8-1.1,1.2-1.9,1l-2.1-0.7c-0.8-0.3-1.2-1.1-1-1.9l0.9-2.7C854.2,645.5,853.8,643.7,854.4,642z"/>
				<path style="fill:#B0B0B0;" d="M871.6,639.7c0.8,0.3,1.7-0.2,2-1c2.9-9,10.2-14.7,16.2-12.7c6,1.9,8.5,10.8,5.6,19.8
					c-0.3,0.8,0.2,1.7,1,2c0.8,0.3,1.7-0.2,2-1c3.4-10.6,0-21.3-7.7-23.8c-7.7-2.5-16.7,4.1-20.1,14.8
					C870.3,638.6,870.7,639.5,871.6,639.7z"/>
				<g>
					<path style="fill:#B0B0B0;" d="M819.8,704.9c-0.7-2.1-0.3-4.4,1.1-6.2l4-5.4c1.8-2.3,4.8-3.3,7.6-2.4l21.6,7
						c3.6,1.2,5.6,5,4.4,8.6l-1.1,3.4l-1.5-0.5c-5.1-1.6-10.6,0.2-13.7,4.5l-0.7,0.9l-17.3-5.6C822.1,708.6,820.5,707,819.8,704.9z
						 M855.4,706.1l0.2-0.5c0.6-1.9-0.4-4-2.4-4.7l-21.6-7c-1.5-0.5-3.2,0-4.1,1.3l-4,5.4c-0.7,1-0.9,2.2-0.6,3.3
						c0.4,1.2,1.2,2,2.4,2.4l15.2,4.9C844.1,706.9,849.8,704.9,855.4,706.1z"/>
					
						<ellipse transform="matrix(0.3082 -0.9513 0.9513 0.3082 -94.2402 1306.8689)" style="fill:#B0B0B0;" cx="851.5" cy="718.2" rx="6.5" ry="6.5"/>
					<path style="fill:#B0B0B0;" d="M852.6,700.8c0.5,0.2,1,0.1,1.5-0.3c0.7-0.5,0.8-1.5,0.2-2.2l-15.5-19.3
						c-0.4-0.5-1.2-0.7-1.9-0.5l-6.2,2.6c-0.8,0.3-1.2,1.3-0.8,2.1c0.3,0.8,1.3,1.2,2.1,0.8l5.1-2.2l14.7,18.4
						C852.1,700.5,852.3,700.7,852.6,700.8z"/>
				</g>
				<path style="fill:#B0B0B0;" d="M873.7,582.1c0.9-2.6,3.7-4.1,6.3-3.2c2.6,0.9,4.1,3.7,3.2,6.3c-0.6,1.7-2,2.9-3.7,3.3l-0.9,2.7
					c-0.3,0.8-1.1,1.2-1.9,1l-2.1-0.7c-0.8-0.3-1.2-1.1-1-1.9l0.9-2.7C873.6,585.7,873.2,583.9,873.7,582.1z"/>
			</g>
			<path style="fill:#969696;" d="M925.6,481.4c0-39.7,32.3-72,72-72c39.7,0,72,32.3,72,72c0,39.7-32.3,72-72,72
				C957.9,553.4,925.6,521.1,925.6,481.4z M938.3,481.4c0,32.7,26.6,59.3,59.3,59.3c32.7,0,59.3-26.6,59.3-59.3
				c0-32.7-26.6-59.3-59.3-59.3C964.9,422.1,938.3,448.7,938.3,481.4z"/>
			<path style="fill:#E0E0E0;" d="M930.4,481.4c0-37.1,30.2-67.2,67.2-67.2c37.1,0,67.2,30.2,67.2,67.2c0,37.1-30.2,67.2-67.2,67.2
				C960.5,548.7,930.4,518.5,930.4,481.4z M933.5,481.4c0,35.3,28.7,64.1,64.1,64.1c35.3,0,64.1-28.7,64.1-64.1
				c0-35.3-28.7-64.1-64.1-64.1C962.3,417.4,933.5,446.1,933.5,481.4z"/>
			<path style="fill:#303030;" d="M1078.4,481.2V504c-2.3-1.4-5.1-1.8-7.8-0.9l-32.9,10.8v-19.5l38.6-12.7
				C1077,481.4,1077.7,481.3,1078.4,481.2z"/>
			<path style="fill:#303030;" d="M936.3,530.3c3.4,0.2,6.6-1.9,7.7-5.3l3.5-10.9c0.4-1.3,0.4-2.7,0.2-4l21.9-9.7
				c4.9,5.7,7.9,13,8.1,20.8c0.5,16.4-0.8,32.8-3.6,48.9l-25.7-20.1L936.3,530.3z"/>
		</g>
	</g>
</g>
</svg>
