<?xml version="1.0" encoding="utf-8"?>
<!-- Generator: Adobe Illustrator 21.1.0, SVG Export Plug-In . SVG Version: 6.00 Build 0)  -->
<svg version="1.1" id="_x2014_лой_x5F_1" xmlns="http://www.w3.org/2000/svg" xmlns:xlink="http://www.w3.org/1999/xlink"
	 x="0px" y="0px" viewBox="0 0 697.8 648.1" style="enable-background:new 0 0 697.8 648.1;" xml:space="preserve">
<linearGradient id="SVGID_1_" gradientUnits="userSpaceOnUse" x1="-1.231" y1="519.6389" x2="650.0303" y2="519.6389">
	<stop  offset="0" style="stop-color:#41B782"/>
	<stop  offset="0.1711" style="stop-color:#4FBC7D"/>
	<stop  offset="0.7167" style="stop-color:#77CB6F"/>
	<stop  offset="1" style="stop-color:#86D169"/>
</linearGradient>
<path style="fill:url(#SVGID_1_);" d="M578.9,448.5H-1.2v142.3h580.1c39.1,0,71.1-32,71.1-71.1v0C650,480.5,618,448.5,578.9,448.5z"
	/>
<g>
	<g>
		<polygon style="opacity:0.13;fill:#231F20;" points="449.1,511.6 350.1,510.9 311.4,519.3 340.7,523.5 175.3,555.6 113.7,194.3 
			383.9,148.2 423.1,410.8 		"/>
		<polygon style="fill:#FAFAFA;" points="425.7,495.8 339,514.6 160.5,545.1 98.9,183.7 369.1,137.7 414.6,404.9 		"/>
		<defs>
			<filter id="Adobe_OpacityMaskFilter" filterUnits="userSpaceOnUse" x="101" y="139.5" width="318.7" height="405.3">
				<feFlood  style="flood-color:white;flood-opacity:1" result="back"/>
				<feBlend  in="SourceGraphic" in2="back" mode="normal"/>
			</filter>
		</defs>
		<mask maskUnits="userSpaceOnUse" x="101" y="139.5" width="318.7" height="405.3" id="SVGID_2_">
			<g style="filter:url(#Adobe_OpacityMaskFilter);">
				<defs>
					<filter id="Adobe_OpacityMaskFilter_1_" filterUnits="userSpaceOnUse" x="101" y="139.5" width="318.7" height="405.3">
						<feFlood  style="flood-color:white;flood-opacity:1" result="back"/>
						<feBlend  in="SourceGraphic" in2="back" mode="normal"/>
					</filter>
				</defs>
				<mask maskUnits="userSpaceOnUse" x="101" y="139.5" width="318.7" height="405.3" id="SVGID_2_">
					<g style="filter:url(#Adobe_OpacityMaskFilter_1_);">
					</g>
				</mask>
				
					<linearGradient id="SVGID_3_" gradientUnits="userSpaceOnUse" x1="-136.7069" y1="101.2056" x2="252.9783" y2="297.8304" gradientTransform="matrix(0.9858 -0.168 0.168 0.9858 -46.054 87.2388)">
					<stop  offset="0.3602" style="stop-color:#FFFFFF"/>
					<stop  offset="1" style="stop-color:#000000"/>
				</linearGradient>
				<polygon style="mask:url(#SVGID_2_);fill:url(#SVGID_3_);" points="419.7,491.7 338.3,514.8 162.3,544.8 101,185.2 369.2,139.5 
					417.1,420.7 				"/>
			</g>
		</mask>
		
			<linearGradient id="SVGID_4_" gradientUnits="userSpaceOnUse" x1="-136.7069" y1="101.2056" x2="252.9783" y2="297.8304" gradientTransform="matrix(0.9858 -0.168 0.168 0.9858 -46.054 87.2388)">
			<stop  offset="0.3602" style="stop-color:#000000"/>
			<stop  offset="1" style="stop-color:#000000"/>
		</linearGradient>
		<polygon style="opacity:3.000000e-02;fill:url(#SVGID_4_);" points="419.7,491.7 338.3,514.8 162.3,544.8 101,185.2 369.2,139.5 
			417.1,420.7 		"/>
		<path style="fill:#A3BBC4;" d="M354.5,251.8L152,286.3c-2.8,0.5-5.5-1.4-6-4.3v0c-0.5-2.8,1.4-5.5,4.3-6l202.6-34.5
			c2.8-0.5,5.5,1.4,6,4.3v0C359.3,248.6,357.4,251.3,354.5,251.8z"/>
		<path style="fill:#A3BBC4;" d="M302.4,220.1l-111.6,19c-2.8,0.5-5.5-1.4-6-4.3l0,0c-0.5-2.8,1.4-5.5,4.3-6l111.6-19
			c2.8-0.5,5.5,1.4,6,4.3l0,0C307.1,216.9,305.2,219.6,302.4,220.1z"/>
		<path style="fill:#A3BBC4;" d="M359.3,280l-202.6,34.5c-2.8,0.5-5.5-1.4-6-4.3l0,0c-0.5-2.8,1.4-5.5,4.3-6l202.6-34.5
			c2.8-0.5,5.5,1.4,6,4.3v0C364.1,276.8,362.2,279.5,359.3,280z"/>
		<path style="fill:#A3BBC4;" d="M369,336.4l-202.6,34.5c-2.8,0.5-5.5-1.4-6-4.3v0c-0.5-2.8,1.4-5.5,4.3-6l202.6-34.5
			c2.8-0.5,5.5,1.4,6,4.3v0C373.7,333.2,371.8,335.9,369,336.4z"/>
		<path style="fill:#A3BBC4;" d="M373.8,364.6l-202.6,34.5c-2.8,0.5-5.5-1.4-6-4.3v0c-0.5-2.8,1.4-5.5,4.3-6L372,354.3
			c2.8-0.5,5.5,1.4,6,4.3v0C378.5,361.4,376.6,364.1,373.8,364.6z"/>
		<path style="fill:#A3BBC4;" d="M296.1,406.9L176,427.3c-2.8,0.5-5.5-1.4-6-4.3v0c-0.5-2.8,1.4-5.5,4.3-6l120.1-20.5
			c2.8-0.5,5.5,1.4,6,4.3v0C300.8,403.7,298.9,406.4,296.1,406.9z"/>
		
			<rect x="179.9" y="474.5" transform="matrix(0.9858 -0.168 0.168 0.9858 -76.5226 47.4832)" style="fill:#A3BBC4;" width="124.8" height="2.9"/>
		<g>
			<path style="fill:#5C5C5C;" d="M237.4,454.7c0.2-10-3.3-19.6-9.9-27.1c-0.8-1-2.2-0.2-2.1,1c1,19.6,2.2,39.2,2.8,58.8
				c0.1,2.2,0.1,4.3-0.1,6.5c-0.1,1-0.2,2-0.3,3c-0.1,1.1-0.3,3.4-0.9,4.3c-1.5,2.1-4-1.7-5-3c-1.4-1.8-2.6-3.9-3.6-5.9
				c-2.9-5.9-7.1-15.8-2.4-21.8c1.7-2.1,4.3-3.3,6.8-4.1c3.1-0.9,4.6,0.5,6,3.1c2.5,4.6,4.3,9.6,5.5,14.7c0.3,1.3,2.2,1.3,2.4-0.1
				c0.8-6.3,2.1-12.5,3.8-18.5c-0.7,0-1.5,0.1-2.2,0.1c0.8,1.7,2.5,6.4,5.2,4.8c1.3-0.8,2.3-2.7,3.2-3.8c1.6-2,3.2-4,4.7-6.1
				c-0.7-0.3-1.5-0.5-2.2-0.8c-1.1,8.5,12,5.3,16,3.5c-0.3-0.7-0.7-1.5-1-2.2c-7.2,3.2-14.1,6.8-20.8,10.9c-1.1,0.7-0.7,2.5,0.7,2.3
				c7.5-0.9,14.9-2.1,22.4-3.6c1.5-0.3,1.1-2.7-0.4-2.4c-7.4,1.4-14.9,2.6-22.3,3.6c0.2,0.8,0.5,1.5,0.7,2.3
				c6.7-4,13.7-7.7,20.8-10.9c1.4-0.6,0.4-2.8-1-2.2c-2.3,1-13.3,4.6-12.6-1.1c0.2-1.2-1.5-1.7-2.2-0.8c-1.7,2.1-3.4,4.3-5,6.4
				c-0.4,0.5-0.8,1-1.2,1.5c-0.2,0.3-0.4,0.5-0.6,0.8c-0.2,0.5-0.4,0.5-0.5,0c-0.7-0.5-1.3-2.5-1.7-3.2c-0.4-0.9-1.9-0.9-2.2,0.1
				c-1.8,6.3-3.1,12.7-4,19.1c0.8,0,1.6-0.1,2.4-0.1c-1.2-5.5-3.1-10.8-5.9-15.7c-2.3-4-5.1-5.2-9.5-3.7c-4.1,1.4-7.8,3.9-9.1,8.2
				c-1.3,4-0.5,8.4,0.7,12.4c1,3.2,9.8,25.2,15.5,18.6c1.2-1.3,1.4-3.8,1.7-5.5c0.5-3,0.6-6,0.5-9c-0.1-5.8-0.5-11.7-0.8-17.5
				c-0.7-14.4-1.4-28.8-2.1-43.2c-0.7,0.3-1.4,0.7-2.1,1c6.1,7,9.5,16,9.3,25.4C235,456,237.4,456.3,237.4,454.7L237.4,454.7z"/>
		</g>
		<g>
			
				<ellipse transform="matrix(0.9904 -0.1379 0.1379 0.9904 -57.5962 54.1417)" style="fill:#D6F2F5;" cx="362" cy="442.8" rx="36.3" ry="36.3"/>
		</g>
		
			<ellipse transform="matrix(0.9904 -0.1379 0.1379 0.9904 -57.5978 54.1434)" style="fill:#FFFFFF;" cx="362" cy="442.8" rx="26.4" ry="26.4"/>
		<g>
			<path style="fill:#D6F2F5;" d="M369.5,486.5c-0.5,0.1-0.9,0.1-1.4,0.2c-24.2,3.4-46.7-13.6-50.1-37.8
				c-3.4-24.4,13.3-46.7,37.8-50.1c11.7-1.6,23.4,1.4,32.9,8.5c9.5,7.1,15.6,17.5,17.2,29.3C409.3,460.6,393.2,482.5,369.5,486.5z
				 M355.1,402.5c-21.9,3.7-36.7,23.9-33.6,45.9c3.1,22.3,23.8,38,46.1,34.9c22.6-3.2,38-23.7,34.9-46.1c-1.5-10.8-7.1-20.4-15.8-27
				c-8.7-6.6-19.5-9.4-30.3-7.9C355.9,402.3,355.5,402.4,355.1,402.5z"/>
		</g>
		<polygon style="fill:#C3D82E;" points="360,458.8 343.7,447.3 349.1,440.7 358.4,447.3 372.8,429.5 379.7,434.4 		"/>
		<g>
			<defs>
				
					<rect id="SVGID_5_" x="127.5" y="158.2" transform="matrix(0.9858 -0.168 0.168 0.9858 -53.6152 49.308)" width="274.1" height="366.5"/>
			</defs>
			<clipPath id="SVGID_6_">
				<use xlink:href="#SVGID_5_"  style="overflow:visible;"/>
			</clipPath>
		</g>
	</g>
	<g>
		<polygon style="opacity:0.13;fill:#231F20;" points="518.1,557.8 419.3,534.7 311.4,519.3 325.7,517 280,507.6 306.5,507 
			304.8,148.2 575.2,193 526.4,454.1 		"/>
		<polygon style="fill:#FAFAFA;" points="501.1,535.2 413,524.7 234.3,495.1 294.2,133.5 564.7,178.3 520.3,445.7 		"/>
		<defs>
			<filter id="Adobe_OpacityMaskFilter_2_" filterUnits="userSpaceOnUse" x="236.1" y="135.5" width="328" height="393.9">
				<feFlood  style="flood-color:white;flood-opacity:1" result="back"/>
				<feBlend  in="SourceGraphic" in2="back" mode="normal"/>
			</filter>
		</defs>
		<mask maskUnits="userSpaceOnUse" x="236.1" y="135.5" width="328" height="393.9" id="SVGID_7_">
			<g style="filter:url(#Adobe_OpacityMaskFilter_2_);">
				<defs>
					<filter id="Adobe_OpacityMaskFilter_3_" filterUnits="userSpaceOnUse" x="236.1" y="135.5" width="328" height="393.9">
						<feFlood  style="flood-color:white;flood-opacity:1" result="back"/>
						<feBlend  in="SourceGraphic" in2="back" mode="normal"/>
					</filter>
				</defs>
				<mask maskUnits="userSpaceOnUse" x="236.1" y="135.5" width="328" height="393.9" id="SVGID_7_">
					<g style="filter:url(#Adobe_OpacityMaskFilter_3_);">
					</g>
				</mask>
				
					<linearGradient id="SVGID_8_" gradientUnits="userSpaceOnUse" x1="2.6069" y1="170.2813" x2="392.27" y2="366.895" gradientTransform="matrix(0.9866 0.1634 -0.1634 0.9866 62.6465 -95.9959)">
					<stop  offset="0.3602" style="stop-color:#FFFFFF"/>
					<stop  offset="1" style="stop-color:#000000"/>
				</linearGradient>
				<polygon style="mask:url(#SVGID_7_);fill:url(#SVGID_8_);" points="496.8,529.4 412.3,524.6 236.1,495.4 295.7,135.5 564.1,180 
					517.5,461.4 				"/>
			</g>
		</mask>
		
			<linearGradient id="SVGID_9_" gradientUnits="userSpaceOnUse" x1="2.6069" y1="170.2813" x2="392.27" y2="366.895" gradientTransform="matrix(0.9866 0.1634 -0.1634 0.9866 62.6465 -95.9959)">
			<stop  offset="0.3602" style="stop-color:#000000"/>
			<stop  offset="1" style="stop-color:#000000"/>
		</linearGradient>
		<polygon style="opacity:3.000000e-02;fill:url(#SVGID_9_);" points="496.8,529.4 412.3,524.6 236.1,495.4 295.7,135.5 564.1,180 
			517.5,461.4 		"/>
		<path style="fill:#A3BBC4;" d="M513.6,281.4l-202.7-33.6c-2.8-0.5-4.8-3.2-4.3-6l0,0c0.5-2.8,3.2-4.8,6-4.3l202.7,33.6
			c2.8,0.5,4.8,3.2,4.3,6v0C519.1,279.9,516.5,281.8,513.6,281.4z"/>
		<path style="fill:#A3BBC4;" d="M474.6,234.4l-111.7-18.5c-2.8-0.5-4.8-3.2-4.3-6l0,0c0.5-2.8,3.2-4.8,6-4.3l111.7,18.5
			c2.8,0.5,4.8,3.2,4.3,6l0,0C480.2,232.9,477.5,234.8,474.6,234.4z"/>
		<path style="fill:#A3BBC4;" d="M508.9,309.6L306.2,276c-2.8-0.5-4.8-3.2-4.3-6l0,0c0.5-2.8,3.2-4.8,6-4.3l202.7,33.6
			c2.8,0.5,4.8,3.2,4.3,6v0C514.5,308.1,511.8,310,508.9,309.6z"/>
		<path style="fill:#A3BBC4;" d="M499.6,366l-202.7-33.6c-2.8-0.5-4.8-3.2-4.3-6v0c0.5-2.8,3.2-4.8,6-4.3l202.7,33.6
			c2.8,0.5,4.8,3.2,4.3,6v0C505.1,364.6,502.4,366.5,499.6,366z"/>
		<path style="fill:#A3BBC4;" d="M494.9,394.2l-202.7-33.6c-2.8-0.5-4.8-3.2-4.3-6h0c0.5-2.8,3.2-4.8,6-4.3l202.7,33.6
			c2.8,0.5,4.8,3.2,4.3,6v0C500.4,392.8,497.8,394.7,494.9,394.2z"/>
		<path style="fill:#A3BBC4;" d="M407.7,408.8l-120.2-19.9c-2.8-0.5-4.8-3.2-4.3-6v0c0.5-2.8,3.2-4.8,6-4.3l120.2,19.9
			c2.8,0.5,4.8,3.2,4.3,6v0C413.2,407.3,410.5,409.3,407.7,408.8z"/>
		
			<rect x="271.9" y="455" transform="matrix(0.9866 0.1634 -0.1634 0.9866 79.0891 -48.4931)" style="fill:#A3BBC4;" width="124.8" height="2.9"/>
		<g>
			<path style="fill:#5C5C5C;" d="M336.6,434.8c3.4-9.4,3.3-19.6-0.5-28.9c-0.5-1.2-2-0.9-2.3,0.2c-5.5,18.8-10.7,37.8-16.5,56.5
				c-0.6,2.1-1.3,4.1-2.2,6.1c-0.4,0.9-0.8,1.8-1.3,2.7c-0.5,1-1.3,3.1-2.2,3.7c-2.1,1.5-3.2-2.9-3.8-4.5c-0.7-2.2-1.2-4.5-1.4-6.8
				c-0.8-6.5-1.6-17.2,4.9-21.4c2.2-1.4,5.1-1.7,7.7-1.6c3.2,0.2,4.2,2,4.7,4.9c0.9,5.2,1,10.5,0.4,15.7c-0.2,1.3,1.7,1.9,2.3,0.7
				c2.8-5.7,6-11.1,9.7-16.3c-0.7-0.2-1.4-0.4-2.1-0.6c0.2,1.9,0.2,6.9,3.4,6.2c1.4-0.3,3-1.8,4.3-2.6c2.2-1.4,4.3-2.8,6.5-4.2
				c-0.6-0.5-1.2-1-1.8-1.5c-3.8,7.7,9.6,9,14,8.6c-0.1-0.8-0.2-1.6-0.3-2.4c-7.8,0.7-15.6,1.8-23.2,3.5c-1.3,0.3-1.5,2.1-0.1,2.4
				c7.4,1.6,14.8,2.9,22.3,3.9c1.5,0.2,1.9-2.2,0.4-2.4c-7.5-1.1-14.9-2.4-22.3-3.9c0,0.8,0,1.6-0.1,2.4c7.7-1.6,15.4-2.8,23.2-3.5
				c1.5-0.1,1.3-2.5-0.3-2.4c-2.5,0.2-14.1,0-11.6-5.2c0.6-1.1-0.8-2.1-1.8-1.5c-2.3,1.5-4.6,3-6.9,4.4c-0.5,0.3-1.1,0.7-1.6,1
				c-0.3,0.2-0.5,0.3-0.8,0.5c-0.4,0.4-0.5,0.4-0.5-0.2c-0.5-0.7-0.4-2.8-0.5-3.6c-0.1-1-1.5-1.5-2.1-0.6c-3.7,5.4-7.1,11-10,16.8
				c0.8,0.2,1.5,0.5,2.3,0.7c0.6-5.6,0.6-11.2-0.4-16.8c-0.8-4.5-3.1-6.5-7.7-6.6c-4.3-0.1-8.6,1.1-11.3,4.7
				c-2.5,3.4-3.2,7.8-3.4,11.9c-0.1,3.4,1,27,8.6,22.7c1.5-0.9,2.6-3.1,3.4-4.6c1.4-2.7,2.5-5.5,3.4-8.4c1.8-5.5,3.3-11.2,5-16.8
				c4.1-13.9,8.1-27.7,12.2-41.6c-0.8,0.1-1.5,0.2-2.3,0.2c3.5,8.6,3.7,18.2,0.5,27C333.9,435.3,336,436.3,336.6,434.8L336.6,434.8z
				"/>
		</g>
		<g>
			
				<ellipse transform="matrix(0.1934 -0.9811 0.9811 0.1934 -85.927 824.0327)" style="fill:#D6F2F5;" cx="458.2" cy="464.3" rx="36.3" ry="36.3"/>
		</g>
		
			<ellipse transform="matrix(0.1934 -0.9811 0.9811 0.1934 -85.9279 824.0314)" style="fill:#FFFFFF;" cx="458.2" cy="464.3" rx="26.4" ry="26.4"/>
		<g>
			<path style="fill:#D6F2F5;" d="M451,508.1c-0.5-0.1-0.9-0.2-1.4-0.2c-24-4.7-39.7-28.1-35-52.1c4.8-24.1,27.8-39.8,52.1-35
				c11.6,2.3,21.7,9,28.3,18.8c6.6,9.8,9,21.7,6.7,33.3C497.1,496.5,474.8,512,451,508.1z M464.9,423.9
				c-21.9-3.6-42.5,10.6-46.8,32.4c-4.4,22.1,10.1,43.7,32.2,48c22.4,4.4,43.6-10,48-32.2c2.1-10.7-0.1-21.6-6.2-30.7
				c-6.1-9.1-15.3-15.2-26-17.3C465.7,424.1,465.3,424,464.9,423.9z"/>
		</g>
		<polygon style="fill:#C3D82E;" points="451.1,478.8 439.5,462.6 446.7,458.1 453.3,467.4 472.7,455.2 477.7,462.1 		"/>
		<g>
			<defs>
				
					<rect id="SVGID_10_" x="262.2" y="153.4" transform="matrix(0.9866 0.1634 -0.1634 0.9866 60.3869 -60.7192)" width="274.1" height="366.5"/>
			</defs>
			<clipPath id="SVGID_11_">
				<use xlink:href="#SVGID_10_"  style="overflow:visible;"/>
			</clipPath>
		</g>
	</g>
	<g>
		<polygon style="opacity:0.13;fill:#231F20;" points="487.9,511.8 386.7,505.2 280.7,502 306.5,507 280,507.6 210.6,509.2 
			210.6,142.7 484.7,142.7 479.2,408.2 		"/>
		<polygon style="fill:#FFFFFF;" points="467.5,492.4 378.8,496.3 197.7,496.3 197.7,129.8 471.8,129.8 471.8,400.9 		"/>
		<defs>
			<filter id="Adobe_OpacityMaskFilter_4_" filterUnits="userSpaceOnUse" x="199.6" y="131.6" width="272" height="364.8">
				<feFlood  style="flood-color:white;flood-opacity:1" result="back"/>
				<feBlend  in="SourceGraphic" in2="back" mode="normal"/>
			</filter>
		</defs>
		<mask maskUnits="userSpaceOnUse" x="199.6" y="131.6" width="272" height="364.8" id="SVGID_12_">
			<g style="filter:url(#Adobe_OpacityMaskFilter_4_);">
				<defs>
					<filter id="Adobe_OpacityMaskFilter_5_" filterUnits="userSpaceOnUse" x="199.6" y="131.6" width="272" height="364.8">
						<feFlood  style="flood-color:white;flood-opacity:1" result="back"/>
						<feBlend  in="SourceGraphic" in2="back" mode="normal"/>
					</filter>
				</defs>
				<mask maskUnits="userSpaceOnUse" x="199.6" y="131.6" width="272" height="364.8" id="SVGID_12_">
					<g style="filter:url(#Adobe_OpacityMaskFilter_5_);">
					</g>
				</mask>
				<linearGradient id="SVGID_13_" gradientUnits="userSpaceOnUse" x1="-65.6233" y1="111.5484" x2="324.0598" y2="308.1721">
					<stop  offset="0.3602" style="stop-color:#FFFFFF"/>
					<stop  offset="1" style="stop-color:#000000"/>
				</linearGradient>
				<polygon style="mask:url(#SVGID_12_);fill:url(#SVGID_13_);" points="462.2,487.3 378.2,496.4 199.6,496.4 199.6,131.6 
					471.6,131.6 471.6,416.9 				"/>
			</g>
		</mask>
		<linearGradient id="SVGID_14_" gradientUnits="userSpaceOnUse" x1="-65.6233" y1="111.5484" x2="324.0598" y2="308.1721">
			<stop  offset="0.3602" style="stop-color:#000000"/>
			<stop  offset="1" style="stop-color:#000000"/>
		</linearGradient>
		<polygon style="opacity:3.000000e-02;fill:url(#SVGID_14_);" points="462.2,487.3 378.2,496.4 199.6,496.4 199.6,131.6 
			471.6,131.6 471.6,416.9 		"/>
		<path style="fill:#A3BBC4;" d="M439.8,239.9H231.4c-2.1,0-3.7-1.7-3.7-3.7v-3c0-2.1,1.7-3.7,3.7-3.7h208.4c2.1,0,3.7,1.7,3.7,3.7
			v3C443.6,238.2,441.9,239.9,439.8,239.9z"/>
		<path style="fill:#A3BBC4;" d="M392.2,199.9H279c-2.9,0-5.2-2.3-5.2-5.2l0,0c0-2.9,2.3-5.2,5.2-5.2h113.3c2.9,0,5.2,2.3,5.2,5.2
			l0,0C397.4,197.5,395.1,199.9,392.2,199.9z"/>
		<path style="fill:#A3BBC4;" d="M439.8,268.5H231.4c-2.1,0-3.7-1.7-3.7-3.7v-3c0-2.1,1.7-3.7,3.7-3.7h208.4c2.1,0,3.7,1.7,3.7,3.7
			v3C443.6,266.8,441.9,268.5,439.8,268.5z"/>
		<path style="fill:#A3BBC4;" d="M438.3,325.7H232.8c-2.9,0-5.2-2.3-5.2-5.2l0,0c0-2.9,2.3-5.2,5.2-5.2h205.5c2.9,0,5.2,2.3,5.2,5.2
			l0,0C443.6,323.3,441.2,325.7,438.3,325.7z"/>
		<path style="fill:#A3BBC4;" d="M439.8,354.3H231.4c-2.1,0-3.7-1.7-3.7-3.7v-3c0-2.1,1.7-3.7,3.7-3.7h208.4c2.1,0,3.7,1.7,3.7,3.7
			v3C443.6,352.6,441.9,354.3,439.8,354.3z"/>
		<path style="fill:#A3BBC4;" d="M354.7,382.9H232.8c-2.9,0-5.2-2.3-5.2-5.2l0,0c0-2.9,2.3-5.2,5.2-5.2h121.8c2.9,0,5.2,2.3,5.2,5.2
			l0,0C359.9,380.6,357.5,382.9,354.7,382.9z"/>
		<rect x="227.6" y="440.5" style="fill:#A3BBC4;" width="124.8" height="2.9"/>
		<g>
			<path style="fill:#5C5C5C;" d="M288.8,420.2c1.8-9.8,0-19.9-5.2-28.4c-0.7-1.1-2.1-0.5-2.2,0.6c-2.4,19.5-4.4,39-7.1,58.4
				c-0.3,2.1-0.7,4.3-1.2,6.4c-0.2,1-0.5,2-0.8,2.9c-0.3,1.1-0.8,3.3-1.6,4.1c-1.8,1.8-3.7-2.3-4.4-3.8c-1.1-2.1-1.9-4.2-2.5-6.5
				c-1.8-6.3-4.4-16.7,1.3-21.9c2-1.8,4.8-2.6,7.4-2.9c3.2-0.4,4.5,1.3,5.4,4c1.7,5,2.7,10.2,2.9,15.4c0.1,1.3,2,1.6,2.4,0.3
				c1.9-6,4.1-11.9,6.9-17.6c-0.7-0.1-1.5-0.2-2.2-0.3c0.5,1.8,1.4,6.7,4.3,5.6c1.4-0.5,2.7-2.2,3.8-3.2c1.9-1.7,3.8-3.4,5.7-5.2
				c-0.7-0.4-1.3-0.8-2-1.2c-2.5,8.2,11,7.3,15.2,6.2c-0.2-0.8-0.4-1.6-0.6-2.3c-7.6,2-15,4.4-22.3,7.2c-1.2,0.5-1.1,2.3,0.3,2.4
				c7.5,0.3,15.1,0.4,22.6,0.2c1.5,0,1.6-2.4,0-2.4c-7.5,0.2-15.1,0.1-22.6-0.2c0.1,0.8,0.2,1.6,0.3,2.4c7.3-2.9,14.8-5.3,22.3-7.2
				c1.5-0.4,0.9-2.7-0.6-2.3c-2.4,0.6-13.9,2.3-12.3-3.2c0.4-1.2-1.2-1.9-2-1.2c-2,1.8-4,3.7-6,5.5c-0.5,0.4-0.9,0.9-1.4,1.3
				c-0.2,0.2-0.5,0.4-0.7,0.6c-0.3,0.5-0.5,0.4-0.5-0.1c-0.6-0.6-0.9-2.7-1.1-3.5c-0.3-0.9-1.7-1.3-2.2-0.3
				c-2.8,5.9-5.2,12-7.1,18.2c0.8,0.1,1.6,0.2,2.4,0.3c-0.3-5.6-1.3-11.2-3.2-16.5c-1.6-4.3-4.1-6-8.7-5.3
				c-4.3,0.6-8.3,2.5-10.4,6.5c-1.9,3.8-1.9,8.2-1.4,12.3c0.4,3.4,5.4,26.5,12.1,21c1.4-1.1,2-3.5,2.6-5.1c1-2.9,1.6-5.8,2-8.8
				c0.9-5.8,1.5-11.6,2.2-17.4c1.7-14.3,3.5-28.7,5.2-43c-0.7,0.2-1.5,0.4-2.2,0.6c4.9,8,6.6,17.4,4.9,26.6
				C286.1,421.1,288.5,421.7,288.8,420.2L288.8,420.2z"/>
		</g>
		<g>
			
				<ellipse transform="matrix(3.049932e-02 -0.9995 0.9995 3.049932e-02 -28.2127 829.6561)" style="fill:#D6F2F5;" cx="413.6" cy="429.4" rx="36.3" ry="36.3"/>
		</g>
		
			<ellipse transform="matrix(3.049958e-02 -0.9995 0.9995 3.049958e-02 -28.2129 829.6559)" style="fill:#FFFFFF;" cx="413.6" cy="429.4" rx="26.4" ry="26.4"/>
		<g>
			<path style="fill:#D6F2F5;" d="M413.6,473.8c-0.5,0-0.9,0-1.4,0c-24.5-0.7-43.8-21.3-43-45.7c0.8-24.6,20.9-43.8,45.7-43
				c11.8,0.4,22.8,5.3,31,13.9c8.1,8.6,12.4,19.9,12,31.8C457.2,454.9,437.7,473.8,413.6,473.8z M413.5,388.5
				c-22.2,0-40.2,17.4-40.8,39.6c-0.7,22.5,17.1,41.4,39.6,42.1c22.8,0.7,41.4-17,42.1-39.6c0.3-10.9-3.6-21.3-11.1-29.3
				c-7.5-8-17.6-12.5-28.5-12.8C414.4,388.5,414,388.5,413.5,388.5z"/>
		</g>
		<polygon style="fill:#C3D82E;" points="408.9,444.8 394.8,430.8 401.2,425.2 409.3,433.2 426.4,418.1 432.4,424.1 		"/>
		<g>
			<defs>
				<rect id="SVGID_15_" x="197.5" y="129.9" width="274.1" height="366.5"/>
			</defs>
			<clipPath id="SVGID_16_">
				<use xlink:href="#SVGID_15_"  style="overflow:visible;"/>
			</clipPath>
		</g>
	</g>
</g>
</svg>
