<?xml version="1.0" encoding="utf-8"?>
<!-- Generator: Adobe Illustrator 21.1.0, SVG Export Plug-In . SVG Version: 6.00 Build 0)  -->
<svg version="1.1" id="_x2014_лой_x5F_1" xmlns="http://www.w3.org/2000/svg" xmlns:xlink="http://www.w3.org/1999/xlink"
	 x="0px" y="0px" viewBox="0 0 697.8 648.1" style="enable-background:new 0 0 697.8 648.1;" xml:space="preserve">
<linearGradient id="SVGID_1_" gradientUnits="userSpaceOnUse" x1="-1.231" y1="519.6389" x2="650.0303" y2="519.6389">
	<stop  offset="0" style="stop-color:#41B782"/>
	<stop  offset="0.1711" style="stop-color:#4FBC7D"/>
	<stop  offset="0.7167" style="stop-color:#77CB6F"/>
	<stop  offset="1" style="stop-color:#86D169"/>
</linearGradient>
<path style="fill:url(#SVGID_1_);" d="M578.9,448.5H-1.2v142.3h580.1c39.1,0,71.1-32,71.1-71.1v0C650,480.5,618,448.5,578.9,448.5z"
	/>
<g>
	<g>
		<g>
			
				<rect x="201.9" y="141.5" transform="matrix(0.9994 -3.465055e-02 3.465055e-02 0.9994 -10.3643 10.2051)" style="fill:#99C159;" width="174.6" height="325.3"/>
			<path style="fill:#76A741;" d="M327,169.1l-84.7,2.9c0.4,11.7-8.8,21.5-20.5,22l7.8,224.6c11.7-0.4,21.5,8.8,22,20.5l84.7-2.9
				c-0.4-11.7,8.8-21.5,20.5-22l-7.8-224.6C337.2,190,327.4,180.8,327,169.1z"/>
			
				<ellipse transform="matrix(0.9994 -3.464986e-02 3.464986e-02 0.9994 -10.3641 10.2049)" style="fill:#ADD581;" cx="289.2" cy="304.1" rx="51.7" ry="43"/>
			<g>
				
					<ellipse transform="matrix(0.9994 -3.465039e-02 3.465039e-02 0.9994 -13.0408 10.3444)" style="fill:#ADD581;" cx="291.9" cy="381.4" rx="18.9" ry="18.9"/>
				
					<ellipse transform="matrix(0.9994 -3.465214e-02 3.465214e-02 0.9994 -7.6881 10.0663)" style="fill:#ADD581;" cx="286.6" cy="226.8" rx="18.9" ry="18.9"/>
			</g>
			<path style="fill:#76A741;" d="M301.3,284.8c-19.5,0.7-12.5,25.9-25.6,26.4c-5.3,0.2-8.2-4.6-8.4-9c-0.1-2.7,1.3-5.4,1.2-8.1
				c-0.1-2.1-1-3-3.1-3c-3.7,0.1-5.1,5.8-5.5,10l-5.4,0.2c-2.2,0.1-3.9,1.9-3.9,4.1c0.1,2.2,1.9,3.9,4.1,3.9l5.5-0.2
				c1.6,7.8,7,13.5,15.9,13.2c19-0.7,10.8-25.9,25.4-26.4c5.5-0.2,9,4.6,9.1,9.2c0.2,5.3-4,10.7-3.9,13.2c0.1,2.3,2.3,3.9,5,3.8
				c4-0.1,6.5-9.6,7.3-15.2l4.8-0.2c2.2-0.1,3.9-1.9,3.9-4.1c-0.1-2.2-1.9-3.9-4.1-3.9l-4.8,0.2
				C317.1,290.7,311.6,284.4,301.3,284.8z"/>
		</g>
		<g>
			
				<rect x="166.4" y="197" transform="matrix(0.2024 -0.9793 0.9793 0.2024 -16.0165 548.9985)" style="fill:#99C16D;" width="325.3" height="174.6"/>
			<path style="fill:#76A741;" d="M397.5,162.1l-83-17.1c-2.4,11.5-13.6,18.9-25.1,16.5L244,381.5c11.5,2.4,18.9,13.6,16.5,25.1
				l83,17.1c2.4-11.5,13.6-18.9,25.1-16.5L414,187.1C402.6,184.8,395.2,173.5,397.5,162.1z"/>
			
				<ellipse transform="matrix(0.2024 -0.9793 0.9793 0.2024 -16.0162 548.9988)" style="fill:#ADD581;" cx="329" cy="284.3" rx="43" ry="51.7"/>
			<g>
				
					<ellipse transform="matrix(0.2024 -0.9793 0.9793 0.2024 -102.6698 594.0836)" style="fill:#ADD581;" cx="313.4" cy="360.1" rx="18.9" ry="18.9"/>
				
					<ellipse transform="matrix(0.2024 -0.9793 0.9793 0.2024 70.6376 503.9145)" style="fill:#ADD581;" cx="344.7" cy="208.6" rx="18.9" ry="18.9"/>
			</g>
			<path style="fill:#76A741;" d="M345.3,268.4c-19.1-3.9-18.3,22.2-31.1,19.6c-5.2-1.1-6.9-6.4-6-10.7c0.6-2.7,2.5-5,3-7.6
				c0.4-2.1-0.2-3.2-2.3-3.6c-3.7-0.8-6.3,4.4-7.7,8.5l-5.3-1.1c-2.2-0.4-4.3,0.9-4.7,3.1c-0.4,2.2,0.9,4.3,3.1,4.7l5.4,1.1
				c-0.2,7.9,3.6,14.8,12.3,16.6c18.6,3.8,16.6-22.6,30.9-19.6c5.4,1.1,7.6,6.6,6.7,11.1c-1.1,5.2-6.4,9.5-6.9,11.9
				c-0.5,2.3,1.3,4.4,4,4.9c3.9,0.8,8.6-7.8,10.6-13l4.7,1c2.2,0.4,4.3-0.9,4.7-3.1c0.4-2.2-0.9-4.3-3.1-4.7l-4.7-1
				C359.3,277.9,355.4,270.5,345.3,268.4z"/>
		</g>
		<g>
			
				<rect x="204.7" y="189.4" transform="matrix(0.4774 -0.8787 0.8787 0.4774 -51.1563 467.3458)" style="fill:#ADD581;" width="325.3" height="174.6"/>
			<path style="fill:#76A741;" d="M468.3,179.5l-74.5-40.5c-5.6,10.3-18.5,14.1-28.8,8.5L257.8,345.1c10.3,5.6,14.1,18.5,8.5,28.8
				l74.5,40.5c5.6-10.3,18.5-14.1,28.8-8.5l107.3-197.5C466.5,202.7,462.7,189.8,468.3,179.5z"/>
			
				<ellipse transform="matrix(0.4774 -0.8787 0.8787 0.4774 -51.1562 467.3458)" style="fill:#ADD581;" cx="367.3" cy="276.7" rx="43" ry="51.7"/>
			<g>
				
					<ellipse transform="matrix(0.4774 -0.8787 0.8787 0.4774 -130.1619 470.4163)" style="fill:#ADD581;" cx="330.4" cy="344.6" rx="18.9" ry="18.9"/>
				
					<ellipse transform="matrix(0.4774 -0.8787 0.8787 0.4774 27.8494 464.2754)" style="fill:#ADD581;" cx="404.2" cy="208.7" rx="18.9" ry="18.9"/>
			</g>
			<path style="fill:#76A741;" d="M387.5,266.2c-17.1-9.3-24,16-35.4,9.7c-4.7-2.5-4.7-8.1-2.6-12c1.3-2.4,3.8-4,5.1-6.4
				c1-1.9,0.7-3.1-1.2-4.1c-3.3-1.8-7.3,2.4-9.8,5.9l-4.8-2.6c-1.9-1.1-4.4-0.3-5.4,1.6c-1.1,1.9-0.3,4.4,1.6,5.4l4.9,2.6
				c-2.5,7.5-0.9,15.2,7,19.5c16.7,9.1,22.4-16.8,35.3-9.8c4.8,2.6,5.4,8.5,3.2,12.5c-2.5,4.7-8.9,7.2-10.1,9.4
				c-1.1,2,0,4.5,2.4,5.9c3.5,1.9,10.5-5,13.9-9.4l4.2,2.3c1.9,1.1,4.4,0.3,5.4-1.6c1.1-1.9,0.3-4.4-1.6-5.4l-4.3-2.3
				C398.2,279.3,396.6,271.1,387.5,266.2z"/>
		</g>
	</g>
	<g>
		<g>
			<linearGradient id="SVGID_2_" gradientUnits="userSpaceOnUse" x1="188.8344" y1="418.0065" x2="474.2985" y2="418.0065">
				<stop  offset="0" style="stop-color:#A97C50"/>
				<stop  offset="1" style="stop-color:#8B5E3C"/>
			</linearGradient>
			<path style="fill:url(#SVGID_2_);" d="M451,536.7H212.1c-12.9,0-23.3-10.4-23.3-23.3V322.6c0-12.9,10.4-23.3,23.3-23.3H451
				c12.9,0,23.3,10.4,23.3,23.3v190.8C474.3,526.3,463.9,536.7,451,536.7z"/>
			<g>
				<rect x="301.4" y="313" style="fill:#C49A6C;" width="15" height="3.7"/>
				<rect x="240" y="519.3" style="fill:#C49A6C;" width="15" height="3.7"/>
				<rect x="241.3" y="313" style="fill:#C49A6C;" width="15" height="3.7"/>
				<rect x="201.2" y="313" style="fill:#C49A6C;" width="15" height="3.7"/>
				<rect x="220" y="519.3" style="fill:#C49A6C;" width="15" height="3.7"/>
				<rect x="260.1" y="519.3" style="fill:#C49A6C;" width="15" height="3.7"/>
				<rect x="300.2" y="519.3" style="fill:#C49A6C;" width="15" height="3.7"/>
				<rect x="281.4" y="313" style="fill:#C49A6C;" width="15" height="3.7"/>
				<rect x="261.3" y="313" style="fill:#C49A6C;" width="15" height="3.7"/>
				<rect x="280.1" y="519.3" style="fill:#C49A6C;" width="15" height="3.7"/>
				<rect x="200" y="519.3" style="fill:#C49A6C;" width="15" height="3.7"/>
				<rect x="221.2" y="313" style="fill:#C49A6C;" width="15" height="3.7"/>
				<path style="fill:#C49A6C;" d="M455.1,318l2.5-2.8c-1.6-1.4-3.7-2.2-5.8-2.2h-10v3.7h10C453,316.7,454.2,317.2,455.1,318z"/>
				<rect x="456.8" y="441.2" style="fill:#C49A6C;" width="3.7" height="15"/>
				<rect x="456.8" y="461.2" style="fill:#C49A6C;" width="3.7" height="15"/>
				<path style="fill:#C49A6C;" d="M456.8,514.2c0,0.5-0.1,1-0.2,1.5l3.6,1.1c0.3-0.9,0.4-1.8,0.4-2.7v-12.9h-3.7V514.2z"/>
				<rect x="456.8" y="421.1" style="fill:#C49A6C;" width="3.7" height="15"/>
				<rect x="456.8" y="481.3" style="fill:#C49A6C;" width="3.7" height="15"/>
				<path style="fill:#C49A6C;" d="M451.8,519.3h-11.3v3.7h11.3c1.6,0,3.2-0.4,4.5-1.3l-1.9-3.2C453.6,519,452.7,519.3,451.8,519.3z
					"/>
				<path style="fill:#C49A6C;" d="M460.5,320.7l-3.7,0.5c0,0.2,0,0.4,0,0.7v14.1h3.7v-14.1C460.6,321.4,460.6,321,460.5,320.7z"/>
				<rect x="456.8" y="341" style="fill:#C49A6C;" width="3.7" height="15"/>
				<rect x="456.8" y="361" style="fill:#C49A6C;" width="3.7" height="15"/>
				<rect x="456.8" y="381" style="fill:#C49A6C;" width="3.7" height="15"/>
				<rect x="456.8" y="401.1" style="fill:#C49A6C;" width="3.7" height="15"/>
				<rect x="361.6" y="313" style="fill:#C49A6C;" width="15" height="3.7"/>
				<rect x="360.3" y="519.3" style="fill:#C49A6C;" width="15" height="3.7"/>
				<rect x="341.5" y="313" style="fill:#C49A6C;" width="15" height="3.7"/>
				<rect x="320.2" y="519.3" style="fill:#C49A6C;" width="15" height="3.7"/>
				<rect x="340.3" y="519.3" style="fill:#C49A6C;" width="15" height="3.7"/>
				<rect x="321.5" y="313" style="fill:#C49A6C;" width="15" height="3.7"/>
				<rect x="380.4" y="519.3" style="fill:#C49A6C;" width="15" height="3.7"/>
				<rect x="420.4" y="519.3" style="fill:#C49A6C;" width="15" height="3.7"/>
				<rect x="401.6" y="313" style="fill:#C49A6C;" width="15" height="3.7"/>
				<rect x="421.7" y="313" style="fill:#C49A6C;" width="15" height="3.7"/>
				<rect x="381.6" y="313" style="fill:#C49A6C;" width="15" height="3.7"/>
				<rect x="400.4" y="519.3" style="fill:#C49A6C;" width="15" height="3.7"/>
			</g>
		</g>
		<path style="opacity:0.35;fill:#231F20;" d="M456.2,454.6h-50.9c-13.1,0-23.7-10.6-23.7-23.7v-13.5c0-13.1,10.6-23.7,23.7-23.7
			h50.9c13.1,0,23.7,10.6,23.7,23.7V431C479.9,444,469.3,454.6,456.2,454.6z"/>
		<linearGradient id="SVGID_3_" gradientUnits="userSpaceOnUse" x1="749.1019" y1="415.3018" x2="322.7825" y2="418.9961">
			<stop  offset="0" style="stop-color:#8B5E3C"/>
			<stop  offset="1" style="stop-color:#A97C50"/>
		</linearGradient>
		<path style="fill:url(#SVGID_3_);" d="M462.4,448.4h-50.9c-13.1,0-23.7-10.6-23.7-23.7v-13.5c0-13.1,10.6-23.7,23.7-23.7h50.9
			c13.1,0,23.7,10.6,23.7,23.7v13.5C486.1,437.8,475.5,448.4,462.4,448.4z"/>
		<linearGradient id="SVGID_4_" gradientUnits="userSpaceOnUse" x1="404.0655" y1="409.8473" x2="441.7248" y2="428.9094">
			<stop  offset="0" style="stop-color:#FBB040"/>
			<stop  offset="4.007881e-02" style="stop-color:#FBB344"/>
			<stop  offset="7.798924e-02" style="stop-color:#FBBE4F"/>
			<stop  offset="0.115" style="stop-color:#FAD062"/>
			<stop  offset="0.1513" style="stop-color:#FAE97D"/>
			<stop  offset="0.1774" style="stop-color:#F9FF95"/>
			<stop  offset="0.3058" style="stop-color:#FCFFA3"/>
			<stop  offset="0.4247" style="stop-color:#FFFFB4"/>
			<stop  offset="0.4374" style="stop-color:#FFF9AB"/>
			<stop  offset="0.5092" style="stop-color:#FDDA7D"/>
			<stop  offset="0.5731" style="stop-color:#FCC35C"/>
			<stop  offset="0.6259" style="stop-color:#FBB547"/>
			<stop  offset="0.6613" style="stop-color:#FBB040"/>
			<stop  offset="0.6976" style="stop-color:#FCBF5B"/>
			<stop  offset="0.7624" style="stop-color:#FDD685"/>
			<stop  offset="0.8256" style="stop-color:#FEE8A6"/>
			<stop  offset="0.8858" style="stop-color:#FEF5BE"/>
			<stop  offset="0.9417" style="stop-color:#FFFCCC"/>
			<stop  offset="0.9892" style="stop-color:#FFFFD1"/>
		</linearGradient>
		<circle style="fill:url(#SVGID_4_);" cx="420.2" cy="418" r="18.5"/>
	</g>
</g>
</svg>
