<?xml version="1.0" encoding="utf-8"?>
<!-- Generator: Adobe Illustrator 21.1.0, SVG Export Plug-In . SVG Version: 6.00 Build 0)  -->
<svg version="1.1" id="_x2014_лой_x5F_1" xmlns="http://www.w3.org/2000/svg" xmlns:xlink="http://www.w3.org/1999/xlink"
	 x="0px" y="0px" viewBox="0 0 1000 1000" style="enable-background:new 0 0 1000 1000;" xml:space="preserve">
<g>
	<g>
		
			<rect x="241.1" y="204.9" transform="matrix(0.9994 -3.464980e-02 3.464980e-02 0.9994 -17.2497 14.2382)" style="fill:#99C159;" width="322.1" height="599.8"/>
		<path style="fill:#76A741;" d="M471.7,255.8l-156.2,5.4c0.7,21.6-16.2,39.7-37.8,40.5L292.1,716c21.6-0.7,39.7,16.2,40.5,37.8
			l156.2-5.4c-0.7-21.6,16.2-39.7,37.8-40.5l-14.4-414.2C490.6,294.4,472.5,277.5,471.7,255.8z"/>
		
			<ellipse transform="matrix(0.9994 -3.464909e-02 3.464909e-02 0.9994 -17.2493 14.2379)" style="fill:#ADD581;" cx="402.2" cy="504.8" rx="95.3" ry="79.2"/>
		<g>
			
				<ellipse transform="matrix(0.9994 -3.465002e-02 3.465002e-02 0.9994 -22.1856 14.4951)" style="fill:#ADD581;" cx="407.1" cy="647.3" rx="34.8" ry="34.8"/>
			
				<ellipse transform="matrix(0.9994 -3.464838e-02 3.464838e-02 0.9994 -12.3134 13.9808)" style="fill:#ADD581;" cx="397.2" cy="362.3" rx="34.8" ry="34.8"/>
		</g>
		<path style="fill:#76A741;" d="M424.4,469.2c-35.9,1.2-23.1,47.8-47.2,48.6c-9.8,0.3-15.1-8.5-15.4-16.7c-0.2-5,2.3-10,2.2-14.9
			c-0.1-3.9-1.8-5.6-5.7-5.5c-6.9,0.2-9.4,10.7-10.1,18.5l-10,0.3c-4.1,0.1-7.3,3.6-7.1,7.6c0.1,4.1,3.6,7.3,7.6,7.1l10.2-0.4
			c3,14.3,12.8,25,29.3,24.4c35-1.2,20-47.7,46.9-48.6c10.1-0.3,16.5,8.4,16.8,16.9c0.3,9.8-7.4,19.8-7.2,24.4
			c0.1,4.3,4.2,7.3,9.2,7.1c7.4-0.3,12-17.8,13.4-27.9l8.8-0.3c4.1-0.1,7.3-3.6,7.1-7.6c-0.1-4.1-3.6-7.3-7.6-7.1l-8.9,0.3
			C453.6,480,443.4,468.5,424.4,469.2z"/>
	</g>
	<g>
		
			<rect x="175.6" y="307.3" transform="matrix(0.2024 -0.9793 0.9793 0.2024 -79.3372 839.2017)" style="fill:#99C16D;" width="599.8" height="322.1"/>
		<path style="fill:#76A741;" d="M601.9,242.8l-153-31.6c-4.4,21.2-25.1,34.8-46.3,30.4l-83.9,405.9c21.2,4.4,34.8,25.1,30.4,46.3
			l153,31.6c4.4-21.2,25.1-34.8,46.3-30.4l83.9-405.9C611.1,284.7,597.5,264,601.9,242.8z"/>
		
			<ellipse transform="matrix(0.2024 -0.9793 0.9793 0.2024 -79.3367 839.2017)" style="fill:#ADD581;" cx="475.5" cy="468.3" rx="79.2" ry="95.3"/>
		<g>
			
				<ellipse transform="matrix(0.2024 -0.9793 0.9793 0.2024 -239.1367 922.3394)" style="fill:#ADD581;" cx="446.6" cy="608" rx="34.8" ry="34.8"/>
			
				<ellipse transform="matrix(0.2024 -0.9793 0.9793 0.2024 80.4641 756.0635)" style="fill:#ADD581;" cx="504.4" cy="328.6" rx="34.8" ry="34.8"/>
		</g>
		<path style="fill:#76A741;" d="M505.5,438.9c-35.2-7.3-33.7,41-57.4,36.1c-9.6-2-12.7-11.8-11-19.8c1-4.9,4.6-9.2,5.6-14
			c0.8-3.9-0.4-5.9-4.3-6.7c-6.8-1.4-11.6,8.1-14.2,15.6l-9.8-2c-4-0.8-7.9,1.7-8.7,5.7c-0.8,4,1.7,7.9,5.7,8.7l10,2.1
			c-0.4,14.6,6.6,27.3,22.7,30.6c34.3,7.1,30.7-41.6,57-36.2c9.9,2,14.1,12.1,12.4,20.4c-2,9.6-11.8,17.5-12.8,22
			c-0.9,4.2,2.4,8.1,7.3,9.1c7.2,1.5,15.9-14.4,19.6-24l8.6,1.8c4,0.8,7.9-1.7,8.7-5.7c0.8-4-1.7-7.9-5.7-8.7l-8.7-1.8
			C531.3,456.4,524.1,442.8,505.5,438.9z"/>
	</g>
	
		<rect x="246.2" y="293.2" transform="matrix(0.4774 -0.8787 0.8787 0.4774 -113.6833 717.2409)" style="fill:#ADD581;" width="599.8" height="322.1"/>
	<path style="fill:#76A741;" d="M732.4,275l-137.3-74.6c-10.3,19-34.1,26-53.1,15.7L344.2,580.3c19,10.3,26,34.1,15.7,53.1
		L497.2,708c10.3-19,34.1-26,53.1-15.7l197.9-364.2C729.1,317.8,722.1,294,732.4,275z"/>
	<g>
		
			<ellipse transform="matrix(0.4774 -0.8787 0.8787 0.4774 -259.376 722.912)" style="fill:#ADD581;" cx="478.1" cy="579.5" rx="34.8" ry="34.8"/>
		
			<ellipse transform="matrix(0.4774 -0.8787 0.8787 0.4774 32.0134 711.5817)" style="fill:#ADD581;" cx="614.2" cy="328.9" rx="34.8" ry="34.8"/>
	</g>
	<g>
		<g>
			<linearGradient id="SVGID_1_" gradientUnits="userSpaceOnUse" x1="217" y1="714.8152" x2="743.4266" y2="714.8152">
				<stop  offset="0" style="stop-color:#A97C50"/>
				<stop  offset="1" style="stop-color:#8B5E3C"/>
			</linearGradient>
			<path style="fill:url(#SVGID_1_);" d="M720.1,933.7H240.3c-12.9,0-23.3-10.4-23.3-23.3V519.2c0-12.9,10.4-23.3,23.3-23.3h479.9
				c12.9,0,23.3,10.4,23.3,23.3v391.3C743.4,923.3,733,933.7,720.1,933.7z"/>
			<g>
				<rect x="424.6" y="521.2" style="fill:#C49A6C;" width="27.7" height="6.9"/>
				<rect x="311.4" y="901.6" style="fill:#C49A6C;" width="27.7" height="6.9"/>
				<rect x="313.7" y="521.2" style="fill:#C49A6C;" width="27.7" height="6.9"/>
				<rect x="239.8" y="521.2" style="fill:#C49A6C;" width="27.7" height="6.9"/>
				<rect x="274.5" y="901.6" style="fill:#C49A6C;" width="27.7" height="6.9"/>
				<rect x="348.4" y="901.6" style="fill:#C49A6C;" width="27.7" height="6.9"/>
				<rect x="422.3" y="901.6" style="fill:#C49A6C;" width="27.7" height="6.9"/>
				<rect x="387.7" y="521.2" style="fill:#C49A6C;" width="27.7" height="6.9"/>
				<rect x="350.7" y="521.2" style="fill:#C49A6C;" width="27.7" height="6.9"/>
				<rect x="385.4" y="901.6" style="fill:#C49A6C;" width="27.7" height="6.9"/>
				<rect x="237.5" y="901.6" style="fill:#C49A6C;" width="27.7" height="6.9"/>
				<rect x="276.8" y="521.2" style="fill:#C49A6C;" width="27.7" height="6.9"/>
				<path style="fill:#C49A6C;" d="M708,530.4l4.5-5.2c-3-2.6-6.8-4-10.7-4h-18.5v6.9h18.5C704.1,528.1,706.3,528.9,708,530.4z"/>
				<rect x="711.2" y="757.5" style="fill:#C49A6C;" width="6.9" height="27.7"/>
				<rect x="711.2" y="794.5" style="fill:#C49A6C;" width="6.9" height="27.7"/>
				<path style="fill:#C49A6C;" d="M711.2,892.2c0,1-0.2,1.9-0.4,2.9l6.6,2.1c0.5-1.6,0.8-3.3,0.8-5v-23.7h-6.9V892.2z"/>
				<rect x="711.2" y="720.6" style="fill:#C49A6C;" width="6.9" height="27.7"/>
				<rect x="711.2" y="831.5" style="fill:#C49A6C;" width="6.9" height="27.7"/>
				<path style="fill:#C49A6C;" d="M701.9,901.6h-20.8v6.9h20.8c2.9,0,5.8-0.8,8.4-2.3l-3.6-5.9
					C705.2,901.1,703.6,901.5,701.9,901.6z"/>
				<path style="fill:#C49A6C;" d="M718,535.3l-6.8,0.9c0.1,0.4,0.1,0.8,0.1,1.2v26h6.9v-26C718.1,536.7,718.1,536,718,535.3z"/>
				<rect x="711.2" y="572.7" style="fill:#C49A6C;" width="6.9" height="27.7"/>
				<rect x="711.2" y="609.7" style="fill:#C49A6C;" width="6.9" height="27.7"/>
				<rect x="711.2" y="646.7" style="fill:#C49A6C;" width="6.9" height="27.7"/>
				<rect x="711.2" y="683.6" style="fill:#C49A6C;" width="6.9" height="27.7"/>
				<rect x="535.5" y="521.2" style="fill:#C49A6C;" width="27.7" height="6.9"/>
				<rect x="533.2" y="901.6" style="fill:#C49A6C;" width="27.7" height="6.9"/>
				<rect x="498.6" y="521.2" style="fill:#C49A6C;" width="27.7" height="6.9"/>
				<rect x="459.3" y="901.6" style="fill:#C49A6C;" width="27.7" height="6.9"/>
				<rect x="496.3" y="901.6" style="fill:#C49A6C;" width="27.7" height="6.9"/>
				<rect x="461.6" y="521.2" style="fill:#C49A6C;" width="27.7" height="6.9"/>
				<rect x="570.2" y="901.6" style="fill:#C49A6C;" width="27.7" height="6.9"/>
				<rect x="644.1" y="901.6" style="fill:#C49A6C;" width="27.7" height="6.9"/>
				<rect x="609.4" y="521.2" style="fill:#C49A6C;" width="27.7" height="6.9"/>
				<rect x="646.4" y="521.2" style="fill:#C49A6C;" width="27.7" height="6.9"/>
				<rect x="572.5" y="521.2" style="fill:#C49A6C;" width="27.7" height="6.9"/>
				<rect x="607.1" y="901.6" style="fill:#C49A6C;" width="27.7" height="6.9"/>
			</g>
		</g>
		<path style="opacity:0.35;fill:#231F20;" d="M730,782.3H596.2c-13.1,0-23.7-10.6-23.7-23.7v-64.8c0-13.1,10.6-23.7,23.7-23.7H730
			c13.1,0,23.7,10.6,23.7,23.7v64.8C753.7,771.7,743.1,782.3,730,782.3z"/>
		<linearGradient id="SVGID_2_" gradientUnits="userSpaceOnUse" x1="1251.2867" y1="709.8184" x2="463.6144" y2="716.6442">
			<stop  offset="0" style="stop-color:#8B5E3C"/>
			<stop  offset="1" style="stop-color:#A97C50"/>
		</linearGradient>
		<path style="fill:url(#SVGID_2_);" d="M741.5,770.8H607.7c-13.1,0-23.7-10.6-23.7-23.7v-64.8c0-13.1,10.6-23.7,23.7-23.7h133.8
			c13.1,0,23.7,10.6,23.7,23.7v64.8C765.2,760.3,754.6,770.8,741.5,770.8z"/>
		<linearGradient id="SVGID_3_" gradientUnits="userSpaceOnUse" x1="613.9091" y1="699.7693" x2="683.3569" y2="734.9218">
			<stop  offset="0" style="stop-color:#FBB040"/>
			<stop  offset="4.007881e-02" style="stop-color:#FBB344"/>
			<stop  offset="7.798924e-02" style="stop-color:#FBBE4F"/>
			<stop  offset="0.115" style="stop-color:#FAD062"/>
			<stop  offset="0.1513" style="stop-color:#FAE97D"/>
			<stop  offset="0.1774" style="stop-color:#F9FF95"/>
			<stop  offset="0.3058" style="stop-color:#FCFFA3"/>
			<stop  offset="0.4247" style="stop-color:#FFFFB4"/>
			<stop  offset="0.4374" style="stop-color:#FFF9AB"/>
			<stop  offset="0.5092" style="stop-color:#FDDA7D"/>
			<stop  offset="0.5731" style="stop-color:#FCC35C"/>
			<stop  offset="0.6259" style="stop-color:#FBB547"/>
			<stop  offset="0.6613" style="stop-color:#FBB040"/>
			<stop  offset="0.6976" style="stop-color:#FCBF5B"/>
			<stop  offset="0.7624" style="stop-color:#FDD685"/>
			<stop  offset="0.8256" style="stop-color:#FEE8A6"/>
			<stop  offset="0.8858" style="stop-color:#FEF5BE"/>
			<stop  offset="0.9417" style="stop-color:#FFFCCC"/>
			<stop  offset="0.9892" style="stop-color:#FFFFD1"/>
		</linearGradient>
		<circle style="fill:url(#SVGID_3_);" cx="643.6" cy="714.8" r="34.2"/>
	</g>
</g>
</svg>
