<?xml version="1.0" encoding="utf-8"?>
<!-- Generator: Adobe Illustrator 21.1.0, SVG Export Plug-In . SVG Version: 6.00 Build 0)  -->
<svg version="1.1" xmlns="http://www.w3.org/2000/svg" xmlns:xlink="http://www.w3.org/1999/xlink" x="0px" y="0px"
	 viewBox="0 0 529.9 522" style="enable-background:new 0 0 529.9 522;" xml:space="preserve">
<g id="Layer_1">
</g>
<g id="Layer_3">
	<g>
		<polygon style="opacity:0.13;fill:#231F20;" points="384,448.4 279.9,447.7 239.2,456.5 270,460.9 96,494.6 31.3,114.7 
			315.4,66.3 356.6,342.5 		"/>
		<polygon style="fill:#FAFAFA;" points="359.4,431.8 268.1,451.6 80.4,483.6 15.7,103.7 299.8,55.3 347.7,336.3 		"/>
		<defs>
			<filter id="Adobe_OpacityMaskFilter" filterUnits="userSpaceOnUse" x="17.9" y="57.1" width="335.1" height="426.2">
				<feFlood  style="flood-color:white;flood-opacity:1" result="back"/>
				<feBlend  in="SourceGraphic" in2="back" mode="normal"/>
			</filter>
		</defs>
		<mask maskUnits="userSpaceOnUse" x="17.9" y="57.1" width="335.1" height="426.2" id="SVGID_1_">
			<g style="filter:url(#Adobe_OpacityMaskFilter);">
				<defs>
					<filter id="Adobe_OpacityMaskFilter_1_" filterUnits="userSpaceOnUse" x="17.9" y="57.1" width="335.1" height="426.2">
						<feFlood  style="flood-color:white;flood-opacity:1" result="back"/>
						<feBlend  in="SourceGraphic" in2="back" mode="normal"/>
					</filter>
				</defs>
				<mask maskUnits="userSpaceOnUse" x="17.9" y="57.1" width="335.1" height="426.2" id="SVGID_1_">
					<g style="filter:url(#Adobe_OpacityMaskFilter_1_);">
					</g>
				</mask>
				
					<linearGradient id="SVGID_2_" gradientUnits="userSpaceOnUse" x1="-229.6014" y1="48.7693" x2="180.1176" y2="255.5026" gradientTransform="matrix(0.9858 -0.168 0.168 0.9858 -42.3466 44.6255)">
					<stop  offset="0.3602" style="stop-color:#FFFFFF"/>
					<stop  offset="1" style="stop-color:#000000"/>
				</linearGradient>
				<polygon style="mask:url(#SVGID_1_);fill:url(#SVGID_2_);" points="353,427.5 267.5,451.8 82.4,483.3 17.9,105.2 299.9,57.1 
					350.3,352.8 				"/>
			</g>
		</mask>
		
			<linearGradient id="SVGID_3_" gradientUnits="userSpaceOnUse" x1="-229.6014" y1="48.7693" x2="180.1176" y2="255.5026" gradientTransform="matrix(0.9858 -0.168 0.168 0.9858 -42.3466 44.6255)">
			<stop  offset="0.3602" style="stop-color:#000000"/>
			<stop  offset="1" style="stop-color:#000000"/>
		</linearGradient>
		<polygon style="opacity:3.000000e-02;fill:url(#SVGID_3_);" points="353,427.5 267.5,451.8 82.4,483.3 17.9,105.2 299.9,57.1 
			350.3,352.8 		"/>
		<path style="fill:#A3BBC4;" d="M284.5,175.2l-213,36.3c-3,0.5-5.8-1.5-6.3-4.5l0,0c-0.5-3,1.5-5.8,4.5-6.3l213-36.3
			c3-0.5,5.8,1.5,6.3,4.5l0,0C289.5,171.9,287.5,174.7,284.5,175.2z"/>
		<path style="fill:#A3BBC4;" d="M229.6,141.9l-117.4,20c-3,0.5-5.8-1.5-6.3-4.5l0,0c-0.5-3,1.5-5.8,4.5-6.3l117.4-20
			c3-0.5,5.8,1.5,6.3,4.5l0,0C234.6,138.6,232.6,141.4,229.6,141.9z"/>
		<path style="fill:#A3BBC4;" d="M289.6,204.9l-213,36.3c-3,0.5-5.8-1.5-6.3-4.5h0c-0.5-3,1.5-5.8,4.5-6.3l213-36.3
			c3-0.5,5.8,1.5,6.3,4.5l0,0C294.6,201.5,292.6,204.4,289.6,204.9z"/>
		<path style="fill:#A3BBC4;" d="M299.7,264.2l-213,36.3c-3,0.5-5.8-1.5-6.3-4.5l0,0c-0.5-3,1.5-5.8,4.5-6.3l213-36.3
			c3-0.5,5.8,1.5,6.3,4.5v0C304.7,260.8,302.7,263.7,299.7,264.2z"/>
		<path style="fill:#A3BBC4;" d="M304.7,293.8l-213,36.3c-3,0.5-5.8-1.5-6.3-4.5l0,0c-0.5-3,1.5-5.8,4.5-6.3l213-36.3
			c3-0.5,5.8,1.5,6.3,4.5l0,0C309.7,290.5,307.7,293.3,304.7,293.8z"/>
		<path style="fill:#A3BBC4;" d="M223.1,338.3L96.8,359.8c-3,0.5-5.8-1.5-6.3-4.5l0,0c-0.5-3,1.5-5.8,4.5-6.3l126.3-21.5
			c3-0.5,5.8,1.5,6.3,4.5l0,0C228,334.9,226,337.8,223.1,338.3z"/>
		
			<rect x="100.9" y="409.4" transform="matrix(0.9858 -0.168 0.168 0.9858 -66.6743 33.8224)" style="fill:#A3BBC4;" width="131.3" height="3"/>
		<g>
			<path style="fill:#5C5C5C;" d="M161.3,388.6c0.2-10.5-3.5-20.6-10.4-28.5c-0.9-1-2.3-0.2-2.2,1c1,20.6,2.4,41.2,3,61.8
				c0.1,2.3,0.1,4.6-0.1,6.8c-0.1,1.1-0.2,2.1-0.3,3.2c-0.2,1.2-0.3,3.6-0.9,4.5c-1.6,2.2-4.2-1.8-5.3-3.2c-1.5-1.9-2.7-4.1-3.7-6.2
				c-3-6.2-7.5-16.6-2.5-22.9c1.7-2.2,4.5-3.5,7.1-4.3c3.2-0.9,4.9,0.5,6.4,3.2c2.7,4.9,4.6,10.1,5.8,15.5c0.3,1.4,2.3,1.4,2.5-0.1
				c0.9-6.6,2.2-13.1,4-19.5c-0.8,0-1.6,0.1-2.3,0.1c0.9,1.8,2.6,6.7,5.5,5c1.3-0.8,2.4-2.8,3.3-4c1.7-2.1,3.3-4.2,5-6.4
				c-0.8-0.3-1.5-0.6-2.3-0.9c-1.1,9,12.7,5.6,16.9,3.7c-0.4-0.8-0.7-1.5-1.1-2.3c-7.5,3.4-14.8,7.2-21.9,11.4
				c-1.2,0.7-0.7,2.6,0.8,2.4c7.9-1,15.7-2.2,23.5-3.8c1.6-0.3,1.2-2.8-0.4-2.5c-7.8,1.5-15.6,2.8-23.5,3.8c0.2,0.8,0.5,1.6,0.8,2.4
				c7.1-4.2,14.4-8.1,21.9-11.4c1.5-0.7,0.4-3-1.1-2.3c-2.4,1.1-14,4.8-13.3-1.2c0.2-1.3-1.5-1.8-2.3-0.9c-1.8,2.3-3.5,4.5-5.3,6.8
				c-0.4,0.5-0.8,1.1-1.2,1.6c-0.2,0.3-0.4,0.5-0.6,0.8c-0.2,0.5-0.4,0.5-0.5,0c-0.7-0.5-1.4-2.6-1.7-3.4c-0.4-0.9-2-1-2.3,0.1
				c-1.9,6.6-3.3,13.3-4.2,20.1c0.8,0,1.7-0.1,2.5-0.1c-1.3-5.7-3.3-11.4-6.2-16.5c-2.4-4.2-5.3-5.4-9.9-3.9
				c-4.3,1.4-8.2,4.1-9.6,8.6c-1.3,4.2-0.5,8.8,0.7,13c1,3.4,10.3,26.5,16.3,19.6c1.2-1.4,1.5-4,1.8-5.8c0.5-3.1,0.6-6.3,0.5-9.5
				c-0.1-6.1-0.5-12.3-0.8-18.4c-0.7-15.2-1.5-30.3-2.2-45.5c-0.7,0.3-1.5,0.7-2.2,1c6.4,7.4,9.9,16.8,9.8,26.7
				C158.8,390,161.3,390.2,161.3,388.6L161.3,388.6z"/>
		</g>
		<g>
			
				<ellipse transform="matrix(0.9904 -0.1379 0.1379 0.9904 -49.0591 43.8998)" style="fill:#D6F2F5;" cx="292.3" cy="376" rx="38.2" ry="38.2"/>
		</g>
		
			<ellipse transform="matrix(0.9904 -0.1379 0.1379 0.9904 -49.0566 43.8973)" style="fill:#FFFFFF;" cx="292.3" cy="376" rx="27.8" ry="27.8"/>
		<g>
			<path style="fill:#D6F2F5;" d="M300.2,422c-0.5,0.1-1,0.2-1.4,0.2c-25.5,3.5-49.1-14.3-52.7-39.8c-3.6-25.6,14-49.1,39.8-52.7
				c12.3-1.7,24.6,1.5,34.6,9c9.9,7.5,16.4,18.5,18.1,30.8C342,394.7,325.2,417.8,300.2,422z M285.1,333.7
				c-23,3.9-38.5,25.1-35.3,48.3c3.3,23.5,25,39.9,48.5,36.6c23.7-3.3,39.9-24.9,36.6-48.5c-1.6-11.4-7.5-21.4-16.7-28.4
				c-9.2-6.9-20.5-9.9-31.8-8.3C286,333.5,285.5,333.6,285.1,333.7z"/>
		</g>
		<polygon style="fill:#C3D82E;" points="290.2,392.9 273.1,380.8 278.7,373.9 288.5,380.8 303.7,362.1 310.9,367.2 		"/>
		<g>
			<defs>
				
					<rect id="SVGID_4_" x="45.8" y="76.8" transform="matrix(0.9858 -0.168 0.168 0.9858 -42.5884 35.7404)" width="288.2" height="385.4"/>
			</defs>
			<clipPath id="SVGID_5_">
				<use xlink:href="#SVGID_4_"  style="overflow:visible;"/>
			</clipPath>
		</g>
	</g>
	<g>
		<polygon style="opacity:0.13;fill:#231F20;" points="456.5,497 352.6,472.7 239.2,456.5 254.1,454 206.1,444.2 234,443.6 
			232.2,66.4 516.5,113.5 465.2,387.9 		"/>
		<polygon style="fill:#FAFAFA;" points="438.6,473.3 346,462.2 158.1,431 221.1,50.8 505.4,97.9 458.8,379.2 		"/>
		<defs>
			<filter id="Adobe_OpacityMaskFilter_2_" filterUnits="userSpaceOnUse" x="160" y="53" width="344.9" height="414.1">
				<feFlood  style="flood-color:white;flood-opacity:1" result="back"/>
				<feBlend  in="SourceGraphic" in2="back" mode="normal"/>
			</filter>
		</defs>
		<mask maskUnits="userSpaceOnUse" x="160" y="53" width="344.9" height="414.1" id="SVGID_6_">
			<g style="filter:url(#Adobe_OpacityMaskFilter_2_);">
				<defs>
					<filter id="Adobe_OpacityMaskFilter_3_" filterUnits="userSpaceOnUse" x="160" y="53" width="344.9" height="414.1">
						<feFlood  style="flood-color:white;flood-opacity:1" result="back"/>
						<feBlend  in="SourceGraphic" in2="back" mode="normal"/>
					</filter>
				</defs>
				<mask maskUnits="userSpaceOnUse" x="160" y="53" width="344.9" height="414.1" id="SVGID_6_">
					<g style="filter:url(#Adobe_OpacityMaskFilter_3_);">
					</g>
				</mask>
				
					<linearGradient id="SVGID_7_" gradientUnits="userSpaceOnUse" x1="-92.8872" y1="58.3443" x2="316.8083" y2="265.0657" gradientTransform="matrix(0.9866 0.1634 -0.1634 0.9866 52.2378 -55.7247)">
					<stop  offset="0.3602" style="stop-color:#FFFFFF"/>
					<stop  offset="1" style="stop-color:#000000"/>
				</linearGradient>
				<polygon style="mask:url(#SVGID_6_);fill:url(#SVGID_7_);" points="434,467.1 345.3,462.1 160,431.4 222.7,53 504.9,99.7 
					455.9,395.7 				"/>
			</g>
		</mask>
		
			<linearGradient id="SVGID_8_" gradientUnits="userSpaceOnUse" x1="-92.8872" y1="58.3443" x2="316.8083" y2="265.0657" gradientTransform="matrix(0.9866 0.1634 -0.1634 0.9866 52.2378 -55.7247)">
			<stop  offset="0.3602" style="stop-color:#000000"/>
			<stop  offset="1" style="stop-color:#000000"/>
		</linearGradient>
		<polygon style="opacity:3.000000e-02;fill:url(#SVGID_8_);" points="434,467.1 345.3,462.1 160,431.4 222.7,53 504.9,99.7 
			455.9,395.7 		"/>
		<path style="fill:#A3BBC4;" d="M451.8,206.3L238.6,171c-3-0.5-5-3.3-4.5-6.3l0,0c0.5-3,3.3-5,6.3-4.5l213.2,35.3
			c3,0.5,5,3.3,4.5,6.3v0C457.6,204.8,454.8,206.8,451.8,206.3z"/>
		<path style="fill:#A3BBC4;" d="M410.8,156.9l-117.5-19.5c-3-0.5-5-3.3-4.5-6.3l0,0c0.5-3,3.3-5,6.3-4.5l117.5,19.5
			c3,0.5,5,3.3,4.5,6.3l0,0C416.6,155.4,413.8,157.4,410.8,156.9z"/>
		<path style="fill:#A3BBC4;" d="M446.8,236l-213.2-35.3c-3-0.5-5-3.3-4.5-6.3l0,0c0.5-3,3.3-5,6.3-4.5l213.2,35.3
			c3,0.5,5,3.3,4.5,6.3l0,0C452.7,234.5,449.8,236.5,446.8,236z"/>
		<path style="fill:#A3BBC4;" d="M437,295.3L223.9,260c-3-0.5-5-3.3-4.5-6.3l0,0c0.5-3,3.3-5,6.3-4.5l213.2,35.3
			c3,0.5,5,3.3,4.5,6.3l0,0C442.8,293.8,440,295.8,437,295.3z"/>
		<path style="fill:#A3BBC4;" d="M432.1,325L219,289.7c-3-0.5-5-3.3-4.5-6.3l0,0c0.5-3,3.3-5,6.3-4.5l213.2,35.3
			c3,0.5,5,3.3,4.5,6.3l0,0C437.9,323.5,435.1,325.5,432.1,325z"/>
		<path style="fill:#A3BBC4;" d="M340.4,340.3L214,319.4c-3-0.5-5-3.3-4.5-6.3l0,0c0.5-3,3.3-5,6.3-4.5l126.4,20.9
			c3,0.5,5,3.3,4.5,6.3l0,0C346.2,338.8,343.4,340.8,340.4,340.3z"/>
		
			<rect x="197.6" y="388.9" transform="matrix(0.9866 0.1634 -0.1634 0.9866 67.3467 -37.768)" style="fill:#A3BBC4;" width="131.3" height="3"/>
		<g>
			<path style="fill:#5C5C5C;" d="M265.6,367.7c3.6-9.9,3.5-20.6-0.5-30.4c-0.5-1.3-2.1-0.9-2.4,0.2c-5.8,19.8-11.2,39.7-17.4,59.4
				c-0.7,2.2-1.4,4.3-2.3,6.4c-0.4,1-0.8,1.9-1.3,2.9c-0.5,1.1-1.4,3.3-2.3,3.9c-2.2,1.6-3.4-3-3.9-4.7c-0.8-2.3-1.2-4.7-1.5-7.1
				c-0.8-6.9-1.7-18.1,5.1-22.5c2.4-1.5,5.4-1.8,8.1-1.7c3.3,0.2,4.4,2.1,5,5.1c0.9,5.5,1,11,0.4,16.5c-0.2,1.4,1.7,2,2.4,0.7
				c3-6,6.3-11.7,10.2-17.1c-0.7-0.2-1.5-0.5-2.2-0.7c0.2,2,0.3,7.2,3.5,6.5c1.5-0.3,3.2-1.9,4.5-2.7c2.3-1.5,4.5-2.9,6.8-4.4
				c-0.6-0.5-1.3-1-1.9-1.6c-4,8.1,10.1,9.4,14.7,9c-0.1-0.8-0.2-1.7-0.3-2.5c-8.2,0.7-16.4,1.9-24.4,3.6c-1.4,0.3-1.5,2.2-0.1,2.5
				c7.8,1.6,15.6,3,23.4,4.1c1.6,0.2,2-2.3,0.4-2.5c-7.9-1.1-15.7-2.5-23.4-4.1c0,0.8-0.1,1.7-0.1,2.5c8.1-1.7,16.2-2.9,24.4-3.6
				c1.6-0.1,1.4-2.7-0.3-2.5c-2.6,0.2-14.8,0-12.2-5.5c0.6-1.2-0.9-2.2-1.9-1.6c-2.4,1.6-4.8,3.1-7.2,4.7c-0.6,0.4-1.1,0.7-1.7,1.1
				c-0.3,0.2-0.6,0.4-0.8,0.5c-0.4,0.4-0.6,0.4-0.5-0.2c-0.5-0.7-0.4-2.9-0.5-3.8c-0.1-1-1.6-1.6-2.2-0.7
				c-3.9,5.6-7.4,11.5-10.5,17.7c0.8,0.2,1.6,0.5,2.4,0.7c0.7-5.8,0.6-11.8-0.5-17.6c-0.9-4.7-3.2-6.9-8.1-6.9
				c-4.5-0.1-9.1,1.2-11.9,5c-2.7,3.6-3.4,8.2-3.6,12.5c-0.1,3.6,1,28.4,9,23.8c1.6-0.9,2.7-3.3,3.5-4.9c1.5-2.8,2.6-5.8,3.6-8.8
				c1.9-5.8,3.5-11.8,5.2-17.6c4.3-14.6,8.5-29.1,12.8-43.7c-0.8,0.1-1.6,0.2-2.4,0.2c3.7,9.1,3.9,19.2,0.5,28.4
				C262.8,368.1,265.1,369.2,265.6,367.7L265.6,367.7z"/>
		</g>
		<g>
			
				<ellipse transform="matrix(0.1934 -0.9811 0.9811 0.1934 -73.7239 707.6252)" style="fill:#D6F2F5;" cx="393.5" cy="398.7" rx="38.2" ry="38.2"/>
		</g>
		
			<ellipse transform="matrix(0.1934 -0.9811 0.9811 0.1934 -73.7235 707.6276)" style="fill:#FFFFFF;" cx="393.5" cy="398.7" rx="27.8" ry="27.8"/>
		<g>
			<path style="fill:#D6F2F5;" d="M385.9,444.7c-0.5-0.1-1-0.2-1.4-0.3c-25.2-5-41.7-29.6-36.8-54.8c5-25.4,29.3-41.8,54.8-36.8
				c12.2,2.4,22.8,9.4,29.7,19.8c6.9,10.4,9.4,22.8,7,35C434.4,432.6,410.9,448.8,385.9,444.7z M400.5,356.2
				c-23-3.8-44.6,11.2-49.2,34.1c-4.6,23.3,10.6,45.9,33.9,50.5c23.5,4.6,45.9-10.5,50.5-33.9c2.2-11.3-0.1-22.7-6.5-32.3
				c-6.4-9.5-16.1-16-27.4-18.2C401.4,356.4,401,356.3,400.5,356.2z"/>
		</g>
		<polygon style="fill:#C3D82E;" points="386,413.9 373.8,396.9 381.4,392.2 388.4,401.9 408.8,389.2 414,396.4 		"/>
		<g>
			<defs>
				
					<rect id="SVGID_9_" x="187.4" y="71.8" transform="matrix(0.9866 0.1634 -0.1634 0.9866 47.6803 -50.6215)" width="288.2" height="385.4"/>
			</defs>
			<clipPath id="SVGID_10_">
				<use xlink:href="#SVGID_9_"  style="overflow:visible;"/>
			</clipPath>
		</g>
	</g>
	<g>
		<polygon style="opacity:0.13;fill:#231F20;" points="424.8,448.7 318.4,441.7 206.9,438.4 234,443.6 206.1,444.2 133.1,445.9 
			133.1,60.5 421.3,60.5 415.6,339.6 		"/>
		<polygon style="fill:#FFFFFF;" points="403.3,428.2 310,432.4 119.6,432.4 119.6,47 407.8,47 407.8,332 		"/>
		<defs>
			<filter id="Adobe_OpacityMaskFilter_4_" filterUnits="userSpaceOnUse" x="121.6" y="48.9" width="286" height="383.6">
				<feFlood  style="flood-color:white;flood-opacity:1" result="back"/>
				<feBlend  in="SourceGraphic" in2="back" mode="normal"/>
			</filter>
		</defs>
		<mask maskUnits="userSpaceOnUse" x="121.6" y="48.9" width="286" height="383.6" id="SVGID_11_">
			<g style="filter:url(#Adobe_OpacityMaskFilter_4_);">
				<defs>
					<filter id="Adobe_OpacityMaskFilter_5_" filterUnits="userSpaceOnUse" x="121.6" y="48.9" width="286" height="383.6">
						<feFlood  style="flood-color:white;flood-opacity:1" result="back"/>
						<feBlend  in="SourceGraphic" in2="back" mode="normal"/>
					</filter>
				</defs>
				<mask maskUnits="userSpaceOnUse" x="121.6" y="48.9" width="286" height="383.6" id="SVGID_11_">
					<g style="filter:url(#Adobe_OpacityMaskFilter_5_);">
					</g>
				</mask>
				<linearGradient id="SVGID_12_" gradientUnits="userSpaceOnUse" x1="-157.2518" y1="27.7898" x2="252.4641" y2="234.5216">
					<stop  offset="0.3602" style="stop-color:#FFFFFF"/>
					<stop  offset="1" style="stop-color:#000000"/>
				</linearGradient>
				<polygon style="mask:url(#SVGID_11_);fill:url(#SVGID_12_);" points="397.7,422.9 309.4,432.4 121.6,432.4 121.6,48.9 
					407.6,48.9 407.6,348.8 				"/>
			</g>
		</mask>
		<linearGradient id="SVGID_13_" gradientUnits="userSpaceOnUse" x1="-157.2518" y1="27.7898" x2="252.4641" y2="234.5216">
			<stop  offset="0.3602" style="stop-color:#000000"/>
			<stop  offset="1" style="stop-color:#000000"/>
		</linearGradient>
		<polygon style="opacity:3.000000e-02;fill:url(#SVGID_13_);" points="397.7,422.9 309.4,432.4 121.6,432.4 121.6,48.9 407.6,48.9 
			407.6,348.8 		"/>
		<path style="fill:#A3BBC4;" d="M374.4,162.7H154.8c-2.1,0-3.7-1.7-3.7-3.7v-3.5c0-2.1,1.7-3.7,3.7-3.7h219.5
			c2.1,0,3.7,1.7,3.7,3.7v3.5C378.1,161,376.4,162.7,374.4,162.7z"/>
		<path style="fill:#A3BBC4;" d="M324.1,120.6H205.1c-3,0-5.5-2.5-5.5-5.5l0,0c0-3,2.5-5.5,5.5-5.5h119.1c3,0,5.5,2.5,5.5,5.5l0,0
			C329.6,118.2,327.2,120.6,324.1,120.6z"/>
		<path style="fill:#A3BBC4;" d="M374.4,192.8H154.8c-2.1,0-3.7-1.7-3.7-3.7v-3.5c0-2.1,1.7-3.7,3.7-3.7h219.5
			c2.1,0,3.7,1.7,3.7,3.7v3.5C378.1,191.1,376.4,192.8,374.4,192.8z"/>
		<path style="fill:#A3BBC4;" d="M372.6,252.9H156.6c-3,0-5.5-2.5-5.5-5.5l0,0c0-3,2.5-5.5,5.5-5.5h216.1c3,0,5.5,2.5,5.5,5.5l0,0
			C378.1,250.5,375.6,252.9,372.6,252.9z"/>
		<path style="fill:#A3BBC4;" d="M374.4,283H154.8c-2.1,0-3.7-1.7-3.7-3.7v-3.5c0-2.1,1.7-3.7,3.7-3.7h219.5c2.1,0,3.7,1.7,3.7,3.7
			v3.5C378.1,281.3,376.4,283,374.4,283z"/>
		<path style="fill:#A3BBC4;" d="M284.6,313.1H156.6c-3,0-5.5-2.5-5.5-5.5l0,0c0-3,2.5-5.5,5.5-5.5h128.1c3,0,5.5,2.5,5.5,5.5l0,0
			C290.1,310.6,287.7,313.1,284.6,313.1z"/>
		<rect x="151.1" y="373.6" style="fill:#A3BBC4;" width="131.3" height="3"/>
		<g>
			<path style="fill:#5C5C5C;" d="M215.3,352.3c1.9-10.3,0-20.9-5.4-29.9c-0.7-1.2-2.2-0.5-2.4,0.6c-2.5,20.5-4.6,41-7.5,61.4
				c-0.3,2.3-0.7,4.5-1.2,6.7c-0.2,1-0.5,2.1-0.8,3.1c-0.4,1.1-0.9,3.5-1.7,4.3c-1.9,1.9-3.8-2.4-4.7-4c-1.1-2.2-2-4.5-2.6-6.8
				c-1.9-6.6-4.6-17.6,1.4-23c2.1-1.9,5-2.7,7.8-3c3.3-0.4,4.7,1.3,5.7,4.2c1.8,5.2,2.8,10.7,3.1,16.2c0.1,1.4,2.1,1.7,2.5,0.3
				c2-6.4,4.4-12.5,7.2-18.5c-0.8-0.1-1.5-0.2-2.3-0.3c0.5,1.9,1.4,7.1,4.5,5.9c1.4-0.6,2.8-2.4,4-3.4c2-1.8,4-3.6,6-5.4
				c-0.7-0.4-1.4-0.8-2.1-1.2c-2.6,8.7,11.5,7.7,16,6.5c-0.2-0.8-0.4-1.6-0.7-2.4c-8,2.1-15.8,4.6-23.5,7.6
				c-1.3,0.5-1.2,2.4,0.3,2.5c7.9,0.4,15.9,0.4,23.8,0.2c1.6,0,1.6-2.6,0-2.5c-7.9,0.2-15.9,0.1-23.8-0.2c0.1,0.8,0.2,1.7,0.3,2.5
				c7.7-3,15.5-5.5,23.5-7.6c1.6-0.4,0.9-2.8-0.7-2.4c-2.5,0.6-14.6,2.4-12.9-3.4c0.4-1.3-1.2-2.1-2.1-1.2c-2.1,1.9-4.2,3.8-6.4,5.8
				c-0.5,0.5-1,0.9-1.5,1.4c-0.2,0.2-0.5,0.5-0.7,0.7c-0.3,0.5-0.5,0.5-0.5-0.1c-0.6-0.6-0.9-2.8-1.1-3.6c-0.3-1-1.8-1.3-2.3-0.3
				c-3,6.2-5.5,12.6-7.5,19.1c0.8,0.1,1.7,0.2,2.5,0.3c-0.3-5.9-1.3-11.8-3.3-17.3c-1.6-4.5-4.3-6.3-9.1-5.5
				c-4.5,0.7-8.8,2.7-10.9,6.9c-2,4-2,8.6-1.5,12.9c0.5,3.5,5.7,27.9,12.8,22c1.5-1.2,2.1-3.7,2.7-5.4c1-3,1.6-6.1,2.1-9.3
				c0.9-6.1,1.5-12.2,2.3-18.3c1.8-15.1,3.6-30.1,5.5-45.2c-0.8,0.2-1.6,0.4-2.4,0.6c5.1,8.4,7,18.3,5.2,27.9
				C212.6,353.2,215,353.9,215.3,352.3L215.3,352.3z"/>
		</g>
		<g>
			
				<ellipse transform="matrix(3.048804e-02 -0.9995 0.9995 3.048804e-02 -25.771 697.3337)" style="fill:#D6F2F5;" cx="346.6" cy="362" rx="38.2" ry="38.2"/>
		</g>
		
			<ellipse transform="matrix(3.051252e-02 -0.9995 0.9995 3.051252e-02 -25.7793 697.3245)" style="fill:#FFFFFF;" cx="346.6" cy="362" rx="27.8" ry="27.8"/>
		<g>
			<path style="fill:#D6F2F5;" d="M346.6,408.6c-0.5,0-1,0-1.5,0c-25.7-0.8-46-22.3-45.2-48.1c0.8-25.9,22-46,48.1-45.2
				c12.5,0.4,24,5.6,32.6,14.7c8.5,9.1,13,20.9,12.7,33.4C392.4,388.7,372,408.6,346.6,408.6z M346.6,319
				c-23.4,0-42.2,18.3-42.9,41.7c-0.7,23.7,18,43.6,41.7,44.3c23.9,0.7,43.5-17.8,44.3-41.7c0.3-11.5-3.8-22.4-11.7-30.8
				c-7.9-8.4-18.5-13.2-30-13.5C347.4,319,347,319,346.6,319z"/>
		</g>
		<polygon style="fill:#C3D82E;" points="341.7,378.2 326.9,363.5 333.6,357.6 342,366 360.1,350.1 366.4,356.4 		"/>
		<g>
			<defs>
				<rect id="SVGID_14_" x="119.4" y="47" width="288.2" height="385.4"/>
			</defs>
			<clipPath id="SVGID_15_">
				<use xlink:href="#SVGID_14_"  style="overflow:visible;"/>
			</clipPath>
		</g>
	</g>
</g>
</svg>
