<svg class="types__icon" version="1.1"  xmlns="http://www.w3.org/2000/svg" xmlns:xlink="http://www.w3.org/1999/xlink" x="0px" y="0px" width="95.333px" height="97px" viewBox="0 0 95.2 96.2" style="enable-background:new 0 0 95.2 96.2;" xml:space="preserve">
              <linearGradient id="SVGID_1_" gradientUnits="userSpaceOnUse" x1="2.7915" y1="48.479" x2="92.7915" y2="48.479">
                <stop  offset="0" style="stop-color:#41B782"/>
                  <stop  offset="0.1711" style="stop-color:#4FBC7D"/>
                  <stop  offset="0.7167" style="stop-color:#77CB6F"/>
                  <stop  offset="1" style="stop-color:#86D169"/>
              </linearGradient>
    <circle style="fill:url(#SVGID_1_);" cx="47.8" cy="48.5" r="45"/>
    <g>
                <path style="fill:none;stroke:#232323;stroke-width:1.25;stroke-miterlimit:10;" d="M37.6,31.5c0,0,3.5-4.5,6.5-4.9 c2.9-0.4,6.6-0.2,7.3,0.1c0.7,0.3,3.1,1.7,4.2,2.9c1.1,1.2,1.5,2,1.5,2"/>
        <path style="fill:none;stroke:#232323;stroke-width:1.25;stroke-miterlimit:10;" d="M56.2,33.2c0,0,0.5-1.3,1.2-1.6 c0.7-0.2,2.8,0.2,3.3,1.2c0.5,1,0.9,2.3,0.6,3.2c-0.2,0.9-1.2,2.9-2,4.1c-0.8,1.2-9,10.1-9,10.1l-5.9-0.1c0,0-6.3-6.2-7.5-7.6 s-3.1-5.1-3.4-5.9s-0.1-3.4,0.7-4c0.8-0.7,1-1.2,2.4-1c1.3,0.2,1.7,1,1.7,1l0.5,1"/>
        <line style="fill:none;stroke:#232323;stroke-width:1.25;stroke-miterlimit:10;" x1="33.3" y1="26.8" x2="39.9" y2="28.7"/>
        <line style="fill:none;stroke:#232323;stroke-width:1.25;stroke-miterlimit:10;" x1="54.1" y1="28.5" x2="61" y2="26.7"/>
        <path style="fill:none;stroke:#232323;stroke-width:1.25;stroke-miterlimit:10;" d="M48.7,72.5H46c-1.8,0-3.2-1.5-3.2-3.2V56.2 c0-1.8,1.5-3.2,3.2-3.2h2.7c1.8,0,3.2,1.5,3.2,3.2v13.1C51.9,71.1,50.5,72.5,48.7,72.5z"/>
        <polyline style="fill:none;stroke:#232323;stroke-width:1.25;stroke-miterlimit:10;" points="36.5,42.1 36.9,52.9 41.5,62.2 42.8,62.2 	"/>
        <polyline style="fill:none;stroke:#232323;stroke-width:1.25;stroke-miterlimit:10;" points="51.8,62.3 52.8,62.3 57.8,52.6 58.3,41.7 	"/>
        <line style="fill:none;stroke:#232323;stroke-width:1.25;stroke-miterlimit:10;" x1="36.9" y1="52.9" x2="40.7" y2="52.9"/>
        <line style="fill:none;stroke:#232323;stroke-width:1.25;stroke-miterlimit:10;" x1="53.9" y1="52.7" x2="57.7" y2="52.7"/>
        <line style="fill:none;stroke:#232323;stroke-width:1.25;stroke-miterlimit:10;" x1="43" y1="56.8" x2="45.6" y2="56.8"/>
        <line style="fill:none;stroke:#232323;stroke-width:1.25;stroke-miterlimit:10;" x1="49" y1="56.7" x2="51.6" y2="56.7"/>
        <line style="fill:none;stroke:#232323;stroke-width:1.25;stroke-miterlimit:10;" x1="43" y1="60.6" x2="45.6" y2="60.6"/>
        <line style="fill:none;stroke:#232323;stroke-width:1.25;stroke-miterlimit:10;" x1="49" y1="60.5" x2="51.6" y2="60.5"/>
        <line style="fill:none;stroke:#232323;stroke-width:1.25;stroke-miterlimit:10;" x1="43" y1="64.4" x2="45.7" y2="64.4"/>
        <line style="fill:none;stroke:#232323;stroke-width:1.25;stroke-miterlimit:10;" x1="49.1" y1="64.3" x2="51.7" y2="64.3"/>
        <line style="fill:none;stroke:#232323;stroke-width:1.25;stroke-miterlimit:10;" x1="43" y1="68.1" x2="45.7" y2="68.1"/>
        <line style="fill:none;stroke:#232323;stroke-width:1.25;stroke-miterlimit:10;" x1="49.1" y1="68" x2="51.7" y2="68"/>
        <line style="fill:none;stroke:#232323;stroke-width:1.25;stroke-miterlimit:10;" x1="44.5" y1="50.2" x2="45.3" y2="52.9"/>
        <line style="fill:none;stroke:#232323;stroke-width:1.25;stroke-miterlimit:10;" x1="50.4" y1="50.3" x2="49.2" y2="53"/>
        <ellipse style="fill:none;stroke:#232323;stroke-width:1.25;stroke-miterlimit:10;" cx="47.4" cy="46" rx="1.3" ry="1.3"/>
        <path style="fill:none;stroke:#232323;stroke-width:1.25;stroke-miterlimit:10;" d="M45.4,39.8l-2-3.4c-0.8-1.4,0.2-3.2,1.8-3.2 l4,0c1.6,0,2.6,1.8,1.8,3.2l-2,3.4C48.2,41.2,46.3,41.2,45.4,39.8z"/>
              </g>
</svg>