<svg class="types__icon" version="1.1" xmlns="http://www.w3.org/2000/svg" xmlns:xlink="http://www.w3.org/1999/xlink"
     x="0px" y="0px" width="95.333px" height="97px" viewBox="0 0 95.2 96.2" style="enable-background:new 0 0 95.2 96.2;"
     xml:space="preserve">
              <linearGradient id="SVGID_1_" gradientUnits="userSpaceOnUse" x1="2.7915" y1="48.479" x2="92.7915"
                              y2="48.479">
                <stop offset="0" style="stop-color:#41B782"/>
                  <stop offset="0.1711" style="stop-color:#4FBC7D"/>
                  <stop offset="0.7167" style="stop-color:#77CB6F"/>
                  <stop offset="1" style="stop-color:#86D169"/>
              </linearGradient>
    <circle style="fill:url(#SVGID_1_);" cx="47.8" cy="48.5" r="45"/>
    <g>
                <path style="fill:none;stroke:#232323;stroke-width:1.75;stroke-miterlimit:10;"
                      d="M68.5,31H39.3c-1.2,0-2.2,1-2.2,2.2v23.4 c0,1.2,1,2.2,2.2,2.2h14.1c0-0.9,0.3-1.9,0.9-2.6c0.4-0.6,0.9-1.1,1.6-1.4c0.5-0.4,1.2-0.6,2.1-0.7c0.2,0,0.4-0.1,0.6-0.1 c0.5,0,1,0.1,1.4,0.3c0.9,0.2,1.5,0.6,2,1.2c0.1,0.1,0.3,0.3,0.4,0.4c0.8,0.7,1.1,1.8,1.1,2.8h4.8c1.2,0,2.2-1,2.2-2.2V33.1 C70.6,31.9,69.7,31,68.5,31z"/>
        <line style="fill:none;stroke:#232323;stroke-width:1.75;stroke-miterlimit:10;" x1="45.4" y1="36.4" x2="37.3"
              y2="36.4"/>
        <line style="fill:none;stroke:#232323;stroke-width:1.75;stroke-miterlimit:10;" x1="70.7" y1="50.8" x2="43.6"
              y2="50.8"/>
        <path style="fill:none;stroke:#232323;stroke-width:1.75;stroke-miterlimit:10;"
              d="M28.7,63.5L28.7,63.5c-2.8,0-5-2.3-5-5v0 c0-2.8,2.3-5,5-5h0c2.8,0,5,2.3,5,5v0C33.7,61.3,31.4,63.5,28.7,63.5z"/>
        <path style="fill:none;stroke:#232323;stroke-width:1.75;stroke-miterlimit:10;"
              d="M58.6,63.7L58.6,63.7c-2.8,0-5-2.3-5-5v0 c0-2.8,2.3-5,5-5h0c2.8,0,5,2.3,5,5v0C63.7,61.5,61.4,63.7,58.6,63.7z"/>
        <path style="fill:none;stroke:#232323;stroke-width:1.75;stroke-miterlimit:10;" d="M34.2,58.7c2,0,4,0,6,0"/>
        <path style="fill:none;stroke:#232323;stroke-width:1.75;stroke-miterlimit:10;"
              d="M37.1,38.1c-2.9,0.4-5.9,0.4-9,0.4 c-4.5,6-9,12.8-7.4,20.3c1,0,0-2.5,0,0c1,0,2.1,0,3.1,0"/>
        <polyline style="fill:none;stroke:#232323;stroke-width:1.75;stroke-miterlimit:10;"
                  points="21.7,48.1 33.3,48.2 33.3,41.6 26.3,41.5 	"/>
              </g>
</svg>