<svg class="types__icon" version="1.1"  xmlns="http://www.w3.org/2000/svg" xmlns:xlink="http://www.w3.org/1999/xlink" x="0px" y="0px" width="95.333px" height="97px" viewBox="0 0 95.2 96.2" style="enable-background:new 0 0 95.2 96.2;" xml:space="preserve">
              <linearGradient id="SVGID_1_" gradientUnits="userSpaceOnUse" x1="2.7915" y1="48.479" x2="92.7915" y2="48.479">
	              <stop  offset="0" style="stop-color:#41B782"/>
                  <stop  offset="0.1711" style="stop-color:#4FBC7D"/>
                  <stop  offset="0.7167" style="stop-color:#77CB6F"/>
                  <stop  offset="1" style="stop-color:#86D169"/>
              </linearGradient>
    <circle style="fill:url(#SVGID_1_);" cx="47.8" cy="48.5" r="45"/>
    <g>
	              <line style="fill:none;stroke:#232323;stroke-width:1.75;stroke-miterlimit:10;" x1="41.1" y1="61.2" x2="58" y2="61.1"/>
        <polyline style="fill:none;stroke:#232323;stroke-width:1.75;stroke-miterlimit:10;" points="67.9,61 70.1,61 70.1,53.6 44.6,53.6 44.7,39.7 35.2,39.7 27.7,48.5 27.6,61.1 31.2,61.1 	"/>
        <ellipse style="fill:none;stroke:#232323;stroke-width:1.75;stroke-miterlimit:10;" cx="63.2" cy="61.3" rx="4.7" ry="4.5"/>
        <ellipse style="fill:none;stroke:#232323;stroke-width:1.75;stroke-miterlimit:10;" cx="36.2" cy="61.3" rx="4.7" ry="4.5"/>
        <polyline style="fill:none;stroke:#232323;stroke-width:1.75;stroke-miterlimit:10;" points="40.8,39.7 40.7,48.8 27.8,48.9 	"/>
        <path style="fill:none;stroke:#232323;stroke-width:1.75;stroke-miterlimit:10;" d="M65.2,53.5c0,0-3-7.3-3.6-8.1 c-0.6-0.8-4.3-1.6-5.3,0.1c-1,1.7-3.3,8-3.3,8"/>
        <ellipse style="fill:none;stroke:#232323;stroke-width:1.75;stroke-miterlimit:10;" cx="49.2" cy="32" rx="2.8" ry="2.8"/>
        <line style="fill:none;stroke:#232323;stroke-width:1.75;stroke-miterlimit:10;" x1="61.6" y1="45.4" x2="51.8" y2="32.5"/>
        <line style="fill:none;stroke:#232323;stroke-width:1.75;stroke-miterlimit:10;" x1="56.3" y1="45.5" x2="48.7" y2="34.6"/>
        <path style="fill:none;stroke:#232323;stroke-width:1.75;stroke-miterlimit:10;" d="M32,26.9c0,0,0.8-1.4,2.2-1.3 c1.3,0.1,3.9,1,4.1,2.5c0.1,1.6-0.3,3.7-0.3,3.7s-0.7,1-1.6,1.4s-2.8,0.2-3.2,0.2s-1.3-0.9-1.3-0.9"/>
        <line style="fill:none;stroke:#232323;stroke-width:1.75;stroke-miterlimit:10;" x1="47.1" y1="29.8" x2="38.2" y2="27.5"/>
        <line style="fill:none;stroke:#232323;stroke-width:1.75;stroke-miterlimit:10;" x1="46.4" y1="32.5" x2="38" y2="31.9"/>
              </g>
</svg>