<svg class="types__icon" version="1.1" xmlns="http://www.w3.org/2000/svg" xmlns:xlink="http://www.w3.org/1999/xlink" x="0px" y="0px" width="95.333px" height="97px" viewBox="0 0 95.2 96.2" style="enable-background:new 0 0 95.2 96.2;" xml:space="preserve">
              <linearGradient id="SVGID_1_" gradientUnits="userSpaceOnUse" x1="2.7915" y1="48.479" x2="92.7915" y2="48.479">
	              <stop  offset="0" style="stop-color:#41B782"/>
                  <stop  offset="0.1711" style="stop-color:#4FBC7D"/>
                  <stop  offset="0.7167" style="stop-color:#77CB6F"/>
                  <stop  offset="1" style="stop-color:#86D169"/>
              </linearGradient>
    <circle style="fill:url(#SVGID_1_);" cx="47.8" cy="48.5" r="45"/>
    <path style="fill:none;stroke:#232323;stroke-width:1.75;stroke-miterlimit:10;" d="M64.9,40.3c0,0-2.5-7.2-4.1-7.3 c-1.6-0.1-24.4-0.3-25.5-0.1c-1.1,0.2-4.8,6.7-4.8,6.7l-0.6,1L28.4,39h-6.2l-1,1.5l0.1,3.3l0.9,0.8l4.3,0.1c0,0-0.8,1.4-1.2,2.6 c-0.4,1.2-0.2,12-0.2,12s-0.1,2.4,1.8,2.4c1.8,0,40.8,0.2,40.8,0.2s2.4-0.4,2.5-1.8S70,46.7,70,46.7s-1.1-1.8-1.4-1.8 c-0.2,0-0.7-0.6-0.7-0.6l4.4,0.1l1.4-1.1L73.6,40l-1-1L67,39.1L64.9,40.3z"/>
    <path style="fill:none;stroke:#232323;stroke-width:1.75;stroke-miterlimit:10;" d="M29.8,40.5c0,0,0,2.5,1.9,2.8 c1.9,0.3,29.4,0.3,31.1-0.2c1.6-0.5,2.1-3,2.1-3l0.2-0.8"/>
    <path style="fill:none;stroke:#232323;stroke-width:1.75;stroke-miterlimit:10;" d="M26.4,61.5c0,0-0.6,3.2,0,3.9s2.6,1.2,4.5,1.2 s4.6,0.1,5.2-0.4c0.6-0.5,1.2-2.2,1.2-2.2l-0.6-2.2L26.4,61.5z"/>
    <path style="fill:none;stroke:#232323;stroke-width:1.75;stroke-miterlimit:10;" d="M68.4,61.6c0,0,0.6,3.2,0,3.9s-2.6,1.2-4.5,1.2 c-1.9,0-4.6,0.1-5.2-0.4c-0.6-0.5-1.2-2.2-1.2-2.2l0.6-2.2L68.4,61.6z"/>
    <g>
	              <g>
		              <path style="fill:#232323;" d="M37.1,57.6c6.9,0,13.8,0.1,20.7,0.1c0.8,0,0.8-1.2,0-1.2c-6.9,0-13.8-0.1-20.7-0.1 C36.3,56.3,36.3,57.6,37.1,57.6L37.1,57.6z"/>
	              </g>
              </g>
    <g>
	              <g>
		              <path style="fill:#232323;" d="M29.2,50.3c0.7,0.8,1.2,1.9,2.4,2c1.4,0,2.8,0,4.2,0.1c0.8,0,0.8-1.2,0-1.2c-1.3,0-2.6,0-3.9-0.1 c-0.1,0-0.6-0.1-0.7,0c0.1-0.1,0.4,0.4,0.1-0.1c-0.4-0.5-0.8-1-1.2-1.5C29.5,48.8,28.6,49.6,29.2,50.3L29.2,50.3z"/>
	              </g>
              </g>
    <g>
	              <g>
		              <path style="fill:#232323;" d="M64.6,49.6c-0.4,0.5-0.9,0.9-1.2,1.5c-0.3,0.6-0.1-0.1,0.1,0.1c-0.1-0.1-0.6,0-0.7,0 c-1.3,0-2.6,0-3.9,0.1c-0.8,0-0.8,1.3,0,1.2c1.4,0,2.8,0,4.2-0.1c1.2,0,1.7-1.1,2.4-2C66,49.9,65.1,49,64.6,49.6L64.6,49.6z"/>
	              </g>
              </g>
</svg>