<svg class="types__icon" version="1.1"  xmlns="http://www.w3.org/2000/svg" xmlns:xlink="http://www.w3.org/1999/xlink" x="0px" y="0px" width="95.333px" height="97px" viewBox="0 0 95.2 96.2" style="enable-background:new 0 0 95.2 96.2;" xml:space="preserve">
              <linearGradient id="SVGID_1_" gradientUnits="userSpaceOnUse" x1="2.7915" y1="48.479" x2="92.7915" y2="48.479">
                <stop  offset="0" style="stop-color:#41B782"/>
                  <stop  offset="0.1711" style="stop-color:#4FBC7D"/>
                  <stop  offset="0.7167" style="stop-color:#77CB6F"/>
                  <stop  offset="1" style="stop-color:#86D169"/>
              </linearGradient>
    <circle style="fill:url(#SVGID_1_);" cx="47.8" cy="48.5" r="45"/>
    <g>
                <path style="fill:none;stroke:#232323;stroke-width:1.4;stroke-miterlimit:10;" d="M28.7,62.5c0,0,1.9-1.6,5.1-1.7 c3.2,0,5.1,3,8.3,3.1c3.1,0,6.3-2.8,10.3-3c4.1-0.2,6,3.1,8.9,3s5.7-1.8,5.7-1.8"/>
        <path style="fill:none;stroke:#232323;stroke-width:1.4;stroke-miterlimit:10;" d="M28.9,67.5c0,0,1.9-1.6,5.1-1.7 c3.2,0,5.1,3,8.3,3.1c3.1,0,6.3-2.8,10.3-3s6,3.1,8.9,3c2.9,0,5.7-1.8,5.7-1.8"/>
        <polyline style="fill:none;stroke:#232323;stroke-width:1.4;stroke-miterlimit:10;" points="36.7,61.3 30.9,46.3 47.7,43.4 64.4,46.4 58.1,62.4 	"/>
        <polyline style="fill:none;stroke:#232323;stroke-width:1.4;stroke-miterlimit:10;" points="36.1,45.2 36,40.3 41.9,37.3 53.6,37.3 59.5,39.8 59.5,45.1 	"/>
        <polyline style="fill:none;stroke:#232323;stroke-width:1.4;stroke-miterlimit:10;" points="41.8,36.8 41.9,31.2 53.7,31.2 53.6,37.3 	"/>
        <line style="fill:none;stroke:#232323;stroke-width:1.4;stroke-miterlimit:10;" x1="47.7" y1="43.4" x2="47.8" y2="53.2"/>
        <ellipse style="fill:none;stroke:#232323;stroke-width:1.4;stroke-miterlimit:10;" cx="37.4" cy="50.2" rx="1.8" ry="1.7"/>
        <ellipse style="fill:none;stroke:#232323;stroke-width:1.4;stroke-miterlimit:10;" cx="57.9" cy="49.8" rx="1.8" ry="1.7"/>
              </g>
</svg>