<?xml version="1.0" encoding="utf-8"?>
<!-- Generator: Adobe Illustrator 24.3.0, SVG Export Plug-In . SVG Version: 6.00 Build 0)  -->
<svg version="1.1" id="Слой_1" xmlns="http://www.w3.org/2000/svg" xmlns:xlink="http://www.w3.org/1999/xlink" x="0px" y="0px"
	 viewBox="0 0 40 40" style="enable-background:new 0 0 40 40;" xml:space="preserve">
<style type="text/css">
	.st0{fill:none;stroke:#333333;stroke-width:1.1;stroke-miterlimit:10;}
	.st1{fill:none;stroke:#333333;stroke-width:1.1;stroke-linejoin:round;stroke-miterlimit:10;}
</style>
<g>
	<path class="st0" d="M26.9,15.5l-0.9-2c-0.3-0.8-1-1.4-1.9-1.4h-3.9h-3.9c-0.9,0-1.6,0.6-1.9,1.4l-0.9,2"/>
	<polyline class="st0" points="16.8,20.8 20.2,20.8 23.5,20.8 	"/>
	<path class="st0" d="M30.3,14.8h-2c-0.2,0-2,2-3.4,2h-9.4c-1.3,0-3.1-2-3.4-2h-2c-0.4,0-0.7,0.3-0.7,0.7v0.9c0,0.4,0.3,0.7,0.7,0.7
		l1.3,0.4v0.7c-0.4,0.4-0.7,1-0.7,1.6v1.1c0,0.6,0.3,1.1,0.7,1.5v1.9c0,0.4,0.3,0.7,0.7,0.7h2.7c0.4,0,0.7-0.3,0.7-0.7v-1.4h9.4v1.4
		c0,0.4,0.3,0.7,0.7,0.7h2.7c0.4,0,0.7-0.3,0.7-0.7v-1.9c0.4-0.4,0.7-0.9,0.7-1.5v-1.1c0-0.6-0.2-1.2-0.7-1.6v-0.7l1.3-0.4
		c0.4,0,0.7-0.3,0.7-0.7v-0.9C30.9,15.1,30.6,14.8,30.3,14.8z"/>
	<path class="st0" d="M27.3,18.4c-0.8,0.7-2,1.1-3.1,1.1"/>
	<path class="st0" d="M13,18.4c0.8,0.7,2,1.1,3.1,1.1"/>
	<line class="st0" x1="15.4" y1="22.9" x2="12.7" y2="22.9"/>
	<line class="st0" x1="27.6" y1="22.9" x2="24.9" y2="22.9"/>
	<path class="st1" d="M20.2,4C18.9,5.8,10.1,9.4,6.7,9.4c0,5.9,0,7.7,0,12.8c0,6,12.7,12.6,13.5,12.8c0.7-0.2,13.5-7.2,13.5-12.1
		c0-5.1,0-7.6,0-13.5C29.9,9.4,21.5,5.8,20.2,4z"/>
</g>
</svg>
