<?xml version="1.0" encoding="utf-8"?>
<!-- Generator: Adobe Illustrator 24.3.0, SVG Export Plug-In . SVG Version: 6.00 Build 0)  -->
<svg version="1.1" id="Слой_1" xmlns="http://www.w3.org/2000/svg" xmlns:xlink="http://www.w3.org/1999/xlink" x="0px" y="0px"
	 viewBox="0 0 40 40" style="enable-background:new 0 0 40 40;" xml:space="preserve">
<style type="text/css">
	.st0{fill:#333333;}
</style>
<g>
	<g>
		<polygon class="st0" points="18.2,16.9 16.1,14.8 16.9,14 18.2,15.3 22,11.4 22.9,12.2 		"/>
	</g>
	<g>
		<path class="st0" d="M19.5,23.6c-0.1,0-0.2,0-0.3-0.1c-3.5-2-5.9-5.3-7-9.6c-0.8-3.2-0.6-5.8-0.6-5.9c0-0.3,0.2-0.5,0.5-0.5
			c0,0,4.4-0.6,7-2.3c0.2-0.1,0.5-0.1,0.7,0c2.6,1.8,6.9,2.3,7,2.3c0.3,0,0.5,0.3,0.5,0.5c0,0.1,0.2,2.7-0.6,5.9
			c-1.1,4.3-3.5,7.6-7,9.6C19.7,23.6,19.6,23.6,19.5,23.6z M12.8,8.5c0,0.9,0,2.8,0.6,5.1c1,3.9,3,6.8,6.1,8.7
			c3.1-1.9,5.1-4.8,6.1-8.7c0.6-2.3,0.6-4.3,0.6-5.1c-1.2-0.2-4.4-0.8-6.7-2.2C17.2,7.7,14,8.3,12.8,8.5z"/>
	</g>
	<g>
		<path class="st0" d="M32.8,28H7.1c-0.3,0-0.6-0.3-0.6-0.6V9.6C6.5,9.2,6.8,9,7.1,9h3.3v1.2H7.7v16.7h24.5V10.2h-3.9V9h4.5
			c0.3,0,0.6,0.3,0.6,0.6v17.8C33.4,27.7,33.2,28,32.8,28z"/>
	</g>
	<g>
		<path class="st0" d="M38.3,34.6H1.6c-0.2,0-0.4-0.1-0.5-0.3C1,34.1,1,33.9,1.1,33.7L6.6,27c0.1-0.1,0.3-0.2,0.5-0.2h25.7
			c0.2,0,0.3,0.1,0.5,0.2l5.5,6.7c0.1,0.2,0.2,0.4,0.1,0.6C38.8,34.5,38.6,34.6,38.3,34.6z M2.8,33.5h34.3L32.5,28H7.4L2.8,33.5z"/>
	</g>
</g>
</svg>
