<?xml version="1.0" encoding="utf-8"?>
<!-- Generator: Adobe Illustrator 24.3.0, SVG Export Plug-In . SVG Version: 6.00 Build 0)  -->
<svg version="1.1" id="Слой_1" xmlns="http://www.w3.org/2000/svg" xmlns:xlink="http://www.w3.org/1999/xlink" x="0px" y="0px"
	 viewBox="0 0 40 40" style="enable-background:new 0 0 40 40;" xml:space="preserve">
<style type="text/css">
	.st0{fill:#333333;}
	.st1{fill:#333333;stroke:#000000;stroke-width:16;stroke-linejoin:round;stroke-miterlimit:10;}
</style>
<g>
	<g>
		<g>
			<path class="st0" d="M16.1,12.8c-2.5,0-4.5-2-4.5-4.5s2-4.5,4.5-4.5s4.5,2,4.5,4.5S18.5,12.8,16.1,12.8z M16.1,4.9
				c-1.9,0-3.4,1.5-3.4,3.4c0,1.9,1.5,3.4,3.4,3.4c1.9,0,3.4-1.5,3.4-3.4C19.5,6.4,18,4.9,16.1,4.9z"/>
		</g>
		<g>
			<path class="st1" d="M12.8,31.2"/>
		</g>
		<g>
			<path class="st0" d="M22.1,16.4h-1.1c0-1-0.8-1.8-1.8-1.8h-3.2v-1.1h3.2C20.9,13.6,22.1,14.9,22.1,16.4z"/>
		</g>
		<g>
			<path class="st0" d="M13.3,31.2l-1.1,0l0-5C11,26,10,24.9,10,23.5v-7.1c0-1.6,1.3-2.8,2.8-2.8h3.2v1.1h-3.2c-1,0-1.8,0.8-1.8,1.8
				v7.1c0,1,0.8,1.8,1.8,1.8c0.1,0,0.3,0.1,0.4,0.2c0.1,0.1,0.2,0.2,0.2,0.4L13.3,31.2z"/>
		</g>
		<g>
			<rect x="15.5" y="25.8" class="st0" width="1.1" height="5.4"/>
		</g>
	</g>
	<g>
		<g>
			<polygon class="st0" points="22.8,27.7 20.9,25.7 21.6,25 22.8,26.2 26.5,22.5 27.2,23.3 			"/>
		</g>
		<g>
			<path class="st0" d="M24,34c-0.1,0-0.2,0-0.3-0.1c-3.3-1.9-5.5-5-6.5-9c-0.8-3-0.5-5.5-0.5-5.6c0-0.2,0.2-0.4,0.5-0.5
				c0,0,4.2-0.5,6.6-2.2c0.2-0.1,0.4-0.1,0.6,0c2.4,1.7,6.5,2.2,6.6,2.2c0.2,0,0.4,0.2,0.5,0.5c0,0.1,0.2,2.5-0.5,5.6
				c-1,4-3.3,7.2-6.5,9C24.2,34,24.1,34,24,34z M17.7,19.8c0,0.8,0,2.7,0.5,4.8c0.9,3.7,2.9,6.4,5.8,8.2c2.9-1.8,4.9-4.5,5.8-8.2
				c0.5-2.2,0.5-4,0.5-4.8c-1.1-0.2-4.1-0.8-6.3-2.1C21.9,19,18.8,19.6,17.7,19.8z"/>
		</g>
	</g>
</g>
</svg>
