<svg xmlns="http://www.w3.org/2000/svg" viewBox="0 0 1947.14 1747.48"><defs><style>.cls-1{isolation:isolate;}.cls-2,.cls-39{fill:#a8c4e5;}.cls-17,.cls-2{opacity:0.4;}.cls-10,.cls-17,.cls-2,.cls-30,.cls-38,.cls-39,.cls-7,.cls-8{mix-blend-mode:multiply;}.cls-3,.cls-8{fill:#88bdeb;}.cls-19,.cls-4,.cls-6{fill:#fff;}.cls-18,.cls-5{fill:#e0eeff;}.cls-18,.cls-19,.cls-42,.cls-5,.cls-6,.cls-9{stroke:#35519c;}.cls-18,.cls-19,.cls-42,.cls-5,.cls-6{stroke-miterlimit:10;}.cls-5,.cls-6,.cls-9{stroke-width:1.5px;}.cls-7{fill:#78b5eb;}.cls-7,.cls-8{opacity:0.43;}.cls-16,.cls-20,.cls-21,.cls-22,.cls-42,.cls-9{fill:none;}.cls-16,.cls-20,.cls-21,.cls-22,.cls-9{stroke-linecap:round;stroke-linejoin:round;}.cls-10{fill:#3457b8;opacity:0.19;}.cls-11{fill:#0e53e6;}.cls-12{fill:#0e2e82;}.cls-13{fill:#3072ff;}.cls-14{fill:#173891;}.cls-15{fill:#e0e0e0;}.cls-16{stroke:#2a417d;stroke-width:2px;}.cls-17{fill:#a8b2e5;}.cls-18,.cls-19{stroke-width:2.32px;}.cls-20{stroke:#849ad1;stroke-width:14.82px;}.cls-21,.cls-22{stroke:#fff;}.cls-21{stroke-width:8.28px;}.cls-22{stroke-width:2.3px;}.cls-23{fill:#97cbff;}.cls-24{fill:#0a8645;}.cls-25{fill:#8ca2db;}.cls-26{fill:#758cc7;}.cls-27{fill:#1c3d5e;}.cls-28{fill:#3ec27d;}.cls-29{fill:#ff8066;}.cls-30{fill:#e8eefa;}.cls-31{fill:#191791;}.cls-32{fill:#acaff2;}.cls-33{fill:#4432db;}.cls-34{fill:#baccf5;}.cls-35{fill:#93b0f5;}.cls-36{fill:#dee5ff;}.cls-37{fill:#d4563b;}.cls-38{fill:#e0e6ff;}.cls-40{fill:#265ac9;}.cls-41{fill:#e1eaf4;}.cls-42{stroke-width:4px;}</style></defs><g class="cls-1"><g id="image"><ellipse class="cls-2" cx="115.22" cy="1221.47" rx="81.26" ry="45.97"/><path class="cls-3" d="M1981.31,1372.57c.67,3-.6,25.5-2,28.73-2.57,10.29-11.54,20.06-26.68,27.26-33.22,15.79-83.48,13.23-112.27-5.71-13.42-8.83-20.71-17.8-20.88-29-.43-6.06-.61-23-.61-23,1.06-3.7,5.34.15,8.06-3.3,4.48-6.8,12-13,22.53-18.06,33.22-15.79,83.49-13.24,112.28,5.71C1973.91,1363.18,1980.47,1362.94,1981.31,1372.57Z" transform="translate(-1812.06 -167.56)"/><ellipse class="cls-4" cx="88.11" cy="1205.02" rx="81.26" ry="45.97"/><ellipse class="cls-5" cx="88.11" cy="1202.51" rx="81.26" ry="45.97"/><ellipse class="cls-6" cx="88.05" cy="1201.3" rx="56.81" ry="32.14"/><path class="cls-7" d="M1863.89,1348.05c24.17-11.32,60-9.42,80,4.25,8,5.45,12.23,11.94,12.94,18.5.85-7.85-3.37-15.9-12.94-22.44-20-13.67-55.81-15.57-80-4.25-14.53,6.81-21.54,16.85-20.48,26.75C1844.34,1362.29,1851.28,1354,1863.89,1348.05Z" transform="translate(-1812.06 -167.56)"/><path class="cls-8" d="M1875,1379.41c-3.38-2.82-6.13-6.8-6.18-10.36l11.21-.67a11.7,11.7,0,0,0,5.29,8.29c3.68,2.45,7,2.74,10.2,1.13,7.29-3.6-10.2-15.09,2.54-21.39,6.93-3.43,15.55-3.27,23.07.17l7.29-3.6,6.37,4.24-7.14,3.54c3.56,3.11,4.32,6.25,4,9.39l-10.81-.3a7.09,7.09,0,0,0-3.62-6.52c-3.16-2.1-6.21-2.57-9.39-1-6.72,3.32,11.19,14.6-2.33,21.28-6.79,3.36-15.51,3.64-23.83-.1l-7.36,3.64-6.37-4.25Z" transform="translate(-1812.06 -167.56)"/><line class="cls-9" x1="89.29" y1="1251.82" x2="89.5" y2="1271.36"/><line class="cls-9" x1="110.2" y1="1250.36" x2="110.28" y2="1269.37"/><line class="cls-9" x1="130.07" y1="1245.56" x2="130.14" y2="1264.57"/><line class="cls-9" x1="147.89" y1="1237.44" x2="147.96" y2="1254.97"/><line class="cls-9" x1="162.47" y1="1225.13" x2="162.07" y2="1242.95"/><line class="cls-9" x1="67.42" y1="1250.36" x2="67.34" y2="1269.37"/><line class="cls-9" x1="47.55" y1="1245.56" x2="47.47" y2="1264.57"/><line class="cls-9" x1="29.73" y1="1237.44" x2="29.66" y2="1254.97"/><line class="cls-9" x1="15.14" y1="1225.13" x2="15.55" y2="1242.95"/><path class="cls-3" d="M1981.31,1338.8c.67,3-.6,25.5-2,28.73-2.57,10.29-11.54,20.06-26.68,27.25-33.22,15.8-83.48,13.24-112.27-5.7-13.42-8.83-20.71-17.81-20.88-29-.43-6.07-.61-23-.61-23,1.06-3.69,5.34.16,8.06-3.29,4.48-6.8,12-13.06,22.53-18.06,33.22-15.8,83.49-13.24,112.28,5.7C1973.91,1329.41,1980.47,1329.17,1981.31,1338.8Z" transform="translate(-1812.06 -167.56)"/><ellipse class="cls-4" cx="88.11" cy="1171.24" rx="81.26" ry="45.97"/><ellipse class="cls-5" cx="88.11" cy="1168.74" rx="81.26" ry="45.97"/><ellipse class="cls-6" cx="88.05" cy="1167.53" rx="56.81" ry="32.14"/><path class="cls-7" d="M1863.89,1314.28c24.17-11.33,60-9.42,80,4.24,8,5.45,12.23,12,12.94,18.51.85-7.86-3.37-15.9-12.94-22.44-20-13.67-55.81-15.57-80-4.25-14.53,6.81-21.54,16.85-20.48,26.74C1844.34,1328.52,1851.28,1320.18,1863.89,1314.28Z" transform="translate(-1812.06 -167.56)"/><path class="cls-8" d="M1875,1345.64c-3.38-2.83-6.13-6.8-6.18-10.36l11.21-.67a11.72,11.72,0,0,0,5.29,8.29c3.68,2.45,7,2.74,10.2,1.13,7.29-3.61-10.2-15.09,2.54-21.39,6.93-3.44,15.55-3.28,23.07.17l7.29-3.61,6.37,4.25-7.14,3.54c3.56,3.11,4.32,6.25,4,9.39l-10.81-.3a7.09,7.09,0,0,0-3.62-6.52c-3.16-2.1-6.21-2.57-9.39-1-6.72,3.33,11.19,14.6-2.33,21.29-6.79,3.36-15.51,3.63-23.83-.1l-7.36,3.64-6.37-4.25Z" transform="translate(-1812.06 -167.56)"/><line class="cls-9" x1="89.29" y1="1218.04" x2="89.5" y2="1237.58"/><line class="cls-9" x1="110.2" y1="1216.59" x2="110.28" y2="1235.6"/><line class="cls-9" x1="130.07" y1="1211.79" x2="130.14" y2="1230.8"/><line class="cls-9" x1="147.89" y1="1203.67" x2="147.96" y2="1221.2"/><line class="cls-9" x1="162.47" y1="1191.36" x2="162.07" y2="1209.17"/><line class="cls-9" x1="67.42" y1="1216.59" x2="67.34" y2="1235.6"/><line class="cls-9" x1="47.55" y1="1211.79" x2="47.47" y2="1230.8"/><line class="cls-9" x1="29.73" y1="1203.67" x2="29.66" y2="1221.2"/><line class="cls-9" x1="15.14" y1="1191.36" x2="15.55" y2="1209.17"/><path class="cls-3" d="M1981.31,1305c.67,3-.6,25.5-2,28.72-2.57,10.3-11.54,20.06-26.68,27.26-33.22,15.79-83.48,13.24-112.27-5.7-13.42-8.83-20.71-17.81-20.88-29-.43-6.06-.61-23-.61-23,1.06-3.7,5.34.16,8.06-3.29,4.48-6.81,12-13.06,22.53-18.07,33.22-15.79,83.49-13.23,112.28,5.71C1973.91,1295.64,1980.47,1295.39,1981.31,1305Z" transform="translate(-1812.06 -167.56)"/><ellipse class="cls-4" cx="88.11" cy="1137.47" rx="81.26" ry="45.97"/><ellipse class="cls-5" cx="88.11" cy="1134.97" rx="81.26" ry="45.97"/><ellipse class="cls-6" cx="88.05" cy="1133.76" rx="56.81" ry="32.14"/><path class="cls-7" d="M1863.89,1280.5c24.17-11.32,60-9.42,80,4.25,8,5.45,12.23,12,12.94,18.51.85-7.86-3.37-15.91-12.94-22.45-20-13.66-55.81-15.57-80-4.24-14.53,6.81-21.54,16.85-20.48,26.74C1844.34,1294.75,1851.28,1286.41,1863.89,1280.5Z" transform="translate(-1812.06 -167.56)"/><path class="cls-8" d="M1875,1311.87c-3.38-2.83-6.13-6.8-6.18-10.36l11.21-.67a11.72,11.72,0,0,0,5.29,8.29c3.68,2.45,7,2.74,10.2,1.13,7.29-3.61-10.2-15.09,2.54-21.4,6.93-3.43,15.55-3.27,23.07.18l7.29-3.61,6.37,4.25-7.14,3.53c3.56,3.12,4.32,6.25,4,9.4l-10.81-.3a7.09,7.09,0,0,0-3.62-6.52c-3.16-2.1-6.21-2.58-9.39-1-6.72,3.33,11.19,14.6-2.33,21.29-6.79,3.36-15.51,3.63-23.83-.11l-7.36,3.64-6.37-4.24Z" transform="translate(-1812.06 -167.56)"/><line class="cls-9" x1="89.29" y1="1184.27" x2="89.5" y2="1203.81"/><line class="cls-9" x1="110.2" y1="1182.82" x2="110.28" y2="1201.83"/><line class="cls-9" x1="130.07" y1="1178.01" x2="130.14" y2="1197.02"/><line class="cls-9" x1="147.89" y1="1169.9" x2="147.96" y2="1187.43"/><line class="cls-9" x1="162.47" y1="1157.59" x2="162.07" y2="1175.4"/><line class="cls-9" x1="67.42" y1="1182.82" x2="67.34" y2="1201.83"/><line class="cls-9" x1="47.55" y1="1178.01" x2="47.47" y2="1197.02"/><line class="cls-9" x1="29.73" y1="1169.9" x2="29.66" y2="1187.43"/><line class="cls-9" x1="15.14" y1="1157.59" x2="15.55" y2="1175.4"/><path class="cls-10" d="M2182.93,978.07l369.63-215.3c10.66-6.21,158.62-37.52,169.44-31.28l230.51,129.43c21.84,28.58-8.62,56.41-31.6,69.8L2375,1245.88a105.49,105.49,0,0,1-61.82,13.62L2045,1236.13C1952.21,1182.67,2091.5,1031.33,2182.93,978.07Z" transform="translate(-1812.06 -167.56)"/><polygon class="cls-11" points="949.51 441.76 999.54 514.97 932.25 483.42 949.51 441.76"/><path class="cls-11" d="M1972.08,824.29a57.8,57.8,0,0,1-14-13.91c-9.81-15.79-4.29-51.7,28.18-38a159.73,159.73,0,0,1,28.55,15.46c14.5,10.08,24,21.5,22.21,31.52C2034.67,832.57,1998.87,842.91,1972.08,824.29Z" transform="translate(-1812.06 -167.56)"/><path class="cls-11" d="M2689,732.65l-121.11-67.36c-26.12-14.52-22.81-40.13,7.35-56.91h0c30.16-16.77,76.2-18.61,102.32-4.08l121.11,67.36c26.11,14.53,22.81,40.13-7.35,56.91h0C2761.18,745.34,2715.14,747.18,2689,732.65Z" transform="translate(-1812.06 -167.56)"/><path class="cls-12" d="M2811.6,762l-49.6,4.54v17.4L2576.43,680.71l-145.67,35.42,2,62.87a31.3,31.3,0,0,0,16.52,27.56l-366,122.88c33.42,18.58,163.12,227.64,196.54,209l489.92-274.21c31-15.49,37.81-45,37.81-45Z" transform="translate(-1812.06 -167.56)"/><path class="cls-11" d="M2736.05,594.8c-118.32-20.39-238.93,88-238.93,88l-43.44,305.67,143.49-79c1.17-53.61,36-105.14,80-130,41.81-22.58,75.51-14,77.4,36.39l16.28-9.28V634.46C2770.81,614.85,2756.09,598.26,2736.05,594.8Z" transform="translate(-1812.06 -167.56)"/><path class="cls-12" d="M2013.19,1224.45l-159.72-88.84a31.31,31.31,0,0,1-16.51-27.56l-1.31-41.51,145-56.78,263.26,146.43-122.72,68.26A111.6,111.6,0,0,1,2013.19,1224.45Z" transform="translate(-1812.06 -167.56)"/><path class="cls-13" d="M2011.21,1181.83,1851.49,1093a31.25,31.25,0,0,1,0-55.12l127.17-70.73,263.27,146.43-122.72,68.26A111.6,111.6,0,0,1,2011.21,1181.83Z" transform="translate(-1812.06 -167.56)"/><path class="cls-12" d="M2351,1092.4c0-3.88-44.32-166.41-135.34-95-39.82,31.24-109.42,172.73-73.47,194.91S2351,1092.4,2351,1092.4Z" transform="translate(-1812.06 -167.56)"/><path class="cls-14" d="M2237.24,1121.85l.39-.22c11.25-6.1,20.24-.87,20.07,11.69s-9.23,27.34-20.3,33.6l-.39.22c-11.25,6.1-20.24.9-20.08-11.66S2226.16,1128.11,2237.24,1121.85Z" transform="translate(-1812.06 -167.56)"/><path class="cls-15" d="M2237.93,1098c23-12.51,41.34-1.86,41,23.78-.36,25.32-18.83,55.81-41.45,68.6-.27.16-.55.31-.83.46-23,12.46-41.31,1.81-41-23.83.35-25.3,18.8-55.77,41.36-68.53Zm-.53,68.93c11.07-6.26,20.14-21.19,20.3-33.6s-8.82-17.79-20.07-11.69l-.39.22c-11.08,6.26-20.14,21.22-20.31,33.63s8.83,17.76,20.08,11.66l.39-.22" transform="translate(-1812.06 -167.56)"/><path class="cls-14" d="M2238.35,1065c38.34-20.82,68.93-3,68.33,39.71q0,1.52-.09,3a117.76,117.76,0,0,1-6.94,33.52c-11.26,31.73-34.82,62.41-62,77.77-.47.27-1,.53-1.43.79-26.59,14.47-49.48,10.33-60.79-7.86-4.13-6.64-6.72-15.16-7.38-25.33-.13-2.09-.19-4.25-.16-6.48.56-42.26,31.36-93,69.06-114.38Zm-.85,125.42c22.62-12.79,41.09-43.28,41.45-68.6.32-25.64-18-36.29-41-23.78l-.88.48c-22.56,12.76-41,43.23-41.36,68.53-.33,25.64,18,36.29,41,23.83.28-.15.56-.3.83-.46" transform="translate(-1812.06 -167.56)"/><path class="cls-14" d="M2680.3,875.24l.38-.21c11.25-6.1,20.24-.87,20.08,11.69-.17,12.41-9.23,27.34-20.31,33.6l-.39.21c-11.25,6.1-20.24.9-20.07-11.65S2669.22,881.51,2680.3,875.24Z" transform="translate(-1812.06 -167.56)"/><path class="cls-15" d="M2681,851.38c23-12.5,41.34-1.86,41,23.78-.35,25.32-18.83,55.82-41.44,68.61l-.83.46c-23,12.45-41.31,1.81-41-23.84.35-25.29,18.8-55.76,41.36-68.52Zm-.54,68.94c11.08-6.27,20.14-21.19,20.31-33.6.16-12.56-8.83-17.79-20.08-11.69l-.38.21c-11.08,6.27-20.15,21.23-20.31,33.64s8.82,17.75,20.07,11.65l.39-.21" transform="translate(-1812.06 -167.56)"/><path class="cls-14" d="M2681.41,818.35c38.34-20.82,68.92-3,68.33,39.71,0,1,0,2-.1,3a117.28,117.28,0,0,1-6.94,33.51c-11.25,31.74-34.81,62.42-62,77.77l-1.43.8c-26.6,14.46-49.49,10.32-60.8-7.87-4.13-6.64-6.71-15.16-7.37-25.32q-.21-3.15-.16-6.49c.56-42.25,31.35-93,69.06-114.38Zm-.85,125.42c22.61-12.79,41.09-43.29,41.44-68.61.33-25.64-18-36.28-41-23.78l-.88.49c-22.56,12.76-41,43.23-41.36,68.52-.33,25.65,18,36.29,41,23.84l.83-.46" transform="translate(-1812.06 -167.56)"/><path class="cls-11" d="M2497.12,682.79l-143.51,84.65s-115,155.75-128.69,169.57c-11.29,11.42-125.47,98-132.7,109.18-15.07,23.47-19.12,35.28-18.33,58.34,0,0,1.34,89.74,1.44,90.5,29.68-2.4,46.14-14.72,57.65-19.76l19.72-11.39c1.17-53.61,36-105.14,80-130,41.81-22.58,75.52-14.05,77.41,36.39L2488.88,968.4Z" transform="translate(-1812.06 -167.56)"/><path class="cls-13" d="M2563.16,508.37l183.13,89.52c-64.48-2.85-132.63,16.3-187.71,48.72l-142.71,84.13a351.53,351.53,0,0,0-104.08,93.7c-15.46,20.87-31.71,42.56-42.07,55.66-12.69,16-57.94,77.66-57.94,77.66s-75.89,55.74-102.33,83.91a217.4,217.4,0,0,0-24.17,31.06c-15.07,23.47-22.88,50.92-22.1,74l-205.41-122.6c-.78-23.06,7-50.52,22.1-74A217.4,217.4,0,0,1,1904,919.08c26.44-28.18,62.75-58,91-81.48,7.35-6.12,65.12-85.5,107.51-144.31a351.72,351.72,0,0,1,114.36-101.71l148.14-82.41q2.58-1.32,5.15-2.56C2431.14,477.28,2502.41,478.67,2563.16,508.37Z" transform="translate(-1812.06 -167.56)"/><path class="cls-13" d="M1995.05,837.6c-11.3,11-28,22.35-39.34,31.81-23.35,19.41-40.83,32.44-61.11,52.28-4.27,4.17-8.66,8.65-13.26,13.55-1.58,1.68-3.14,3.41-4.69,5.17,0,0-26.87,32.83-32.76,52.1-.79,2-1.53,4.11-2.21,6.16-.76,2.28-1.46,4.57-2.1,6.85-.73,2.64-1.38,5.28-1.94,7.9-.71,3.35-1.28,6.68-1.71,10-.75,5.8-1.09,36.51-.91,41.94l228.16,81.39,18.84-59.55c1.54-1.76,3.15-27.65,4.74-29.34,4.59-4.9,1.2,5.47,5.46,1.3,20.28-19.84,44.94-44.81,68.29-64.21,11.38-9.47,27.26-22.26,41.81-33.47Z" transform="translate(-1812.06 -167.56)"/><path class="cls-4" d="M1859.89,1008.59a10.59,10.59,0,0,0,15.37-8.57l5.16-59c-11.68,14.92-22.63,31.47-28.92,44.94a17.22,17.22,0,0,0,8.32,22.64Z" transform="translate(-1812.06 -167.56)"/><path class="cls-4" d="M2034.8,1092.55l82.09-57.26c8.12-5.67,19.08,1.93,16.55,11.55-4.61,17.56-13.57,39.77-30.75,53.13-28.65,22.27-52.93,20.39-67.74,10.36A10.82,10.82,0,0,1,2034.8,1092.55Z" transform="translate(-1812.06 -167.56)"/><polygon class="cls-14" points="353.11 737.47 215.69 653.9 316.66 514.97 454.08 598.55 353.11 737.47"/><polygon class="cls-14" points="395.04 763.16 257.62 679.59 358.58 540.66 496 624.23 395.04 763.16"/><path class="cls-11" d="M2770.81,727.87v78.75l25-12.27A43.1,43.1,0,0,0,2815.31,775h0a43.07,43.07,0,0,0,4.5-22.5l-3.5-48.42Z" transform="translate(-1812.06 -167.56)"/><path class="cls-14" d="M2290.51,965.62l182.42-111,15.45-125.74s-112.1,37.14-203.46,213.72C2278,956,2281.25,971.18,2290.51,965.62Z" transform="translate(-1812.06 -167.56)"/><path class="cls-13" d="M2334.38,942.84a58.08,58.08,0,0,1,15.45,12.39c11.51,14.68,10,51-23.79,40.72a160.23,160.23,0,0,1-30.11-12.43c-15.54-8.53-26.25-18.9-25.57-29C2271.23,941.05,2305.68,927.08,2334.38,942.84Z" transform="translate(-1812.06 -167.56)"/><path class="cls-14" d="M2531.76,828.31l89.09-52.24c21.41-12.54,41.8-45.88,53.72-74.29.27-.68.57-1.34.83-2,11.13-27.43,2.66-55.14-17-51.51-22.42,4.13-111.28,53.39-116,56-.55.27-1.11.56-1.66.88-9.6,5.6-18,18.91-19.48,31.48l-9.19,75.4C2510.26,827.64,2519.58,835.41,2531.76,828.31Z" transform="translate(-1812.06 -167.56)"/><path class="cls-4" d="M2816.15,697.65l.07-.65c.7-7.56-2.83-12.68-8.68-12a25.06,25.06,0,0,0-8.86,3.23c-7.16,4-14.89,10.94-21.3,17.48-7.5,7.64-10.05,19.83-5,24.39,1.94,1.78,4.89,1.83,8,.17l22.06-11.73.31-.17C2809.44,714.66,2815.26,705.82,2816.15,697.65Z" transform="translate(-1812.06 -167.56)"/><line class="cls-16" x1="49.83" y1="860.65" x2="201.54" y2="941.84"/><path class="cls-17" d="M2756.54,1682.39l-547.75-285.67c-19.69-10.26-17-29.26,6.07-42.42L2969.69,923c23-13.17,57.67-15.51,77.36-5.25l547.75,285.67c19.69,10.26,17,29.26-6.07,42.42L2833.9,1677.14C2810.86,1690.31,2776.23,1692.65,2756.54,1682.39Z" transform="translate(-1812.06 -167.56)"/><path class="cls-12" d="M3568.29,1194.92a30.81,30.81,0,0,0-7.31-5.2L3013.23,904.05c-19.69-10.26-54.32-7.92-77.36,5.25L2181,1340.59a58.69,58.69,0,0,0-7,4.65l-12.26,5.61.25,16.94c.95,5.83,5.18,11.2,12.9,15.22l547.75,285.67c19.68,10.26,54.32,7.92,77.35-5.24l754.84-431.3c12-6.83,18.39-15.24,19.1-23.18l.12-13.51Z" transform="translate(-1812.06 -167.56)"/><path class="cls-18" d="M2722.72,1655.13,2175,1369.47c-19.69-10.27-17-29.26,6.06-42.43l754.84-431.29c23-13.16,57.67-15.51,77.36-5.24L3561,1176.17c19.68,10.27,17,29.26-6.07,42.42l-754.84,431.3C2777,1663.05,2742.4,1665.4,2722.72,1655.13Z" transform="translate(-1812.06 -167.56)"/><polygon class="cls-19" points="944.5 1441.82 417.89 1167.18 1174.64 745.58 1701.25 1020.22 944.5 1441.82"/><path class="cls-12" d="M3383.1,1083.85l-18-9.39h0c21.22-11.82,21.22-30.39,0-41.46l-97.52-50.86c-21.23-11.07-55.64-10.45-76.87,1.37l-12.1-6.31c-22.09-11.52-57.92-10.88-80,1.43h0c-22.1,12.31-22.1,31.63,0,43.15l204.5,106.65c22.09,11.52,57.92,10.89,80-1.42h0C3405.2,1114.7,3405.2,1095.38,3383.1,1083.85Z" transform="translate(-1812.06 -167.56)"/><path class="cls-13" d="M3383.1,1067.56l-18-9.39h0c21.22-11.82,21.22-30.38,0-41.46l-97.52-50.85c-21.23-11.08-55.64-10.46-76.87,1.36l-12.1-6.31c-22.09-11.52-57.92-10.88-80,1.43h0c-22.1,12.31-22.1,31.63,0,43.15l204.5,106.65c22.09,11.53,57.92,10.89,80-1.42h0C3405.2,1098.41,3405.2,1079.09,3383.1,1067.56Z" transform="translate(-1812.06 -167.56)"/><path class="cls-4" d="M3327.21,1064.74l-149.3-80.19a7.47,7.47,0,0,1-.25-13.15h0a8.8,8.8,0,0,1,8.71-.3l149.3,80.19a7.47,7.47,0,0,1,.26,13.15h0A8.82,8.82,0,0,1,3327.21,1064.74Z" transform="translate(-1812.06 -167.56)"/><line class="cls-20" x1="1254.07" y1="952.93" x2="1397.98" y2="1029.04"/><line class="cls-20" x1="1201.22" y1="981.15" x2="1444.53" y2="1108.03"/><polygon class="cls-13" points="1120.28 944.06 1026.29 894.74 1119.97 842.42 1213.96 891.74 1120.28 944.06"/><polyline class="cls-21" points="1099.59 875.35 1092.85 902.26 1159.35 895.34"/><line class="cls-20" x1="1044.95" y1="1067.64" x2="1188.86" y2="1143.75"/><line class="cls-20" x1="992.1" y1="1095.86" x2="1235.41" y2="1222.73"/><polygon class="cls-13" points="911.16 1058.77 817.17 1009.45 910.85 957.13 1004.84 1006.45 911.16 1058.77"/><polyline class="cls-21" points="890.47 990.06 883.72 1016.97 950.23 1010.04"/><line class="cls-20" x1="835.83" y1="1182.34" x2="979.74" y2="1258.46"/><line class="cls-20" x1="782.98" y1="1210.57" x2="1026.29" y2="1337.44"/><polygon class="cls-13" points="702.04 1173.47 608.04 1124.16 701.73 1071.84 795.72 1121.16 702.04 1173.47"/><polyline class="cls-21" points="681.35 1104.77 674.6 1131.68 741.11 1124.75"/><path class="cls-17" d="M3705.88,1445.33c-28.69-57.95-120.62-87.74-221-71.17-88.79,14.64-144.5,63.6-136.34,114.81-2.09,13.09-.11,26.61,6.52,40a92.39,92.39,0,0,0,15.56,22l-29.92,17.27a54.43,54.43,0,0,0-12.41-8.42c-9.39-4.47-17.5-4.13-22.93,0h0l-165.21,98.67h0c-6.08,3.48-9.5,11-8.65,21.67,1.58,20,17.58,43.28,35.73,51.92,8.05,3.84,15.17,4.14,20.46,1.55h0l.22-.12a15.35,15.35,0,0,0,1.91-1.15l164-98.14h0c7-3,11.09-11,10.18-22.45a49.4,49.4,0,0,0-1.61-8.93l43.51-25.12c46.94,26,115.82,37.28,182.85,26.22,88.78-14.65,144.49-63.6,136.33-114.82C3727.2,1476,3712.51,1458.73,3705.88,1445.33Zm-277.47,87.39q4.62,3,9.68,5.69Q3433,1535.71,3428.41,1532.72Zm240.27-25.51a60.31,60.31,0,0,0,5.94-11.41,60.31,60.31,0,0,1-5.94,11.41,70,70,0,0,1-5.48,7.25A70,70,0,0,0,3668.68,1507.21ZM3465.83,1550c3.57,1.15,7.23,2.19,11,3.16-3.73-1-7.39-2-11-3.16q-6-1.92-11.65-4.16Q3459.82,1548.07,3465.83,1550Zm66,10.38c-7-.1-14-.49-20.81-1.17C3517.84,1559.89,3524.79,1560.28,3531.82,1560.38Zm42.59-3.17c23.7-3.91,44.28-11.06,60.72-20.37-16.44,9.31-37,16.46-60.72,20.37a241,241,0,0,1-28.47,3A241.26,241.26,0,0,0,3574.41,1557.21Zm78.39-32.52c-2.59,2.18-5.37,4.28-8.31,6.31C3647.43,1529,3650.21,1526.87,3652.8,1524.69Z" transform="translate(-1812.06 -167.56)"/><path class="cls-19" d="M3313.53,1611l-35.73-20.64,96.94-56c20-12.21,41.71,14.42,26.44,25.08Z" transform="translate(-1812.06 -167.56)"/><path class="cls-12" d="M3700.57,1442.65c-28.69-58-133.32-91.52-233.7-75s-158.5,77-129.82,134.93,133.32,91.51,233.71,75S3729.26,1500.6,3700.57,1442.65ZM3562,1557.49c-85.95,14.18-175.53-14.55-200.1-64.17s25.2-101.34,111.15-115.52,175.53,14.55,200.09,64.17S3648,1543.31,3562,1557.49Z" transform="translate(-1812.06 -167.56)"/><ellipse class="cls-11" cx="3315.49" cy="1593.29" rx="25.73" ry="44.57" transform="matrix(0.82, -0.57, 0.57, 0.82, -2131, 1993.12)"/><polygon class="cls-11" points="1312.41 1488.11 1477.62 1389.44 1526.12 1463.85 1359.96 1563.26 1312.41 1488.11"/><ellipse class="cls-12" cx="3148.68" cy="1692.99" rx="25.73" ry="44.57" transform="translate(-2216.94 1916.11) rotate(-34.54)"/><path class="cls-22" d="M3119.55,1658.81c5.43-3.73,13.32-3.88,22.39.44,18.15,8.65,34.15,31.89,35.73,51.93.66,8.27-1.25,14.7-5,18.79" transform="translate(-1812.06 -167.56)"/><path class="cls-11" d="M3700.57,1431.94c-28.69-58-133.32-91.52-233.7-75s-158.5,77-129.82,134.93,133.32,91.51,233.71,74.95S3729.26,1489.89,3700.57,1431.94ZM3562,1546.78c-85.95,14.18-175.53-14.55-200.1-64.17s25.2-101.35,111.15-115.53,175.53,14.56,200.09,64.18S3648,1532.6,3562,1546.78Z" transform="translate(-1812.06 -167.56)"/><path class="cls-4" d="M3553.82,1504.55l1.27.24a7.19,7.19,0,0,0,7.27-3.75l36-72.54c1.28-2.57.1-5.1-2.63-5.61l-1.27-.24a7.2,7.2,0,0,0-7.27,3.75l-36,72.55C3549.91,1501.52,3551.1,1504,3553.82,1504.55Z" transform="translate(-1812.06 -167.56)"/><path class="cls-4" d="M3524,1490.93l.6.11a3.44,3.44,0,0,0,3.47-1.79l38.4-77.44a1.76,1.76,0,0,0-1.26-2.67l-.6-.12a3.44,3.44,0,0,0-3.47,1.79l-38.4,77.44A1.77,1.77,0,0,0,3524,1490.93Z" transform="translate(-1812.06 -167.56)"/><path class="cls-22" d="M3314.14,1557s22.39,6.51,33.73,48" transform="translate(-1812.06 -167.56)"/><path class="cls-8" d="M3618.29,382.21c-39.26-21.76-77.06-23.7-107.84-9.67l0,0-50.13,28.35,2.19,15.57c-12.65,20.64-21.19,46.87-24.25,77.83-11,110.55,51.9,239.61,140.39,288.28,18.74,10.3,37.11,16.13,54.56,17.93h0l27,6.43c4.44-1.44,24.77-13.92,29-16l.73-.3,0,0c36.74-18.46,65.22-60.11,68.84-120.09C3765.34,559.89,3706.11,430.86,3618.29,382.21Z" transform="translate(-1812.06 -167.56)"/><ellipse class="cls-18" cx="3556.99" cy="601.39" rx="148.94" ry="230.51" transform="translate(-1759.48 1289.93) rotate(-23.32)"/><ellipse class="cls-19" cx="3556.99" cy="601.39" rx="119.6" ry="185.09" transform="translate(-1759.48 1289.94) rotate(-23.32)"/><path class="cls-7" d="M3567.74,760c-72.34-41.71-123.58-146.92-114.45-235,5.83-56.23,34.88-91.83,73.95-99.38-52.36-6.41-94.12,31.51-101.24,100.2-9.14,88.07,42.1,193.27,114.45,235,26.16,15.08,51.48,19.77,73.6,15.47C3599.28,774.51,3583.66,769.19,3567.74,760Z" transform="translate(-1812.06 -167.56)"/><path class="cls-23" d="M3571.35,465.7c0,7.44-4.66,13.62-10.29,13.79s-10.16-5.73-10.1-13.18,4.66-13.62,10.29-13.79S3571.41,458.25,3571.35,465.7Z" transform="translate(-1812.06 -167.56)"/><path class="cls-23" d="M3562.37,741.15c0,7.45-4.66,13.62-10.29,13.79s-10.16-5.73-10.1-13.17,4.66-13.62,10.29-13.79S3562.42,733.7,3562.37,741.15Z" transform="translate(-1812.06 -167.56)"/><path class="cls-23" d="M3659.36,676.93c-6.17-3.44-8.91-10.48-6.14-15.74s10-6.74,16.18-3.31,8.91,10.48,6.14,15.74S3665.52,680.36,3659.36,676.93Z" transform="translate(-1812.06 -167.56)"/><path class="cls-23" d="M3438,554c-6.17-3.43-8.91-10.47-6.14-15.73s10-6.74,16.18-3.31,8.91,10.48,6.14,15.74S3444.16,557.46,3438,554Z" transform="translate(-1812.06 -167.56)"/><path class="cls-23" d="M3610.78,711.25l-59.54-104.12a1.58,1.58,0,0,1,.43-2.14h0a1.5,1.5,0,0,1,2,.66l59.54,104.13a1.57,1.57,0,0,1-.43,2.13h0A1.49,1.49,0,0,1,3610.78,711.25Z" transform="translate(-1812.06 -167.56)"/><path class="cls-23" d="M3556.78,609l-81.53,52.32A6.49,6.49,0,0,1,3466,659h0a7.52,7.52,0,0,1,2.51-9.85L3550,596.82a6.49,6.49,0,0,1,9.28,2.28h0A7.55,7.55,0,0,1,3556.78,609Z" transform="translate(-1812.06 -167.56)"/><path class="cls-24" d="M3562.28,532.56l-2.6,68a7.3,7.3,0,0,1-7.07,7.13h0a6.72,6.72,0,0,1-6.52-7.18l2.6-68a7.29,7.29,0,0,1,7.07-7.12h0A6.72,6.72,0,0,1,3562.28,532.56Z" transform="translate(-1812.06 -167.56)"/><path class="cls-24" d="M3564.82,606c-.05,7.43-5.63,11.47-12.46,9s-12.32-10.47-12.27-17.9,5.63-11.47,12.46-9S3564.87,598.54,3564.82,606Z" transform="translate(-1812.06 -167.56)"/><path class="cls-4" d="M3558,602.75c0,3.35-2.54,5.17-5.62,4.07a9.08,9.08,0,0,1-5.54-8.08c0-3.36,2.54-5.18,5.62-4.07A9.06,9.06,0,0,1,3558,602.75Z" transform="translate(-1812.06 -167.56)"/><ellipse class="cls-17" cx="1377.68" cy="636.24" rx="127.13" ry="58.31"/><ellipse class="cls-25" cx="3126.51" cy="796.32" rx="59.01" ry="102.21" transform="translate(501.19 3750.91) rotate(-89.69)"/><polygon class="cls-25" points="1164.47 485.46 1212.57 632.9 1415.92 636.24 1462.34 494.14 1164.47 485.46"/><path class="cls-26" d="M3211.25,658.86l-46.42,141.55h0c-6.42,21.67-12.26,26.5-28.94,36.13-12.07,7-26.44,13-41.71,15.6,34.35,5.77,72.59-.72,99.48-16.24,16.68-9.63,26.31-14.51,28.94-35.49h0L3269,658.86Z" transform="translate(-1812.06 -167.56)"/><ellipse class="cls-19" cx="3126.51" cy="643.64" rx="87.17" ry="150.99" transform="translate(653.87 3599.05) rotate(-89.69)"/><ellipse class="cls-27" cx="3125.47" cy="640.82" rx="74.83" ry="129.61" transform="translate(655.64 3595.21) rotate(-89.69)"/><path class="cls-24" d="M3130.73,596.75C3143.58,479.85,3243,287.67,3243,287.67c-128.13,38-136.58,164.67-136.58,164.67Z" transform="translate(-1812.06 -167.56)"/><path class="cls-24" d="M3101.74,493.43c13.51-116.83-43-325.87-43-325.87,116.44,65.61,96.47,191,96.47,191Z" transform="translate(-1812.06 -167.56)"/><path class="cls-28" d="M3298.09,352.44c-107,24.15-171.6,211.36-171.6,211.36l0,.37c-3.95-238.57-154.66-301.83-154.66-301.83C3016.81,327.83,3059.19,551,3072,623c4.81,27.09,28.83,46.92,56.31,45.6,1.52-.07,3.06-.19,4.6-.36,23.53-2.56,42.06-20.94,46.65-44.16C3199.31,524.26,3298.09,352.44,3298.09,352.44Z" transform="translate(-1812.06 -167.56)"/><path class="cls-29" d="M2258.19,1368.53s40,72.07,42.92,116.79c0,0-11.12,24.5-19.24,2.74-19.83-53.09-33.53-98.54-49.42-116.62S2258.19,1368.53,2258.19,1368.53Z" transform="translate(-1812.06 -167.56)"/><ellipse class="cls-30" cx="2184.1" cy="1785.26" rx="91.81" ry="45.61" transform="translate(-1850.05 -120.03) rotate(-1.24)"/><path class="cls-31" d="M2168.36,1799.54l-15.35-35c-2.6-3-9.79-5.49-15.15-5.68-2.41-.08-4.88,1.91-5.94,4.69l-2.29,6c-3.55,8.56-3.31,10,.11,13.93l20.32,23.6c3.42,4,10,5.65,14.71,3.72l1.32-.55C2170.76,1808.35,2171.78,1803.52,2168.36,1799.54Z" transform="translate(-1812.06 -167.56)"/><path class="cls-32" d="M2129.73,1763.87c0,8.31,20.77,10.52,20.74,2.21l-.11-27-20.74-2.21Z" transform="translate(-1812.06 -167.56)"/><path class="cls-31" d="M2246.09,1768.17l-34.23-24.3a26.9,26.9,0,0,0-16.07-.85c-2.81.65-3.21-1.45-3.12,1.16l-3.22,10.88c-2.95,7.23-3.77,8.42,4.52,11.45l34.59,13.41c5.82,2.26,14.25,1.65,18.72-1.35l1.27-.85C2253,1774.73,2251.91,1770.43,2246.09,1768.17Z" transform="translate(-1812.06 -167.56)"/><path class="cls-32" d="M2192.7,1746.2c0,8.58,20.86,8.58,20.86,0v-27.87H2192.7Z" transform="translate(-1812.06 -167.56)"/><path class="cls-33" d="M2192.74,1737.79c8.26,5.94,21.77,5.81,26.19-1.1,14.14-85.44,19.73-172.4,17.47-260.75l-65.08-19.47C2184.34,1562.54,2199.43,1656.4,2192.74,1737.79Z" transform="translate(-1812.06 -167.56)"/><path class="cls-33" d="M2127.86,1746.49c5.88,10.17,20.65,11.83,25.48,5.46l48.88-281.35-69.42-5.27Z" transform="translate(-1812.06 -167.56)"/><path class="cls-31" d="M2184.44,1567.8l4.77,26.21,15.88-78.54c-3.2,1-3.25-3-6.86-2.34Z" transform="translate(-1812.06 -167.56)"/><path class="cls-29" d="M2147.86,1397.39c-15.51,18.36-23.18,27.27-35.35,52.43-8,16.46-4.46,30.69,2.41,39.65,9.4,12.24,20.2,26,20.2,26l-12,11s-43.86-37.55-36.86-72l25.88-81.61Z" transform="translate(-1812.06 -167.56)"/><path class="cls-29" d="M2124.69,1518.61l1.95-1.84c3.59-3.38,9.58-2.9,13.32,1.06l7.67,8.13c3.74,4,3.86,10,.28,13.36l-2,1.83c-3.58,3.38-9.57,2.9-13.31-1.06L2125,1532C2121.23,1528,2121.1,1522,2124.69,1518.61Z" transform="translate(-1812.06 -167.56)"/><path class="cls-34" d="M2238.88,1321.71c20.66,33.13,40.51,66.47,42.74,89.12-5.43,19-10.66,8.43-23.91,13.12l-39.65-69.58,10.85-18.21Z" transform="translate(-1812.06 -167.56)"/><path class="cls-34" d="M2241.06,1480.28c1-32.78,1.9-63.2,8.06-103.9,1.77-56.55-18.94-78.15-55-66.26l-14.84,3.45c-43.73,21.82-65.53,20-59.26,65.73l4.41,100C2122.85,1530.64,2241.91,1540.74,2241.06,1480.28Z" transform="translate(-1812.06 -167.56)"/><polygon class="cls-35" points="335.8 1226.34 314.86 1302.74 312.4 1310.17 310.84 1272.98 335.8 1226.34"/><path class="cls-34" d="M2151.59,1385l-40.44,76.71c-3.19,4.63-26.7-2.63-26.43-10.8.59-17.1,27.4-105.91,52.93-117C2158.39,1324.86,2163.75,1357.55,2151.59,1385Z" transform="translate(-1812.06 -167.56)"/><path class="cls-29" d="M2294.8,1516.82h0a9.68,9.68,0,0,0,5.72-12.38l-7.86-21.4a9.67,9.67,0,0,0-12.38-5.72h0a9.66,9.66,0,0,0-5.72,12.37l7.86,21.4A9.67,9.67,0,0,0,2294.8,1516.82Z" transform="translate(-1812.06 -167.56)"/><path class="cls-29" d="M2299.76,1499.29h0a9.67,9.67,0,0,0,5.72-12.37l-7.87-21.4a9.67,9.67,0,0,0-12.38-5.72h0a9.68,9.68,0,0,0-5.72,12.37l7.87,21.4A9.66,9.66,0,0,0,2299.76,1499.29Z" transform="translate(-1812.06 -167.56)"/><polygon class="cls-36" points="486.68 1332.05 469.56 1341.36 474.45 1350.81 492.65 1339.47 486.68 1332.05"/><path class="cls-24" d="M2407.25,1500.87s-19.54,83.79-64.69,68.24c-36.82-12.68-58.71-50.75-58.71-50.75l23.32-12.35s35.65,30.67,46.44,28c24.45-6,20.13-60.19,37-65.44C2400.17,1465.63,2407.25,1500.87,2407.25,1500.87Z" transform="translate(-1812.06 -167.56)"/><path class="cls-35" d="M2109.75,1452.72s6,4.43,3,10.68-34.2,2.28-31.92-7.75S2084.91,1441.27,2109.75,1452.72Z" transform="translate(-1812.06 -167.56)"/><path class="cls-35" d="M2263.8,1428.89a8.82,8.82,0,0,1-10.58-6.87,1.42,1.42,0,0,0,0-.2c-1.16-6.86,26.5-21.74,30.48-12.24C2287.4,1418.5,2286.24,1424,2263.8,1428.89Z" transform="translate(-1812.06 -167.56)"/><path class="cls-31" d="M2202,1312.47s-4.88,5.9-7.62,6.86-36.35-19.44-29.07-48.38c4.6-18.33,39.3-9.13,39.3-9.13Z" transform="translate(-1812.06 -167.56)"/><path class="cls-29" d="M2182.85,1337.37l-7.33-9c5.65,1.58,20.94,4.62,22.52-1l8.55-28.72a10.68,10.68,0,0,0-7.37-13.14l-1.67-.46a10.67,10.67,0,0,0-13.14,7.37l-13.08,29.31C2169.74,1327.37,2177.21,1335.79,2182.85,1337.37Z" transform="translate(-1812.06 -167.56)"/><path class="cls-37" d="M2201.77,1315.83a29.16,29.16,0,0,1-21.61-15.47s6.6,21.28,19.11,24.37Z" transform="translate(-1812.06 -167.56)"/><path class="cls-31" d="M2133.1,1550.68s17.17-30.17,17.42-33.24c0,0,6.54,15.74,0,24.49S2133.1,1550.68,2133.1,1550.68Z" transform="translate(-1812.06 -167.56)"/><path class="cls-24" d="M2499,1455c19.08,28.93,26.15,49.26,33.69,82.65,1.62,7.2,2.25,11.49.34,18.54-6.37,23.46-13.68,24.57-16.43,49-1.38,12.33-16.83,6.33-15.43-6.15,2.55-22.72,2.94-18.14,10.18-39.86,1.36-4.1,2.85-8.13,4.41-12.15-1.43,3.68.48,6.4-.27,3.11-.46-2.06-.89-4.13-1.35-6.19-7.19-32.17-15-67.88-33.34-95.71-6.93-10.51,9.95-20.28,16.84-9.84Z" transform="translate(-1812.06 -167.56)"/><path class="cls-24" d="M2503.19,1446.07c12.91,22.49,22.26,60.5,30.75,91.27,3.22,8.49,1.19,16.18-4.19,15.84l-17.95,2.48c-4.44-.28-12.86-9.86-14.93-17l-22.77-78.26c-3.71-12.73-1-23.68,6.32-25.32L2463,1422.43C2464.3,1417.74,2495.43,1422.85,2503.19,1446.07Z" transform="translate(-1812.06 -167.56)"/><path class="cls-31" d="M2442.86,1588.61l90.1,52a6.62,6.62,0,0,0,9.93-5.73v-62.75a6.61,6.61,0,0,0-3.31-5.73l-90.1-52a6.62,6.62,0,0,0-9.93,5.74v62.74A6.6,6.6,0,0,0,2442.86,1588.61Z" transform="translate(-1812.06 -167.56)"/><path class="cls-29" d="M2491.62,1629l6.55,3a10.09,10.09,0,0,0,13.31-5h0a10.09,10.09,0,0,0-5-13.3l-6.55-3a10.09,10.09,0,0,0-13.31,5h0A10.08,10.08,0,0,0,2491.62,1629Z" transform="translate(-1812.06 -167.56)"/><ellipse class="cls-38" cx="2443.34" cy="1879.69" rx="35.33" ry="71.12" transform="translate(-1291.42 4121.77) rotate(-88.98)"/><path class="cls-31" d="M2491.22,1842.07l-17.81-2.24c-11.92-5.41-17.49-9.48-22.8-6.41l-1.5.87c-5.31,3.06-4.64,8.47,1.49,12l26.17,20.83a17.25,17.25,0,0,0,19.28-1.87s2.93-2.64.84-13.78C2495.7,1845.13,2496.12,1844.9,2491.22,1842.07Z" transform="translate(-1812.06 -167.56)"/><path class="cls-31" d="M2413.4,1877.66l-17.45,6.12c-13.49.68-20.51-.34-24,4.75l-1,1.44c-3.47,5.1-.34,9.52,7,9.84l38,6.35c7.29.31,10.21-4.43,12.73-10.41a25.49,25.49,0,0,0-2.59-15.1C2423.08,1874.92,2419.23,1877.91,2413.4,1877.66Z" transform="translate(-1812.06 -167.56)"/><path class="cls-4" d="M2405.76,1883.79c0,8.33,20.28,8.33,20.28,0v-27.1h-20.28Z" transform="translate(-1812.06 -167.56)"/><path class="cls-36" d="M2403.2,1866.66c2.56,10.57,23.64,9.8,27.75,3-1.34-91.15,9.77-185.81,32.75-282.21h-73.19C2390.15,1680.9,2393.71,1774,2403.2,1866.66Z" transform="translate(-1812.06 -167.56)"/><path class="cls-4" d="M2474.78,1843.72c.47,7.55,20.74,7.55,20.28,0l-1.5-24.54h-20.28Z" transform="translate(-1812.06 -167.56)"/><path class="cls-36" d="M2470.81,1832.82c8.1,8.34,24,4.78,27.1-1.24l-10.74-244.41-51,7.55Z" transform="translate(-1812.06 -167.56)"/><ellipse class="cls-29" cx="2437.23" cy="1384.97" rx="38.09" ry="21.59" transform="translate(-1060.94 3456.89) rotate(-82.63)"/><path class="cls-29" d="M2398.78,1400.11c5,17.52,23.8,23.86,34.84,12.42s15.91-34.9,10.89-52.41-18.05-22.45-29.09-11S2393.76,1382.6,2398.78,1400.11Z" transform="translate(-1812.06 -167.56)"/><path class="cls-29" d="M2441.26,1450.66l1.88-.42a11.84,11.84,0,0,0,9-14.1l-8-35.75a11.85,11.85,0,0,0-14.1-9l-1.88.42a11.85,11.85,0,0,0-9,14.1l2.61,35.48C2423.21,1447.77,2434.92,1452.07,2441.26,1450.66Z" transform="translate(-1812.06 -167.56)"/><path class="cls-31" d="M2462.57,1402.75s-1.9,16.5-25.34,13.2c-16.82-2.37-11.92-29.73-28.74-32.48-18.49-3-21.84-25.86-14.56-34.63s27.66-13.36,42.42-6.85S2473.85,1348.11,2462.57,1402.75Z" transform="translate(-1812.06 -167.56)"/><path class="cls-29" d="M2408.42,1393a8,8,0,1,0,5.5-9.92A8,8,0,0,0,2408.42,1393Z" transform="translate(-1812.06 -167.56)"/><path class="cls-24" d="M2489.31,1584c-6-32.81,6.36-55.2,5.84-90.09,2.83-58.23-15.94-74.14-36.06-72,0,0-18.19,5.36-22.32,7.49-43.72,22.52-55.38,29.47-53.47,55.6-.19,43,6.15,91.3,7,112.47C2399.36,1627.18,2479.31,1605.29,2489.31,1584Z" transform="translate(-1812.06 -167.56)"/><path class="cls-37" d="M2420.09,1418.29l1.9-4.39s-3.38,3.39-9.83,2.56A15.4,15.4,0,0,0,2420.09,1418.29Z" transform="translate(-1812.06 -167.56)"/><polygon class="cls-32" points="635.6 1508.58 657.1 1477.71 635.6 1487.17 635.6 1508.58"/><path class="cls-31" d="M2199,1356.11h0c-4.25.87-8.39-1.58-9.19-5.44l-2.23-10.71c-.81-3.87,2-7.74,6.26-8.61h0c4.25-.87,8.39,1.57,9.19,5.44l2.23,10.71C2206.06,1351.36,2203.24,1355.23,2199,1356.11Z" transform="translate(-1812.06 -167.56)"/><path class="cls-31" d="M2193.25,1353.72c2.95,20.24-.42,46-2.69,71.41l16.37,11.52,9.18-15.8a284.44,284.44,0,0,0-11.66-70.26Z" transform="translate(-1812.06 -167.56)"/><path class="cls-4" d="M2176.11,1311l-14.61,10.7s10.17,19.47,22.6,22.85l10-14.64S2179.64,1323.29,2176.11,1311Z" transform="translate(-1812.06 -167.56)"/><path class="cls-4" d="M2203.83,1304.85l11.68,6.16s4.23,26.36-8.52,31.09l-14.61-12.18S2203.83,1324.73,2203.83,1304.85Z" transform="translate(-1812.06 -167.56)"/><ellipse class="cls-29" cx="2212.16" cy="1283.07" rx="33.22" ry="18.83" transform="translate(-1031.7 3234.44) rotate(-86.07)"/><path class="cls-29" d="M2179.47,1298.26c5.29,15,30.75,25,39.76,14.46s3.26-36.69-2-51.67-16.89-18.61-25.91-8.07S2174.18,1283.27,2179.47,1298.26Z" transform="translate(-1812.06 -167.56)"/><path class="cls-31" d="M2197.8,1262.88s2.35,29.38-21.07,35.17c0,0-25.65-16-5.5-43.53,17.77-24.27,44.28-4.46,44.28-4.46Z" transform="translate(-1812.06 -167.56)"/><path class="cls-31" d="M2231,1283.75s-2.69-12.66-17.77-18.47l12.28-6.78S2237.67,1261.72,2231,1283.75Z" transform="translate(-1812.06 -167.56)"/><path class="cls-31" d="M2185.08,1279.67c5.32-6.68,16.19-6.24,31.47-.15a13.57,13.57,0,0,0,7.32,1c11.58-2,13.79-16.18,13.79-16.18,2.8-9.45-3.36-14-12.81-16.77l-24.61-7.3c-13.92-4.22-27.92,6.87-30.73,16.32l-.7,1.55C2166,1267.58,2175.63,1276.86,2185.08,1279.67Z" transform="translate(-1812.06 -167.56)"/><path class="cls-29" d="M2174.16,1297.06a7,7,0,1,0,4.27-8.93A7,7,0,0,0,2174.16,1297.06Z" transform="translate(-1812.06 -167.56)"/><polygon class="cls-8" points="1613.81 850.22 1692.21 892.59 1692.21 829.12 1613.81 786.75 1613.81 850.22"/><polygon class="cls-8" points="1789.51 949.38 1711.12 907.01 1711.12 751.34 1789.51 793.72 1789.51 949.38"/><polygon class="cls-8" points="1817.65 712.73 1817.65 808.83 1817.65 868.39 1817.65 964.5 1896.05 1006.87 1896.05 910.77 1896.05 851.21 1896.05 755.1 1817.65 712.73"/><path class="cls-39" d="M3303,1196c-6.72-18-26.52-25.59-44.24-17l-.62.32v0l-33,16a26,26,0,0,0-3.76,1.52l-.62.33v0l-12.18,5.89h0l-354.23,171.58a9.69,9.69,0,0,0-2.95,1.06l-30,40.72h0l-28.19,34,50.43-6.85h0l39.1-4.19a16.51,16.51,0,0,0,3.3-4.45l.9,1.51,331.13-160.12a28.38,28.38,0,0,1-4.19,2.82c-.21.11-.43.19-.64.29h0l16.35-7.67v0c.21-.09.42-.18.63-.29a36.27,36.27,0,0,0,4-2.31l11.49-5.39v0l.64-.28a26.22,26.22,0,0,0,6.58-4.77l29.47-14.25h0l.64-.29C3300.83,1235.48,3309.75,1214,3303,1196Z" transform="translate(-1812.06 -167.56)"/><path class="cls-13" d="M3255.19,1167.11l-.62.32h0L3191,1198.13c-17.71,8.57-26.63,30.07-19.91,48s26.52,25.59,44.23,17l63.52-30.71v0l.63-.29c17.72-8.56,26.63-30.07,19.91-48S3272.9,1158.55,3255.19,1167.11Z" transform="translate(-1812.06 -167.56)"/><path class="cls-40" d="M3279.51,1232.16l-396.11,192.3-20.24-34,385.58-187.18C3306.75,1175.48,3313,1211.66,3279.51,1232.16Z" transform="translate(-1812.06 -167.56)"/><path class="cls-13" d="M2863.16,1390.46c-3.46-17.1-15.45-5-12.88-27.56l361.66-175.17c26.61-4.89,36.14,2.34,38.33,14.79Z" transform="translate(-1812.06 -167.56)"/><path class="cls-41" d="M2847.82,1363.73l-53.54,72.77,84.92-9.1C2898.18,1409.46,2866,1353.32,2847.82,1363.73Z" transform="translate(-1812.06 -167.56)"/><path class="cls-12" d="M2789.66,1438.44l28.2-34q21.88,4.4,22.24,27.14Z" transform="translate(-1812.06 -167.56)"/><ellipse class="cls-2" cx="109.11" cy="1328.49" rx="81.26" ry="45.97"/><path class="cls-3" d="M1975.21,1479.59c.67,3-.6,25.5-2,28.72-2.57,10.3-11.54,20.06-26.68,27.26-33.22,15.79-83.49,13.24-112.28-5.71-13.41-8.82-20.7-17.8-20.87-29-.43-6.06-.61-23-.61-23,1.06-3.7,5.34.16,8-3.29,4.49-6.81,12-13.06,22.54-18.07,33.22-15.79,83.49-13.23,112.28,5.71C1967.8,1470.2,1974.37,1470,1975.21,1479.59Z" transform="translate(-1812.06 -167.56)"/><ellipse class="cls-4" cx="82.01" cy="1312.03" rx="81.26" ry="45.97"/><ellipse class="cls-5" cx="82.01" cy="1309.53" rx="81.26" ry="45.97"/><ellipse class="cls-6" cx="81.95" cy="1308.32" rx="56.81" ry="32.14"/><path class="cls-7" d="M1857.79,1455.06c24.17-11.32,60-9.42,80,4.25,8,5.45,12.23,12,12.94,18.51.85-7.86-3.37-15.91-12.94-22.45-20-13.67-55.81-15.57-80-4.24-14.54,6.8-21.55,16.85-20.48,26.74C1838.24,1469.31,1845.18,1461,1857.79,1455.06Z" transform="translate(-1812.06 -167.56)"/><path class="cls-8" d="M1868.89,1486.43c-3.38-2.83-6.14-6.8-6.18-10.37l11.21-.66a11.68,11.68,0,0,0,5.29,8.29c3.68,2.45,7,2.74,10.2,1.13,7.29-3.61-10.2-15.09,2.54-21.4,6.93-3.43,15.55-3.27,23.07.18l7.29-3.61,6.37,4.25-7.15,3.53c3.57,3.12,4.33,6.25,4,9.4l-10.8-.3a7.1,7.1,0,0,0-3.63-6.52c-3.15-2.1-6.2-2.58-9.39-1-6.72,3.33,11.19,14.6-2.32,21.29-6.79,3.36-15.51,3.63-23.83-.11l-7.36,3.64-6.37-4.24Z" transform="translate(-1812.06 -167.56)"/><line class="cls-9" x1="83.19" y1="1358.83" x2="83.4" y2="1378.37"/><line class="cls-9" x1="104.1" y1="1357.38" x2="104.17" y2="1376.39"/><line class="cls-9" x1="123.96" y1="1352.57" x2="124.04" y2="1371.58"/><line class="cls-9" x1="141.78" y1="1344.46" x2="141.86" y2="1361.99"/><line class="cls-9" x1="156.37" y1="1332.15" x2="155.96" y2="1349.96"/><line class="cls-9" x1="61.31" y1="1357.38" x2="61.24" y2="1376.39"/><line class="cls-9" x1="41.45" y1="1352.57" x2="41.37" y2="1371.58"/><line class="cls-9" x1="23.63" y1="1344.46" x2="23.56" y2="1361.99"/><line class="cls-9" x1="9.04" y1="1332.15" x2="9.45" y2="1349.96"/><line class="cls-42" x1="943.09" y1="313" x2="943.09" y2="398.44"/><ellipse class="cls-42" cx="2755.15" cy="324.88" rx="91.83" ry="159.06" transform="translate(-1599.4 1267.35) rotate(-30.31)"/><path class="cls-42" d="M2692.61,233.37c21.76,4.31,53.11,1.2,60.8.34,1.07-.13,2.41.68,3.46,2.07,7.5,10,38.16,50.07,60.64,69.86a6.87,6.87,0,0,1,2.34,5.51c-2.84,19.3-19.95,120.15-64.69,94.32-44.91-25.93-62-147.37-64.71-169.26C2690.21,234.28,2691.12,233.08,2692.61,233.37Z" transform="translate(-1812.06 -167.56)"/><path class="cls-8" d="M2711.38,258.37c15,2.78,35.95.82,42,.15,1.07-.12,2.38.67,3.42,2.05,5.94,7.87,26.41,34.47,41.88,48.37a6.8,6.8,0,0,1,2.31,5.49c-2.37,15.63-14.68,84.23-45.88,66.22s-43.6-101.48-45.9-119.41C2709,259.32,2709.89,258.09,2711.38,258.37Z" transform="translate(-1812.06 -167.56)"/></g></g></svg>