<?xml version="1.0" encoding="utf-8"?>
<!-- Generator: Adobe Illustrator 24.3.0, SVG Export Plug-In . SVG Version: 6.00 Build 0)  -->
<svg version="1.1" id="Слой_1" xmlns="http://www.w3.org/2000/svg" xmlns:xlink="http://www.w3.org/1999/xlink" x="0px" y="0px"
	 viewBox="0 0 30 30" style="enable-background:new 0 0 30 30;" xml:space="preserve">
<style type="text/css">
	.st0{fill:#2C3540;}
</style>
<g>
	<path class="st0" d="M15.1,4.4c-6.1,0-11,4.9-11,11c0,6.1,4.9,11,11,11s11-4.9,11-11C26.1,9.4,21.1,4.4,15.1,4.4z M15.1,25.1
		c-5.3,0-9.6-4.3-9.6-9.6c0-5.3,4.3-9.6,9.6-9.6s9.6,4.3,9.6,9.6C24.7,20.8,20.4,25.1,15.1,25.1z"/>
	<path class="st0" d="M17.2,9.7c-0.2-0.1-0.4,0-0.5,0.2L15.2,14c-0.7-0.1-1.3,0.3-1.6,1c-0.2,0.7,0,1.4,0.6,1.8l-0.4,1.2
		c-0.1,0.2,0,0.4,0.2,0.5c0,0,0.1,0,0.1,0c0.1,0,0.3-0.1,0.3-0.2l0.4-1.2c0.7,0.1,1.3-0.3,1.6-1c0.2-0.7,0-1.4-0.6-1.8l1.5-4.1
		C17.5,10,17.4,9.8,17.2,9.7z"/>
	<path class="st0" d="M21.3,9.2c-1.7-1.7-3.9-2.6-6.3-2.6c-2.4,0-4.6,0.9-6.3,2.6s-2.6,3.9-2.6,6.3c0,0.9,0.1,1.9,0.4,2.7
		c0.1,0.2,0.3,0.4,0.6,0.3c0,0,0,0,0,0l0,0l1.3-0.4c0.1,0,0.2-0.2,0.1-0.3c-0.1-0.1-0.1-0.3-0.1-0.4c0-0.1-0.2-0.2-0.3-0.1l-0.9,0.3
		c-0.2-0.7-0.3-1.3-0.3-2c0-0.1,0-0.3,0-0.4L8,15.2c0.1,0,0.2-0.1,0.2-0.2c0-0.2,0-0.3,0-0.5c0-0.1-0.1-0.2-0.2-0.2l-0.9-0.1
		c0.1-0.8,0.4-1.6,0.8-2.3l0.8,0.5c0.1,0.1,0.2,0,0.3-0.1c0.1-0.1,0.1-0.3,0.2-0.4c0.1-0.1,0-0.2-0.1-0.3l-0.8-0.5
		c0.4-0.7,1-1.3,1.6-1.8l0.5,0.8c0.1,0.1,0.2,0.1,0.3,0c0.1-0.1,0.2-0.2,0.4-0.3c0.1-0.1,0.1-0.2,0.1-0.3l-0.5-0.8
		c0.7-0.4,1.4-0.8,2.2-1l0.2,0.9c0,0.1,0.1,0.2,0.3,0.2c0.1,0,0.3-0.1,0.4-0.1c0.1,0,0.2-0.1,0.2-0.2l-0.2-0.9
		c0.4-0.1,0.8-0.1,1.2-0.1c0.4,0,0.8,0,1.2,0.1l-0.2,0.9c0,0.1,0.1,0.2,0.2,0.2c0.1,0,0.3,0.1,0.4,0.1c0.1,0,0.2,0,0.3-0.2l0.2-0.9
		c0.8,0.2,1.6,0.6,2.2,1l-0.5,0.8c-0.1,0.1,0,0.2,0.1,0.3c0.1,0.1,0.2,0.2,0.4,0.3c0.1,0.1,0.2,0.1,0.3,0l0.5-0.8
		c0.6,0.5,1.2,1.1,1.6,1.8l-0.8,0.5c-0.1,0.1-0.1,0.2-0.1,0.3c0.1,0.1,0.2,0.3,0.2,0.4c0.1,0.1,0.2,0.1,0.3,0.1l0.8-0.5
		c0.4,0.7,0.6,1.5,0.8,2.3L22,14.3c-0.1,0-0.2,0.1-0.2,0.2c0,0.1,0,0.3,0,0.5c0,0.1,0.1,0.2,0.2,0.2l0.9-0.1c0,0.1,0,0.3,0,0.4
		c0,0.7-0.1,1.4-0.3,2l-0.9-0.3c-0.1,0-0.2,0-0.3,0.1c0,0.1-0.1,0.3-0.1,0.4c0,0.1,0,0.2,0.1,0.3l1.3,0.4v0c0,0,0,0,0,0
		c0,0,0.1,0,0.1,0c0.2,0,0.4-0.1,0.4-0.3c0.3-0.9,0.4-1.8,0.4-2.7C23.9,13.1,23,10.9,21.3,9.2z"/>
	<path class="st0" d="M17.8,19.8h-5.5c-0.2,0-0.3,0.1-0.3,0.3v1.3c0,0.2,0.1,0.3,0.3,0.3h5.5c0.2,0,0.3-0.1,0.3-0.3v-1.3
		C18.1,19.9,18,19.8,17.8,19.8z M13.3,20.6c0,0-0.1,0.1-0.1,0.1h-0.5c-0.1,0-0.1,0-0.1-0.1v-0.4c0,0,0.1-0.1,0.1-0.1h0.5
		c0.1,0,0.1,0,0.1,0.1V20.6z M14.4,20.6c0,0-0.1,0.1-0.1,0.1h-0.5c-0.1,0-0.1,0-0.1-0.1v-0.4c0,0,0.1-0.1,0.1-0.1h0.5
		c0.1,0,0.1,0,0.1,0.1V20.6z M15.4,20.6c0,0-0.1,0.1-0.1,0.1h-0.5c-0.1,0-0.1,0-0.1-0.1v-0.4c0,0,0.1-0.1,0.1-0.1h0.5
		c0.1,0,0.1,0,0.1,0.1V20.6z M16.5,20.6c0,0-0.1,0.1-0.1,0.1h-0.5c-0.1,0-0.1,0-0.1-0.1v-0.4c0,0,0.1-0.1,0.1-0.1h0.5
		c0.1,0,0.1,0,0.1,0.1V20.6z M17.5,20.6c0,0-0.1,0.1-0.1,0.1h-0.5c-0.1,0-0.1,0-0.1-0.1v-0.4c0,0,0.1-0.1,0.1-0.1h0.5
		c0.1,0,0.1,0,0.1,0.1V20.6z"/>
</g>
</svg>
