<?xml version="1.0" encoding="utf-8"?>
<!-- Generator: Adobe Illustrator 24.3.0, SVG Export Plug-In . SVG Version: 6.00 Build 0)  -->
<svg version="1.1" id="Слой_1" xmlns="http://www.w3.org/2000/svg" xmlns:xlink="http://www.w3.org/1999/xlink" x="0px" y="0px"
	 viewBox="0 0 30 30" style="enable-background:new 0 0 30 30;" xml:space="preserve">
<style type="text/css">
	.st0{fill:#2C3540;}
</style>
<g>
	<path class="st0" d="M15.1,4.4c-6.1,0-11,4.9-11,11c0,6.1,4.9,11,11,11s11-4.9,11-11C26.1,9.4,21.1,4.4,15.1,4.4z M15.1,24
		c-4.7,0-8.6-3.8-8.6-8.6c0-4.7,3.8-8.6,8.6-8.6s8.6,3.8,8.6,8.6C23.6,20.2,19.8,24,15.1,24z"/>
	<path class="st0" d="M20.7,9.8c-1.5-1.5-3.5-2.3-5.6-2.3S11,8.3,9.5,9.8c-1.5,1.5-2.3,3.5-2.3,5.6c0,2.1,0.8,4.1,2.3,5.6
		s3.5,2.3,5.6,2.3s4.1-0.8,5.6-2.3s2.3-3.5,2.3-5.6C23,13.3,22.2,11.3,20.7,9.8z M8.2,15.4C8.2,15.4,8.2,15.4,8.2,15.4
		c0-1.5,0.5-2.9,1.3-4c0.3-0.4,1-0.4,1.3,0l1.5,2.1c0.5,0.7,0.2,1.6-0.6,1.8l-2.5,0.8C8.7,16.4,8.2,16,8.2,15.4z M14,21.2
		c0,0.5-0.5,0.9-1,0.8c-1.4-0.5-2.6-1.3-3.4-2.5c-0.3-0.4-0.1-1.1,0.4-1.2l2.5-0.8c0.8-0.3,1.6,0.3,1.6,1.1V21.2z M14.1,12.3
		l-1.5-2.1c-0.3-0.4-0.1-1.1,0.4-1.2c0.7-0.2,1.4-0.3,2.1-0.3c0.7,0,1.4,0.1,2.1,0.3c0.5,0.2,0.7,0.8,0.4,1.2L16,12.3
		C15.6,12.9,14.6,12.9,14.1,12.3z M20.6,19.5c-0.8,1.1-2,2-3.4,2.5c-0.5,0.2-1-0.2-1-0.8v-2.6c0-0.8,0.8-1.4,1.6-1.1l2.5,0.8
		C20.7,18.4,20.9,19,20.6,19.5z M20.9,16.2l-2.5-0.8c-0.8-0.3-1.1-1.2-0.6-1.8l1.5-2.1c0.3-0.4,1-0.4,1.3,0c0.8,1.1,1.3,2.5,1.3,4
		c0,0,0,0,0,0C21.9,16,21.4,16.4,20.9,16.2z"/>
</g>
</svg>
