<?xml version="1.0" encoding="utf-8"?>
<!-- Generator: Adobe Illustrator 24.3.0, SVG Export Plug-In . SVG Version: 6.00 Build 0)  -->
<svg version="1.1" id="Слой_1" xmlns="http://www.w3.org/2000/svg" xmlns:xlink="http://www.w3.org/1999/xlink" x="0px" y="0px"
	 viewBox="0 0 30 30" style="enable-background:new 0 0 30 30;" xml:space="preserve">
<style type="text/css">
	.st0{fill:#2C3540;}
</style>
<g>
	<path class="st0" d="M4,21.8v1.5c0,0.6,0.5,1.1,1.1,1.1h3.1c0.6,0,1.1-0.5,1.1-1.1v-1.1c-1.5,0-3-0.1-4.5-0.2
		C4.6,22.1,4.3,22,4,21.8z"/>
	<path class="st0" d="M21.4,22.3v1.1c0,0.6,0.5,1.1,1.1,1.1h3.1c0.6,0,1.1-0.5,1.1-1.1v-1.5c-0.3,0.2-0.6,0.3-0.9,0.3
		C24.4,22.2,22.9,22.2,21.4,22.3z"/>
	<path class="st0" d="M28.4,11.6l-1.3,0.1c-0.5,0-1,0.3-1.3,0.7l-1.7-3.2c-0.5-1-1.4-1.7-2.5-1.9c-1.7-0.3-3.8-0.6-6.2-0.6
		c-0.1,0-0.1,0-0.2,0c-2.3,0-4.3,0.3-6,0.6c-1.1,0.2-2,0.9-2.5,1.9c-0.6,1.1-1.1,2.2-1.7,3.2c-0.3-0.4-0.8-0.7-1.3-0.7l-1.3-0.1
		C1.7,11.5,1.1,12,1,12.7C0.9,13.4,1.4,14,2.1,14l2,0.2c-0.3,0.8-0.5,1.7-0.5,2.6v3.5c0,0.7,0.6,1.3,1.3,1.3
		c3.3,0.2,6.8,0.2,10.4,0.2c0,0,0.1,0,0.1,0c3.6,0,7.1-0.1,10.5-0.2c0.7,0,1.3-0.6,1.3-1.3v-3.5c0-0.9-0.2-1.8-0.5-2.6l2-0.2
		c0.7-0.1,1.2-0.7,1.1-1.3C29.7,12,29.1,11.5,28.4,11.6z M7.8,9.8c0.3-0.7,0.9-1.1,1.7-1.3c1.9-0.4,3.9-0.6,5.8-0.6
		c0.1,0,0.1,0,0.1,0c2,0,4,0.2,5.9,0.6C22,8.7,22.6,9.1,23,9.8l1.5,2.7C21.6,12.2,18.4,12,15,12c-3.5,0-5.7,0.2-8.6,0.5
		C6.7,11.9,7.8,9.8,7.8,9.8z M10.1,17.8C10.1,17.8,10.1,17.8,10.1,17.8c-0.1,0.2-0.2,0.4-0.5,0.5c0,0,0,0,0,0
		c-0.4,0.1-1,0.1-1.6,0.1c-0.3,0-0.6,0-0.8-0.1c-0.5-0.1-1-0.2-1.4-0.5c-0.2-0.2-0.4-0.4-0.4-0.7l0-1c0-0.2,0.1-0.4,0.3-0.4
		c0,0,0,0,0.1,0c0.3,0,0.5-0.1,0.8-0.1c0.3,0,0.6,0,0.9,0.2C7.6,15.9,7.8,16,8,16.1c0.5,0.3,0.8,0.4,1.2,0.6
		c0.2,0.1,0.4,0.3,0.7,0.4c0.2,0.1,0.2,0.3,0.2,0.5C10.1,17.7,10.1,17.7,10.1,17.8z M19.4,20.8c0,0.2-0.2,0.4-0.4,0.4h-7
		c-0.2,0-0.4-0.2-0.4-0.4v-0.5c0-0.2,0.2-0.4,0.4-0.4h7c0.2,0,0.4,0.2,0.4,0.4V20.8z M25.2,17.9c-0.4,0.3-0.9,0.5-1.4,0.5
		c-0.2,0-0.5,0.1-0.8,0.1c-0.6,0-1.1,0-1.6-0.1c0,0,0,0,0,0c-0.2-0.1-0.4-0.2-0.5-0.5c0,0,0,0,0,0c0-0.1,0-0.2,0-0.2
		c0-0.2,0.1-0.4,0.2-0.5c0.3-0.2,0.5-0.3,0.7-0.4c0.4-0.2,0.6-0.3,1.2-0.6c0.2-0.1,0.4-0.2,0.5-0.3c0.3-0.1,0.6-0.2,0.9-0.2
		c0.3,0,0.5,0.1,0.8,0.1c0,0,0,0,0.1,0c0.2,0,0.3,0.2,0.3,0.4l0,1C25.6,17.4,25.5,17.7,25.2,17.9z"/>
</g>
</svg>
