<?xml version="1.0" encoding="utf-8"?>
<!-- Generator: Adobe Illustrator 24.3.0, SVG Export Plug-In . SVG Version: 6.00 Build 0)  -->
<svg version="1.1" id="Слой_1" xmlns="http://www.w3.org/2000/svg" xmlns:xlink="http://www.w3.org/1999/xlink" x="0px" y="0px"
	 viewBox="0 0 30 30" style="enable-background:new 0 0 30 30;" xml:space="preserve">
<style type="text/css">
	.st0{fill:#FFFFFF;}
</style>
<g>
	<path class="st0" d="M11.5,14c0,0-0.2-0.2-0.3-0.4c-0.1-0.2-0.1-0.5,0.1-0.6c0.2-0.1,0.7-0.5,0.8-0.6c0.1-0.1,0.3-0.3,0.3-0.5
		c-0.1-0.3-0.3-0.6-0.5-0.9c-0.2-0.3-1.3-1.4-1.4-1.5c-0.2-0.1-0.4-0.3-0.6-0.2C9.7,9.4,9.4,9.5,9.2,9.9c-0.2,0.4-0.5,1-0.6,1.6
		c-0.1,0.6-0.2,1.4,0.2,2.4c0,0,0.4,0.8,0.7,1.2c0.3,0.4,0.7,0.9,1.1,1.3c0,0,1.2,1.1,1.7,1.6c0.6,0.4,2,1.4,2.7,1.8
		c0.7,0.3,1.8,0.6,2.5,0.5c0.7-0.1,1.6-0.5,2.1-0.9c0.5-0.4,0.8-0.7,0.8-1c0-0.3-0.2-0.5-0.3-0.6c-0.1-0.1-1.1-0.8-1.4-1
		c-0.3-0.2-1.1-0.6-1.2-0.6c-0.1,0-0.3,0.1-0.4,0.2c-0.1,0.1-0.3,0.6-0.4,0.8c-0.1,0.2-0.2,0.4-0.4,0.5c-0.1,0.1-0.3,0.1-0.8-0.2
		c0,0-0.5-0.3-1.4-0.9c-0.9-0.6-1.6-1.4-1.9-1.7C11.9,14.5,11.5,14,11.5,14z"/>
	<path class="st0" d="M14.6,3.1C8.4,3.1,3.3,8.2,3.3,14.4c0,2.1,0.6,4.1,1.6,5.8L3.3,26l6.3-1.4l0,0c1.5,0.7,3.2,1.2,5,1.2
		c6.3,0,11.4-5.1,11.4-11.4C26,8.2,20.9,3.1,14.6,3.1z M14.6,24c-1.6,0-3.1-0.4-4.4-1.1L5.3,24l1.2-4.5C5.6,18,5,16.3,5,14.4
		c0-5.3,4.3-9.6,9.6-9.6s9.6,4.3,9.6,9.6S19.9,24,14.6,24z"/>
</g>
</svg>
