<?xml version="1.0" encoding="utf-8"?>
<!-- Generator: Adobe Illustrator 24.3.0, SVG Export Plug-In . SVG Version: 6.00 Build 0)  -->
<svg version="1.1" id="Слой_1" xmlns="http://www.w3.org/2000/svg" xmlns:xlink="http://www.w3.org/1999/xlink" x="0px" y="0px"
	 viewBox="0 0 30 30" style="enable-background:new 0 0 30 30;" xml:space="preserve">
<style type="text/css">
	.st0{fill:#0C3548;}
</style>
<g>
	<path class="st0" d="M2,11.2V22c0,0,0,2,2,2s21.1,0,21.1,0s1.9,0,1.9-1.5c0-1.5,0-11.3,0-11.3l-11.5,7c0,0-1,0.5-2,0
		C12.5,17.6,2,11,2,11V11.2z"/>
	<path class="st0" d="M2,8.3c0,0,0-1.6,1.5-1.6s21.9,0,21.9,0s1.5,0,1.5,1.5s0,0.2,0,0.2l-12.5,7.5L2,8.5V8.3z"/>
</g>
</svg>
