<?xml version="1.0" encoding="utf-8"?>
<!-- Generator: Adobe Illustrator 24.3.0, SVG Export Plug-In . SVG Version: 6.00 Build 0)  -->
<svg version="1.1" id="Слой_1" xmlns="http://www.w3.org/2000/svg" xmlns:xlink="http://www.w3.org/1999/xlink" x="0px" y="0px"
	 viewBox="0 0 93.4 50" style="enable-background:new 0 0 93.4 50;" xml:space="preserve">
<style type="text/css">
	.st0{fill:#0C3548;}
	.st1{fill:#0166FF;}
</style>
<g>
	<path class="st0" d="M82.5,15.4C69.3,10.2,54.6,2.7,39.7,8c-3.6,1.4-4.7,2.3-9.6,3c-0.9,0.1-1.3,0.2-1.7,1.1
		c-2,3.4-3.3,11.5,1.1,13.3c-0.5-2.6-1.2-5.3-0.1-8c0.6-1.1,1-4.2,2.7-4c11-3.2,15.3-6.5,27.6-4c2.8,0.6,6.1,1.9,9.5,3.4
		C75,15.5,87,16.3,84.3,24.9c-1.4,3-4,2.7-6.7,2.6c3.9-3.3,1.2-10.3-3.9-10.1c-5.2-0.2-7.8,6.8-3.9,10.1H41.4
		c3.9-3.3,1.2-10.3-3.9-10.1c-5.2-0.2-7.8,6.8-3.9,10.1H15.9L10.3,30c24,0,48,0,72,0C88.4,27.9,88.4,18,82.5,15.4z"/>
	<path class="st0" d="M67.2,13.1C60.1,9.2,50.8,7.5,43.8,12c-5.8,3.3,21.7,2,21.5,2.6C66.3,14.8,69,14.6,67.2,13.1z"/>
	<path class="st1" d="M26.8,13.7c0.4-0.8,0.7-1.7,1.1-2.5H4.5l5.9,2.5H26.8z"/>
	<path class="st1" d="M40.9,6.4H12.6l5.2,2.1C22,8.3,37.5,9.4,40.9,6.4z"/>
	<path class="st1" d="M25.9,19.4H1l6.3,2.9h19C26.1,21.3,26,20.4,25.9,19.4z"/>
	<g>
		<path class="st0" d="M6.1,35.6h1.7l2.5,7.2H8.7l-0.5-1.5H5.6l-0.5,1.5H3.5L6.1,35.6z M6,40h1.8l-0.9-2.8h0L6,40z"/>
		<path class="st0" d="M11.8,35.6h3.5c0.3,0,0.6,0,0.8,0.1s0.4,0.1,0.6,0.2s0.3,0.2,0.4,0.3s0.2,0.3,0.3,0.4
			c0.1,0.1,0.1,0.3,0.1,0.4s0,0.3,0,0.4c0,0.2,0,0.3,0,0.5c0,0.1-0.1,0.3-0.2,0.4c-0.1,0.1-0.2,0.2-0.3,0.3
			c-0.1,0.1-0.2,0.2-0.4,0.3c0.2,0.1,0.4,0.2,0.6,0.3s0.3,0.3,0.3,0.4c0.1,0.2,0.1,0.3,0.2,0.5c0,0.2,0,0.3,0,0.5
			c0,0.3-0.1,0.7-0.2,0.9s-0.3,0.5-0.5,0.7c-0.2,0.2-0.5,0.3-0.8,0.4s-0.7,0.1-1.1,0.1h-3.3V35.6z M13.3,38.4h1.9c0.1,0,0.3,0,0.4,0
			s0.2-0.1,0.3-0.1c0.1-0.1,0.2-0.2,0.2-0.3s0.1-0.2,0.1-0.4c0-0.2,0-0.3-0.1-0.4C16,37.1,15.9,37,15.8,37s-0.2-0.1-0.3-0.1
			s-0.2,0-0.4,0h-1.9V38.4z M13.3,41.5h1.9c0.2,0,0.3,0,0.5-0.1s0.3-0.1,0.4-0.2c0.1-0.1,0.2-0.2,0.2-0.3c0.1-0.1,0.1-0.3,0.1-0.4
			c0-0.2,0-0.4-0.1-0.5c-0.1-0.1-0.2-0.2-0.3-0.3s-0.2-0.1-0.4-0.1c-0.1,0-0.3,0-0.4,0h-1.8V41.5z"/>
		<path class="st0" d="M18.9,35.6h5.9v1.2h-2.2v5.9H21v-5.9h-2.2V35.6z"/>
		<path class="st0" d="M25.8,39.1c0-0.5,0.1-1,0.2-1.5s0.4-0.9,0.6-1.2c0.3-0.3,0.6-0.6,1.1-0.8s0.9-0.3,1.5-0.3
			c0.5,0,1,0.1,1.4,0.3s0.8,0.5,1.1,0.8c0.3,0.3,0.5,0.7,0.7,1.2s0.2,1,0.2,1.5c0,0.5-0.1,1-0.2,1.5c-0.2,0.5-0.4,0.9-0.7,1.2
			c-0.3,0.3-0.7,0.6-1.1,0.8s-0.9,0.3-1.4,0.3c-0.6,0-1.1-0.1-1.5-0.3s-0.8-0.5-1.1-0.8c-0.3-0.3-0.5-0.7-0.6-1.2
			C25.9,40.2,25.8,39.7,25.8,39.1z M29.2,41.6c0.3,0,0.6-0.1,0.8-0.2s0.4-0.3,0.6-0.5c0.2-0.2,0.3-0.5,0.4-0.8
			c0.1-0.3,0.1-0.6,0.1-1s0-0.7-0.1-1c-0.1-0.3-0.2-0.6-0.4-0.8c-0.2-0.2-0.4-0.4-0.6-0.5s-0.5-0.2-0.8-0.2s-0.6,0.1-0.8,0.2
			s-0.4,0.3-0.6,0.5c-0.2,0.2-0.3,0.5-0.4,0.8c-0.1,0.3-0.1,0.6-0.1,1s0,0.7,0.1,1c0.1,0.3,0.2,0.6,0.4,0.8c0.2,0.2,0.4,0.4,0.6,0.5
			S28.9,41.6,29.2,41.6z"/>
		<path class="st0" d="M36.1,39.1l-2.2-3.5h1.8l1.3,2.3l1.3-2.3H40L37.8,39l2.3,3.7h-1.8L37,40.3l-1.5,2.5h-1.8L36.1,39.1z"/>
		<path class="st0" d="M43.6,35.6h1.7l2.5,7.2h-1.6l-0.5-1.5h-2.7l-0.5,1.5H41L43.6,35.6z M43.5,40h1.8l-0.9-2.8h0L43.5,40z"/>
		<path class="st0" d="M49.3,35.6h3.3c0.4,0,0.7,0.1,1,0.2c0.3,0.1,0.5,0.3,0.7,0.5s0.3,0.4,0.4,0.7s0.1,0.6,0.1,1
			c0,0.3-0.1,0.6-0.2,0.9c-0.1,0.3-0.3,0.5-0.5,0.7c-0.2,0.2-0.5,0.4-0.7,0.5s-0.6,0.2-1,0.2h-1.6v2.6h-1.5V35.6z M50.8,38.9h1.4
			c0.3,0,0.6-0.1,0.8-0.2c0.2-0.2,0.3-0.4,0.3-0.8c0-0.2,0-0.3-0.1-0.5c-0.1-0.1-0.1-0.2-0.2-0.3c-0.1-0.1-0.2-0.1-0.3-0.2
			c-0.1,0-0.3-0.1-0.5-0.1h-1.4V38.9z"/>
		<path class="st0" d="M58.5,35.6h1.7l2.5,7.2h-1.6l-0.5-1.5H58l-0.5,1.5h-1.6L58.5,35.6z M58.4,40h1.8l-0.9-2.8h0L58.4,40z"/>
		<path class="st0" d="M64.3,35.6h1.5v2.9l2.7-2.9h1.9l-2.9,2.9l3.1,4.2h-1.9l-2.2-3.2l-0.7,0.7v2.4h-1.5V35.6z"/>
		<path class="st0" d="M71.3,35.6h5.9v1.2h-2.2v5.9h-1.5v-5.9h-2.2V35.6z"/>
		<path class="st0" d="M78.6,35.6h5.3v1.2H80v1.6h3.5v1.2H80v1.8h4v1.3h-5.4V35.6z"/>
		<path class="st0" d="M85.7,35.6H89c0.4,0,0.7,0.1,1,0.2c0.3,0.1,0.5,0.3,0.7,0.5s0.3,0.4,0.4,0.7s0.1,0.6,0.1,1
			c0,0.3-0.1,0.6-0.2,0.9c-0.1,0.3-0.3,0.5-0.5,0.7c-0.2,0.2-0.5,0.4-0.7,0.5s-0.6,0.2-1,0.2h-1.6v2.6h-1.5V35.6z M87.2,38.9h1.4
			c0.3,0,0.6-0.1,0.8-0.2c0.2-0.2,0.3-0.4,0.3-0.8c0-0.2,0-0.3-0.1-0.5c-0.1-0.1-0.1-0.2-0.2-0.3c-0.1-0.1-0.2-0.1-0.3-0.2
			c-0.1,0-0.3-0.1-0.5-0.1h-1.4V38.9z"/>
	</g>
</g>
</svg>
