<svg id="Слой_1" data-name="Слой 1" xmlns="http://www.w3.org/2000/svg" viewBox="0 0 103.96 18.99"><defs><style>.cls-1{fill:#fba40e;stroke:#f2c538;stroke-miterlimit:10;stroke-width:0.75px;}</style></defs><polygon class="cls-1" points="15.66 18.29 9.99 15.31 4.33 18.3 5.4 11.99 0.81 7.53 7.14 6.59 9.97 0.85 12.81 6.59 19.15 7.5 14.57 11.97 15.66 18.29"/><polygon class="cls-1" points="36.66 18.29 30.99 15.31 25.33 18.3 26.4 11.99 21.81 7.53 28.14 6.59 30.97 0.85 33.81 6.59 40.15 7.5 35.57 11.97 36.66 18.29"/><polygon class="cls-1" points="57.66 18.29 51.99 15.31 46.33 18.3 47.4 11.99 42.81 7.53 49.14 6.59 51.97 0.85 54.81 6.59 61.15 7.5 56.57 11.97 57.66 18.29"/><polygon class="cls-1" points="78.67 18.29 72.99 15.31 67.33 18.3 68.4 11.99 63.81 7.53 70.14 6.59 72.97 0.85 75.81 6.59 82.15 7.5 77.57 11.97 78.67 18.29"/><polygon class="cls-1" points="99.67 18.29 93.99 15.31 88.33 18.3 89.4 11.99 84.81 7.53 91.14 6.59 93.97 0.85 96.81 6.59 103.15 7.5 98.57 11.97 99.67 18.29"/></svg>