<?xml version="1.0" encoding="utf-8"?>
<!-- Generator: Adobe Illustrator 24.3.0, SVG Export Plug-In . SVG Version: 6.00 Build 0)  -->
<svg version="1.1" id="Слой_1" xmlns="http://www.w3.org/2000/svg" xmlns:xlink="http://www.w3.org/1999/xlink" x="0px" y="0px"
	 viewBox="0 0 55 55" style="enable-background:new 0 0 55 55;" xml:space="preserve">
<style type="text/css">
	.st0{fill:#F3F4F7;}
	.st1{fill:none;stroke:#505050;stroke-linecap:round;stroke-linejoin:round;stroke-miterlimit:10;}
</style>
<circle class="st0" cx="27.5" cy="27.5" r="27"/>
<g>
	<line class="st1" x1="23.7" y1="20.7" x2="34" y2="20.7"/>
	<path class="st1" d="M22,13.8h14.1c0.7,0,1.2,0.5,1.2,1.2v25.4c0,0.7-0.5,1.2-1.2,1.2H18.9c-0.7,0-1.2-0.5-1.2-1.2V18.1
		c0-0.3,0.1-0.6,0.3-0.8l3.1-3.1C21.4,14,21.7,13.8,22,13.8z"/>
	<line class="st1" x1="23.7" y1="26.2" x2="30.9" y2="26.2"/>
	<path class="st1" d="M17.9,17.7h3.3c0.3,0,0.5-0.2,0.5-0.5v-1.2"/>
	<line class="st1" x1="23.7" y1="23.5" x2="34" y2="23.5"/>
	<line class="st1" x1="21" y1="20.7" x2="21.5" y2="20.7"/>
	<line class="st1" x1="21" y1="26.2" x2="21.5" y2="26.2"/>
	<line class="st1" x1="21" y1="23.5" x2="21.5" y2="23.5"/>
	<path class="st1" d="M31.2,31.3L30,30.1c-0.2-0.2-0.5-0.2-0.8,0l-1.7,1.7l-1.7-1.7c-0.2-0.2-0.5-0.2-0.8,0l-1.2,1.2
		c-0.2,0.2-0.2,0.5,0,0.8l1.7,1.7l-1.7,1.7c-0.2,0.2-0.2,0.5,0,0.8l1.2,1.2c0.2,0.2,0.5,0.2,0.8,0l1.7-1.7l1.7,1.7
		c0.2,0.2,0.5,0.2,0.8,0l1.2-1.2c0.2-0.2,0.2-0.5,0-0.8l-1.7-1.7l1.7-1.7C31.4,31.9,31.4,31.5,31.2,31.3z"/>
</g>
</svg>
