<?xml version="1.0" encoding="utf-8"?>
<!-- Generator: Adobe Illustrator 24.3.0, SVG Export Plug-In . SVG Version: 6.00 Build 0)  -->
<svg version="1.1" id="Слой_1" xmlns="http://www.w3.org/2000/svg" xmlns:xlink="http://www.w3.org/1999/xlink" x="0px" y="0px"
	 viewBox="0 0 55 55" style="enable-background:new 0 0 55 55;" xml:space="preserve">
<style type="text/css">
	.st0{fill:#F3F4F7;}
	.st1{fill:none;stroke:#515050;stroke-miterlimit:10;}
	.st2{fill:none;stroke:#505050;stroke-linejoin:round;stroke-miterlimit:10;}
</style>
<circle class="st0" cx="27.5" cy="27.5" r="27"/>
<g>
	<path class="st1" d="M33.2,25.1l-0.8-1.9c-0.3-0.8-1-1.3-1.8-1.3h-3.7h-3.7c-0.8,0-1.5,0.5-1.8,1.3l-0.8,1.9"/>
	<polyline class="st1" points="23.7,30.1 26.9,30.1 30.1,30.1 	"/>
	<path class="st1" d="M36.4,24.4h-1.9c-0.2,0-1.9,1.9-3.2,1.9h-8.9c-1.2,0-3-1.9-3.2-1.9h-1.9c-0.3,0-0.6,0.3-0.6,0.6v0.9
		c0,0.3,0.3,0.6,0.6,0.6l1.3,0.4v0.6c-0.4,0.4-0.6,1-0.6,1.5v1c0,0.6,0.2,1.1,0.6,1.4v1.8c0,0.3,0.3,0.6,0.6,0.6h2.5
		c0.3,0,0.6-0.3,0.6-0.6V32h8.9v1.3c0,0.3,0.3,0.6,0.6,0.6h2.5c0.3,0,0.6-0.3,0.6-0.6v-1.8c0.4-0.3,0.6-0.8,0.6-1.4v-1
		c0-0.6-0.2-1.1-0.6-1.5V27l1.3-0.4c0.3,0,0.6-0.3,0.6-0.6v-0.9C37,24.7,36.8,24.4,36.4,24.4z"/>
	<path class="st1" d="M33.6,27.8c-0.8,0.7-1.9,1-2.9,1"/>
	<path class="st1" d="M20.2,27.8c0.8,0.7,1.9,1,2.9,1"/>
	<line class="st1" x1="22.5" y1="32" x2="19.9" y2="32"/>
	<line class="st1" x1="33.9" y1="32" x2="31.3" y2="32"/>
	<path class="st2" d="M26.9,14.3c-1.2,1.7-9.5,5.1-12.7,5.1c0,5.5,0,7.3,0,12c0,5.7,12,11.9,12.7,12c0.7-0.2,12.7-6.8,12.7-11.4
		c0-4.8,0-7.1,0-12.7C36,19.4,28.1,16,26.9,14.3z"/>
</g>
</svg>
