<?xml version="1.0" encoding="utf-8"?>
<!-- Generator: Adobe Illustrator 24.3.0, SVG Export Plug-In . SVG Version: 6.00 Build 0)  -->
<svg version="1.1" id="Слой_1" xmlns="http://www.w3.org/2000/svg" xmlns:xlink="http://www.w3.org/1999/xlink" x="0px" y="0px"
	 viewBox="0 0 55 55" style="enable-background:new 0 0 55 55;" xml:space="preserve">
<style type="text/css">
	.st0{fill:#F3F4F7;}
	.st1{fill:#505050;}
</style>
<circle class="st0" cx="27.5" cy="27.5" r="27"/>
<g>
	<g>
		<path class="st1" d="M31,20.9c-0.3,0-0.5-0.2-0.5-0.5v0c0-0.3,0.2-0.5,0.5-0.5c0.3,0,0.5,0.2,0.5,0.5C31.5,20.7,31.3,20.9,31,20.9
			z"/>
	</g>
	<g>
		<path class="st1" d="M24.2,20.9c-0.3,0-0.5-0.2-0.5-0.5v0c0-0.3,0.2-0.5,0.5-0.5c0.3,0,0.5,0.2,0.5,0.5
			C24.7,20.7,24.5,20.9,24.2,20.9z"/>
	</g>
	<g>
		<path class="st1" d="M41.4,34c0,0-0.1,0-0.1,0c-0.3-0.1-0.5-0.4-0.4-0.7c0.3-1.1,0.4-2.2,0.4-3.3c0-7.5-6.1-13.7-13.7-13.7
			c-7.5,0-13.7,6.1-13.7,13.7c0,1.1,0.1,2.2,0.4,3.3c0.1,0.3-0.1,0.6-0.4,0.7c-0.3,0.1-0.6-0.1-0.7-0.4c-0.3-1.1-0.4-2.3-0.4-3.5
			c0-8.1,6.6-14.7,14.7-14.7S42.3,21.9,42.3,30c0,1.2-0.1,2.4-0.4,3.5C41.8,33.8,41.6,34,41.4,34z"/>
	</g>
	<g>
		<path class="st1" d="M27.6,20.3c-0.3,0-0.5-0.2-0.5-0.5v-1.5c0-0.3,0.2-0.5,0.5-0.5c0.3,0,0.5,0.2,0.5,0.5v1.5
			C28.1,20,27.9,20.3,27.6,20.3z"/>
	</g>
	<g>
		<path class="st1" d="M24.1,20.9c-0.2,0-0.4-0.1-0.5-0.4L23,19.1c-0.1-0.3,0-0.6,0.3-0.7c0.3-0.1,0.6,0,0.7,0.3l0.5,1.4
			c0.1,0.3,0,0.6-0.3,0.7C24.2,20.9,24.1,20.9,24.1,20.9z"/>
	</g>
	<g>
		<path class="st1" d="M21,22.7c-0.2,0-0.3-0.1-0.4-0.2l-1-1.1c-0.2-0.2-0.2-0.6,0.1-0.8c0.2-0.2,0.6-0.2,0.8,0.1l1,1.1
			c0.2,0.2,0.2,0.6-0.1,0.8C21.2,22.6,21.1,22.7,21,22.7z"/>
	</g>
	<g>
		<path class="st1" d="M18.7,25.4c-0.1,0-0.2,0-0.3-0.1l-1.3-0.7c-0.3-0.2-0.3-0.5-0.2-0.7c0.2-0.3,0.5-0.3,0.7-0.2l1.3,0.7
			c0.3,0.2,0.3,0.5,0.2,0.7C19,25.3,18.8,25.4,18.7,25.4z"/>
	</g>
	<g>
		<path class="st1" d="M17.4,28.8C17.4,28.8,17.4,28.8,17.4,28.8l-1.6-0.3c-0.3-0.1-0.5-0.3-0.4-0.6c0.1-0.3,0.3-0.5,0.6-0.4
			l1.5,0.3c0.3,0.1,0.5,0.3,0.4,0.6C17.9,28.6,17.7,28.8,17.4,28.8z"/>
	</g>
	<g>
		<path class="st1" d="M16,32.6c-0.3,0-0.5-0.2-0.5-0.4c-0.1-0.3,0.1-0.6,0.4-0.6l1.5-0.3c0.3-0.1,0.6,0.1,0.6,0.4
			c0.1,0.3-0.1,0.6-0.4,0.6L16,32.6C16,32.6,16,32.6,16,32.6z"/>
	</g>
	<g>
		<path class="st1" d="M39.2,32.6C39.2,32.6,39.1,32.6,39.2,32.6l-1.6-0.3c-0.3-0.1-0.5-0.3-0.4-0.6c0.1-0.3,0.3-0.5,0.6-0.4
			l1.5,0.3c0.3,0.1,0.5,0.3,0.4,0.6C39.7,32.4,39.4,32.6,39.2,32.6z"/>
	</g>
	<g>
		<path class="st1" d="M37.7,28.8c-0.3,0-0.5-0.2-0.5-0.4c-0.1-0.3,0.1-0.6,0.4-0.6l1.5-0.3c0.3-0.1,0.6,0.1,0.6,0.4
			c0.1,0.3-0.1,0.6-0.4,0.6L37.7,28.8C37.8,28.8,37.8,28.8,37.7,28.8z"/>
	</g>
	<g>
		<path class="st1" d="M36.5,25.4c-0.2,0-0.4-0.1-0.5-0.3c-0.2-0.3-0.1-0.6,0.2-0.7l1.3-0.7c0.3-0.2,0.6-0.1,0.7,0.2
			c0.2,0.3,0.1,0.6-0.2,0.7l-1.3,0.7C36.7,25.4,36.6,25.4,36.5,25.4z"/>
	</g>
	<g>
		<path class="st1" d="M34.2,22.7c-0.1,0-0.2,0-0.3-0.1c-0.2-0.2-0.3-0.5-0.1-0.8l1-1.1c0.2-0.2,0.5-0.3,0.8-0.1
			c0.2,0.2,0.3,0.5,0.1,0.8l-1,1.1C34.5,22.6,34.4,22.7,34.2,22.7z"/>
	</g>
	<g>
		<path class="st1" d="M31.1,20.9c-0.1,0-0.1,0-0.2,0c-0.3-0.1-0.4-0.4-0.3-0.7l0.5-1.4c0.1-0.3,0.4-0.4,0.7-0.3
			c0.3,0.1,0.4,0.4,0.3,0.7l-0.5,1.4C31.5,20.7,31.3,20.9,31.1,20.9z"/>
	</g>
	<g>
		<path class="st1" d="M27.6,31.6c-1.1,0-2-0.9-2-2c0-1.1,0.9-2,2-2c1.1,0,2,0.9,2,2C29.6,30.7,28.7,31.6,27.6,31.6z M27.6,28.6
			c-0.5,0-0.9,0.4-0.9,0.9c0,0.5,0.4,0.9,0.9,0.9c0.5,0,0.9-0.4,0.9-0.9C28.5,29,28.1,28.6,27.6,28.6z"/>
	</g>
	<g>
		<path class="st1" d="M25.3,32.7c-0.1,0-0.3,0-0.4-0.1c-0.2-0.2-0.2-0.5,0-0.8l1.3-1.5c0.2-0.2,0.5-0.2,0.8,0
			c0.2,0.2,0.2,0.5,0,0.8l-1.3,1.5C25.6,32.6,25.4,32.7,25.3,32.7z"/>
	</g>
	<g>
		<path class="st1" d="M28.6,29c-0.1,0-0.3,0-0.4-0.1c-0.2-0.2-0.2-0.5,0-0.8l3.4-3.8c0.2-0.2,0.5-0.2,0.8,0c0.2,0.2,0.2,0.5,0,0.8
			L29,28.8C28.9,28.9,28.7,29,28.6,29z"/>
	</g>
</g>
</svg>
