<?xml version="1.0" encoding="utf-8"?>
<!-- Generator: Adobe Illustrator 24.3.0, SVG Export Plug-In . SVG Version: 6.00 Build 0)  -->
<svg version="1.1" id="Слой_1" xmlns="http://www.w3.org/2000/svg" xmlns:xlink="http://www.w3.org/1999/xlink" x="0px" y="0px"
	 viewBox="0 0 55 55" style="enable-background:new 0 0 55 55;" xml:space="preserve">
<style type="text/css">
	.st0{fill:#F3F4F7;}
	.st1{fill:none;stroke:#505050;stroke-linejoin:round;stroke-miterlimit:10;}
</style>
<circle class="st0" cx="27.5" cy="27.5" r="27"/>
<g>
	<path class="st1" d="M20,36c1.1,0,14.8,0,14.8,0"/>
	<path class="st1" d="M41.3,36h4.9l-1.6-4.1l0.8-2.5l-1.6-0.8L43,26.9l-3.3,0.8L38,25.3l-2.5,0.8c-2.2-2.7-5.8-4.1-7.4-4.1
		c-2.7,0-5.9,0-7.4,0c-3.2,0-6.8,3.3-8.2,4.1c-0.8,0-1.8,0-2.5,0c-0.5,0-0.8,0.4-0.8,0.8v3.3l-0.8,2.5v1.6c0,0.9,0.7,1.6,1.6,1.6
		h3.3"/>
	<polyline class="st1" points="33.9,27.7 32.3,28.6 24.9,28.6 23.3,23.6 	"/>
	<polyline class="st1" points="24.9,28.6 15.9,27.7 15.1,26.9 	"/>
	<path class="st1" d="M34.8,36c0,1.8,1.5,3.3,3.3,3.3c1.8,0,3.3-1.5,3.3-3.3c0-1.8-1.5-3.3-3.3-3.3C36.2,32.7,34.8,34.1,34.8,36z"/>
	<path class="st1" d="M13.4,36c0,1.8,1.5,3.3,3.3,3.3c1.8,0,3.3-1.5,3.3-3.3c0-1.8-1.5-3.3-3.3-3.3C14.9,32.7,13.4,34.1,13.4,36z"/>
	<line class="st1" x1="39.7" y1="27.7" x2="38.9" y2="29.4"/>
	<line class="st1" x1="42.1" y1="31" x2="44.6" y2="31.9"/>
	<path class="st1" d="M43,24.5c2-1.6,0.4-4.4-1.6-6.6c-2-2.2,1.7-5.6,3.3-6.6"/>
	<path class="st1" d="M38.9,22.3c-0.6-1.7-2.6-4.6-4.1-6.3c-2.4-2.6,0.8-6.5,2.1-8.2"/>
</g>
</svg>
