<?xml version="1.0" encoding="utf-8"?>
<!-- Generator: Adobe Illustrator 24.3.0, SVG Export Plug-In . SVG Version: 6.00 Build 0)  -->
<svg version="1.1" id="Слой_1" xmlns="http://www.w3.org/2000/svg" xmlns:xlink="http://www.w3.org/1999/xlink" x="0px" y="0px"
	 viewBox="0 0 55 55" style="enable-background:new 0 0 55 55;" xml:space="preserve">
<style type="text/css">
	.st0{fill:#F3F4F7;}
	.st1{fill:none;stroke:#505050;stroke-linecap:round;stroke-linejoin:round;stroke-miterlimit:10;}
	.st2{fill:none;stroke:#505050;stroke-miterlimit:10;}
	.st3{fill:none;stroke:#505050;stroke-linejoin:round;stroke-miterlimit:10;}
</style>
<circle class="st0" cx="27.5" cy="27.5" r="27"/>
<g>
	<path class="st1" d="M27.3,36.7H13.5c-1.3,0-2.4-1.1-2.4-2.4V30c0-1,0.3-1.9,0.8-2.7l0.8-1.2l-3.3-0.8c-0.4,0-0.8-0.4-0.8-0.8v-1.6
		c0-0.4,0.4-0.8,0.8-0.8h4.1l1.6,2.4l2.4,0.8h9.8"/>
	<path class="st2" d="M13.5,28.5l0.4,0.4c0.8,0.8,1.8,1.2,2.9,1.2h2.4"/>
	<path class="st3" d="M11.8,35.9v3.3c0,0.4,0.4,0.8,0.8,0.8h5.7c0.4,0,0.8-0.4,0.8-0.8v-2.4"/>
	<path class="st1" d="M27.3,36.7h4.1l3.3-1.6l6.5,1.6c1.3,0,2.4-1.1,2.4-2.4V30c0-1-0.3-1.9-0.8-2.7l-0.8-1.2l3.3-1.6
		c0.4,0,0.8-0.4,0.7-0.9L45.8,22c0-0.4-0.4-0.8-0.9-0.7l-3,0l-2.4,3.3l-1.6,0.8l-1.6,1.6l-2.4-1.6l-2.4,0.8l-4.1-0.8"/>
	<path class="st2" d="M40.3,23.6l-1.6-4.1L37.1,18l-2.4,0.8l-3.3-2.4c0,0-11.8,0-13,0c-0.6,0-1.3,0.4-1.6,0.8
		c-0.4,0.4-2.4,6.5-2.4,6.5"/>
	<path class="st2" d="M40.7,29.3l-0.3,0.6c-0.5,1-1.3,1.7-2.4,2l-2.3,0.7"/>
	<path class="st3" d="M42.7,35.9v3.3c0,0.4-0.4,0.8-0.8,0.8h-5.7c-0.4,0-0.8-0.4-0.8-0.8v-3.3"/>
	<polyline class="st2" points="19.2,33.4 28.1,33.4 30.5,31.8 32.2,31.8 33.8,32.6 	"/>
	<polyline class="st3" points="34.6,18.8 30.5,20.4 33,22.8 	"/>
	<polyline class="st3" points="30.5,20.4 27.3,19.6 24,22 	"/>
</g>
</svg>
