<?xml version="1.0" encoding="utf-8"?>
<!-- Generator: Adobe Illustrator 24.3.0, SVG Export Plug-In . SVG Version: 6.00 Build 0)  -->
<svg version="1.1" id="Слой_1" xmlns="http://www.w3.org/2000/svg" xmlns:xlink="http://www.w3.org/1999/xlink" x="0px" y="0px"
	 viewBox="0 0 55 55" style="enable-background:new 0 0 55 55;" xml:space="preserve">
<style type="text/css">
	.st0{fill:#F3F4F7;}
	.st1{fill:none;stroke:#505050;stroke-miterlimit:10;}
	.st2{fill:none;stroke:#505050;stroke-linejoin:round;stroke-miterlimit:10;}
	.st3{fill:none;stroke:#515050;stroke-miterlimit:10;}
</style>
<circle class="st0" cx="27.5" cy="27.5" r="27"/>
<g>
	<path class="st1" d="M37.9,40.8c0,0.7-0.9,1.3-2,1.3c-1.1,0-2-0.6-2-1.3"/>
	<path class="st2" d="M36,39.5h6.5c0,0,0-1.2,0-2c-0.5-0.2-1.3-0.3-1.6-1.2c-0.5-1.6-0.3-2.7-0.3-5.3c0-2.5-2-4.6-4.6-4.6
		c-2.5,0-4.6,2-4.6,4.6c0,2.6,0.1,3.7-0.3,5.3c-0.3,1-1.1,1-1.6,1.2c0,0.7,0,2,0,2H36z"/>
	<path class="st3" d="M26.2,16c-2.9,0-4.5,0.3-5.8,0.5c-0.7,0.1-1.2,0.3-1.4,0.9c-0.2,0.4-1.2,2.9-1.2,2.9"/>
	<path class="st3" d="M17.1,24.5L17.1,24.5c0.8,0.8,2,1.3,3.2,1.3h1.4"/>
	<path class="st3" d="M15.8,29.7v2.6c0,0.4,0.3,0.7,0.7,0.7H21c0.4,0,0.7-0.3,0.7-0.7v-2"/>
	<line class="st3" x1="26.2" y1="27.7" x2="21.6" y2="27.7"/>
	<path class="st3" d="M29.5,30.3H17.1c-1.1,0-2-0.9-2-2v-3.3c0-0.3,0-0.7,0.1-0.8l0.7-1c0.3-0.4,0.1-0.9-0.4-1l-1.7-0.4
		c-0.4,0-0.7-0.3-0.7-0.7v-1.3c0-0.4,0.3-0.7,0.7-0.7h2.9c0.2,0,0.4,0.1,0.5,0.3l0.9,1.3c0.1,0.2,1.4,1,2.2,1c0.5,0,5.9,0,5.9,0
		s5.4,0,5.9,0c0.8,0,2.1-0.9,2.2-1l0.9-1.3c0.1-0.2,0.3-0.3,0.5-0.3h2.9c0.4,0,0.7,0.3,0.7,0.7v1.3c0,0.4-0.3,0.7-0.7,0.7l-1.7,0.4
		c-0.4,0.1-0.6,0.6-0.4,1l0.7,1c0.1,0.1,0.1,0.5,0.1,0.8"/>
	<path class="st3" d="M26.2,16c2.9,0,4.5,0.3,5.8,0.5c0.7,0.1,1.2,0.3,1.4,0.9c0.2,0.4,1.2,2.9,1.2,2.9"/>
	<line class="st3" x1="26.2" y1="27.7" x2="30.1" y2="27.7"/>
</g>
</svg>
