<?xml version="1.0" encoding="utf-8"?>
<!-- Generator: Adobe Illustrator 24.3.0, SVG Export Plug-In . SVG Version: 6.00 Build 0)  -->
<svg version="1.1" id="Слой_1" xmlns="http://www.w3.org/2000/svg" xmlns:xlink="http://www.w3.org/1999/xlink" x="0px" y="0px"
	 viewBox="0 0 55 55" style="enable-background:new 0 0 55 55;" xml:space="preserve">
<style type="text/css">
	.st0{fill:#F3F4F7;}
	.st1{fill:none;stroke:#505050;stroke-miterlimit:10;}
	.st2{fill:none;stroke:#505050;stroke-linecap:round;stroke-linejoin:round;stroke-miterlimit:10;}
</style>
<circle class="st0" cx="27.5" cy="27.5" r="27"/>
<g>
	<path class="st1" d="M36.3,33.8l-1-2.3c-0.3-1-1.2-1.6-2.2-1.6h-4.6h-4.6c-1,0-1.9,0.6-2.2,1.6l-1,2.3"/>
	<polyline class="st1" points="24.5,40.1 28.5,40.1 32.4,40.1 	"/>
	<path class="st1" d="M40.2,33h-2.4c-0.3,0-2.4,2.4-3.9,2.4H23c-1.5,0-3.7-2.4-3.9-2.4h-2.4c-0.4,0-0.8,0.4-0.8,0.8v1.1
		c0,0.4,0.4,0.8,0.8,0.8l1.6,0.5v0.8c-0.5,0.5-0.8,1.2-0.8,1.9v1.2c0,0.7,0.3,1.3,0.8,1.7V44c0,0.4,0.4,0.8,0.8,0.8h3.1
		c0.4,0,0.8-0.4,0.8-0.8v-1.6h11V44c0,0.4,0.4,0.8,0.8,0.8h3.1c0.4,0,0.8-0.4,0.8-0.8v-2.2c0.5-0.4,0.8-1,0.8-1.7v-1.2
		c0-0.7-0.3-1.4-0.8-1.9v-0.8l1.6-0.5c0.4,0,0.8-0.4,0.8-0.8v-1.1C41,33.4,40.7,33,40.2,33z"/>
	<path class="st1" d="M36.8,37.2c-1,0.8-2.3,1.3-3.6,1.3"/>
	<path class="st1" d="M20.2,37.2c1,0.8,2.3,1.3,3.6,1.3"/>
	<line class="st1" x1="23" y1="42.4" x2="19.8" y2="42.4"/>
	<line class="st1" x1="37.1" y1="42.4" x2="33.9" y2="42.4"/>
	<path class="st2" d="M29.1,27.4c2.3-2.5,2.2-5.7-0.3-8.5c1.2,2.3-2.4,5.5-5.4,3c-3.4-2.8,5.3-6.8-4.6-13.2c2.7,7.1-10,9.1-6,17.5
		c1.1,2.3,3.4,3.8,5.7,4.4"/>
</g>
</svg>
