<?xml version="1.0" encoding="utf-8"?>
<!-- Generator: Adobe Illustrator 24.3.0, SVG Export Plug-In . SVG Version: 6.00 Build 0)  -->
<svg version="1.1" id="Слой_1" xmlns="http://www.w3.org/2000/svg" xmlns:xlink="http://www.w3.org/1999/xlink" x="0px" y="0px"
	 viewBox="0 0 55 55" style="enable-background:new 0 0 55 55;" xml:space="preserve">
<style type="text/css">
	.st0{fill:#F3F4F7;}
	.st1{fill:#505050;}
</style>
<circle class="st0" cx="27.5" cy="27.5" r="27"/>
<g>
	<g>
		<path class="st1" d="M27.5,42.3c-8.2,0-14.8-6.6-14.8-14.8c0-8.2,6.6-14.8,14.8-14.8s14.8,6.6,14.8,14.8
			C42.3,35.7,35.7,42.3,27.5,42.3z M27.5,13.8c-7.6,0-13.7,6.2-13.7,13.7c0,7.6,6.2,13.7,13.7,13.7s13.7-6.2,13.7-13.7
			C41.2,19.9,35.1,13.8,27.5,13.8z"/>
	</g>
	<g>
		<path class="st1" d="M27.5,37.9c-5.7,0-10.4-4.7-10.4-10.4s4.7-10.4,10.4-10.4s10.4,4.7,10.4,10.4S33.2,37.9,27.5,37.9z
			 M27.5,18.1c-5.2,0-9.4,4.2-9.4,9.4s4.2,9.4,9.4,9.4s9.4-4.2,9.4-9.4S32.7,18.1,27.5,18.1z"/>
	</g>
	<g>
		<path class="st1" d="M27.5,25.5c-0.2,0-0.3-0.1-0.4-0.2l-3.3-4.8c-0.1-0.1-0.1-0.3-0.1-0.5c0.1-0.2,0.2-0.3,0.3-0.3
			c2.2-0.8,4.7-0.8,6.9,0c0.2,0.1,0.3,0.2,0.3,0.3c0.1,0.2,0,0.3-0.1,0.5l-3.3,4.8C27.8,25.4,27.7,25.5,27.5,25.5z M25,20.5l2.5,3.5
			l2.5-3.5C28.4,20,26.6,20,25,20.5z"/>
	</g>
	<g>
		<path class="st1" d="M19.5,28.9c-0.1,0-0.2,0-0.3-0.1c-0.1-0.1-0.2-0.2-0.2-0.4c0-1.2,0.1-2.3,0.5-3.5c0.4-1.1,0.9-2.2,1.6-3.1
			c0.1-0.1,0.3-0.2,0.4-0.2c0,0,0,0,0,0c0.2,0,0.3,0.1,0.4,0.2l3.5,4.6c0.1,0.1,0.1,0.3,0.1,0.5c-0.1,0.2-0.2,0.3-0.4,0.3l-5.5,1.7
			C19.6,28.9,19.6,28.9,19.5,28.9z M21.6,23c-0.5,0.7-0.8,1.4-1.1,2.2c-0.3,0.8-0.4,1.6-0.4,2.4l4.1-1.2L21.6,23z"/>
	</g>
	<g>
		<path class="st1" d="M25.9,35.9c0,0-0.1,0-0.1,0c-1.1-0.3-2.2-0.9-3.2-1.6c-1-0.7-1.8-1.5-2.5-2.5C20,31.6,20,31.5,20,31.3
			c0.1-0.2,0.2-0.3,0.3-0.3l5.5-1.9c0.2-0.1,0.3,0,0.5,0.1c0.1,0.1,0.2,0.3,0.2,0.4l-0.1,5.8c0,0.2-0.1,0.3-0.2,0.4
			C26.1,35.8,26,35.9,25.9,35.9z M21.4,31.7c0.5,0.6,1.1,1.2,1.8,1.7c0.7,0.5,1.4,0.9,2.2,1.2l0.1-4.3L21.4,31.7z"/>
	</g>
	<g>
		<path class="st1" d="M29.1,35.9c-0.1,0-0.2,0-0.3-0.1c-0.1-0.1-0.2-0.2-0.2-0.4l-0.1-5.8c0-0.2,0.1-0.3,0.2-0.4
			c0.1-0.1,0.3-0.1,0.5-0.1l5.5,1.9c0.2,0.1,0.3,0.2,0.3,0.3c0.1,0.2,0,0.3-0.1,0.5c-0.7,1-1.5,1.8-2.5,2.5c-1,0.7-2,1.2-3.2,1.6
			C29.2,35.9,29.2,35.9,29.1,35.9z M29.5,30.3l0.1,4.3c0.8-0.3,1.5-0.7,2.2-1.2c0.7-0.5,1.3-1.1,1.8-1.7L29.5,30.3z"/>
	</g>
	<g>
		<path class="st1" d="M35.5,28.9c-0.1,0-0.1,0-0.2,0l-5.5-1.7c-0.2,0-0.3-0.2-0.4-0.3c-0.1-0.2,0-0.3,0.1-0.5l3.5-4.6
			c0.1-0.1,0.3-0.2,0.4-0.2c0,0,0,0,0,0c0.2,0,0.3,0.1,0.4,0.2c0.7,0.9,1.3,2,1.6,3.1c0.4,1.1,0.5,2.3,0.5,3.5
			c0,0.2-0.1,0.3-0.2,0.4C35.7,28.9,35.6,28.9,35.5,28.9z M30.8,26.4l4.1,1.2c0-0.8-0.2-1.6-0.4-2.4c-0.3-0.8-0.6-1.5-1.1-2.2
			L30.8,26.4z"/>
	</g>
</g>
</svg>
